<svg width="72" height="72" viewBox="0 0 72 72" fill="none" xmlns="http://www.w3.org/2000/svg">
<circle cx="36" cy="36" r="36" fill="#F8ECF0"/>
<path d="M35.6545 33.9822C38.015 33.9822 40.0591 33.1594 41.7291 31.536C43.3992 29.9129 44.2459 27.9269 44.2459 25.6325C44.2459 23.3388 43.3992 21.3526 41.7289 19.7289C40.0585 18.106 38.0148 17.2832 35.6545 17.2832C33.2938 17.2832 31.2503 18.106 29.5802 19.7292C27.9101 21.3523 27.0632 23.3386 27.0632 25.6325C27.0632 27.9269 27.9101 29.9131 29.5805 31.5363C31.2509 33.1592 33.2946 33.9822 35.6545 33.9822Z" fill="white"/>
<path d="M50.687 43.9401C50.6388 43.2646 50.5414 42.5278 50.398 41.7497C50.2532 40.9657 50.0668 40.2246 49.8436 39.5473C49.6131 38.8472 49.2996 38.1558 48.9121 37.4933C48.5099 36.8057 48.0375 36.2069 47.5074 35.7141C46.953 35.1986 46.2743 34.7842 45.4895 34.4819C44.7074 34.1812 43.8406 34.0288 42.9134 34.0288C42.5493 34.0288 42.1972 34.174 41.5171 34.6043C41.0986 34.8696 40.609 35.1764 40.0625 35.5158C39.5953 35.8051 38.9623 36.0762 38.1805 36.3216C37.4177 36.5615 36.6432 36.6832 35.8787 36.6832C35.1143 36.6832 34.3401 36.5615 33.5765 36.3216C32.7954 36.0765 32.1625 35.8054 31.6957 35.516C31.1545 35.1799 30.6646 34.8731 30.2398 34.6041C29.5606 34.1738 29.2081 34.0286 28.844 34.0286C27.9166 34.0286 27.0501 34.1812 26.2683 34.4822C25.484 34.7839 24.805 35.1984 24.2501 35.7144C23.7203 36.2074 23.2476 36.8059 22.8459 37.4933C22.4586 38.1558 22.1451 38.8469 21.9144 39.5476C21.6915 40.2249 21.5051 40.9657 21.3603 41.7497C21.2169 42.5267 21.1195 43.2638 21.0713 43.9409C21.0239 44.6042 21 45.2927 21 45.988C21 47.7976 21.5919 49.2626 22.7591 50.343C23.9118 51.4092 25.4372 51.95 27.292 51.95H44.4671C46.3219 51.95 47.8467 51.4094 48.9997 50.343C50.1672 49.2634 50.7591 47.7982 50.7591 45.9878C50.7588 45.2893 50.7346 44.6003 50.687 43.9401Z" fill="white"/>
</svg>
