<svg width="40" height="40" viewBox="0 0 40 40" fill="none" xmlns="http://www.w3.org/2000/svg">
<rect x="0.5" y="0.5" width="39" height="39" rx="19.5" fill="#F8ECF0" stroke="#FF7098"/>
<path d="M8.83344 21.1594L8.83343 21.1594C7.99247 18.4326 8.81037 15.4811 10.5306 13.5628C12.2349 11.6624 14.7823 10.8101 17.4764 12.1576C17.6036 12.2214 17.7302 12.2891 17.8561 12.3613L17.8563 12.3614L20.2515 13.7334L20.5 13.8757L20.7485 13.7334L23.1437 12.3614L23.1439 12.3613C23.2699 12.289 23.3966 12.2212 23.524 12.1574C26.2181 10.8102 28.7653 11.6625 30.4695 13.5628C32.1897 15.4811 33.0075 18.4326 32.1666 21.1594L32.1665 21.1594C31.7611 22.4743 30.9571 23.6012 29.9468 24.4464C29.9468 24.4464 29.9468 24.4464 29.9468 24.4464L24.0288 29.3965C21.9864 31.1049 19.0136 31.1049 16.9712 29.3965L11.0532 24.4464C10.0429 23.6012 9.23885 22.4743 8.83344 21.1594Z" fill="#FF7098" stroke="#FF7098"/>
<path d="M14.7451 23H13.5635V17.292L11.8203 17.8877V16.8867L14.5938 15.8662H14.7451V23ZM22.3496 20.0068C22.3496 21.029 22.1576 21.8005 21.7734 22.3213C21.3926 22.8389 20.8115 23.0977 20.0303 23.0977C19.262 23.0977 18.6826 22.8454 18.292 22.3408C17.9046 21.833 17.7061 21.0827 17.6963 20.0898V18.8594C17.6963 17.8372 17.8867 17.0706 18.2676 16.5596C18.6517 16.0485 19.236 15.793 20.0205 15.793C20.7985 15.793 21.3779 16.042 21.7588 16.54C22.1429 17.0381 22.3398 17.7835 22.3496 18.7764V20.0068ZM21.1631 18.6787C21.1631 18.0114 21.0719 17.5231 20.8896 17.2139C20.7074 16.9014 20.4176 16.7451 20.0205 16.7451C19.6331 16.7451 19.3483 16.8932 19.166 17.1895C18.9837 17.4824 18.8877 17.9414 18.8779 18.5664V20.1777C18.8779 20.8418 18.9707 21.3366 19.1562 21.6621C19.3418 21.9876 19.6331 22.1504 20.0303 22.1504C20.4111 22.1504 20.6927 22.0007 20.875 21.7012C21.0573 21.3984 21.1533 20.9264 21.1631 20.2852V18.6787ZM28.5332 20.0068C28.5332 21.029 28.3411 21.8005 27.957 22.3213C27.5762 22.8389 26.9951 23.0977 26.2139 23.0977C25.4456 23.0977 24.8662 22.8454 24.4756 22.3408C24.0882 21.833 23.8896 21.0827 23.8799 20.0898V18.8594C23.8799 17.8372 24.0703 17.0706 24.4512 16.5596C24.8353 16.0485 25.4196 15.793 26.2041 15.793C26.9821 15.793 27.5615 16.042 27.9424 16.54C28.3265 17.0381 28.5234 17.7835 28.5332 18.7764V20.0068ZM27.3467 18.6787C27.3467 18.0114 27.2555 17.5231 27.0732 17.2139C26.891 16.9014 26.6012 16.7451 26.2041 16.7451C25.8167 16.7451 25.5319 16.8932 25.3496 17.1895C25.1673 17.4824 25.0713 17.9414 25.0615 18.5664V20.1777C25.0615 20.8418 25.1543 21.3366 25.3398 21.6621C25.5254 21.9876 25.8167 22.1504 26.2139 22.1504C26.5947 22.1504 26.8763 22.0007 27.0586 21.7012C27.2409 21.3984 27.3369 20.9264 27.3467 20.2852V18.6787Z" fill="white"/>
</svg>
