<svg width="42" height="42" viewBox="0 0 42 42" fill="none" xmlns="http://www.w3.org/2000/svg">
<g filter="url(#filter0_d)">
<rect x="1" y="1" width="40" height="40" rx="20" fill="url(#paint0_linear)"/>
</g>
<path d="M30.2012 17.0692H10.5941V28.8129C10.5941 31.022 12.385 32.8129 14.5941 32.8129H26.2012C28.4104 32.8129 30.2012 31.022 30.2012 28.8129V17.0692Z" fill="#FF97A9"/>
<path style="mix-blend-mode:color-dodge" opacity="0.44" d="M30.2012 17.0692H10.5941V28.8129C10.5941 31.022 12.385 32.8129 14.5941 32.8129H26.2012C28.4104 32.8129 30.2012 31.022 30.2012 28.8129V17.0692Z" fill="url(#paint1_radial)"/>
<path fill-rule="evenodd" clip-rule="evenodd" d="M11.4828 31.3606C12.2161 32.2668 13.3374 32.8463 14.594 32.8463H26.2011C28.4102 32.8463 30.2011 31.0554 30.2011 28.8463V17.3982H28.8531V29.3606C28.8531 30.4651 27.9576 31.3606 26.8531 31.3606H11.4828Z" fill="#FF5E8B"/>
<path d="M29.3846 15.077H11.6154C10.7232 15.077 10 15.8003 10 16.6924C10 17.5846 10.7232 18.3078 11.6154 18.3078H29.3846C30.2768 18.3078 31 17.5846 31 16.6924C31 15.8003 30.2768 15.077 29.3846 15.077Z" fill="#FF7098"/>
<path style="mix-blend-mode:multiply" opacity="0.46" d="M30.1923 15.8847H10.8077C10.3616 15.8847 10 16.2463 10 16.6924C10 17.5846 10.7232 18.3078 11.6154 18.3078H29.3846C30.2768 18.3078 31 17.5846 31 16.6924C31 16.2463 30.6384 15.8847 30.1923 15.8847Z" fill="url(#paint2_linear)"/>
<path d="M19 32.8466H22V24.3466V15.8466H19V32.8466Z" fill="#E20C74"/>
<g style="mix-blend-mode:screen" opacity="0.8">
<path d="M11.8944 19.1612C11.7723 19.5012 11.7839 19.8749 11.927 20.2066C12.1792 20.6927 14.9778 19.9727 14.9006 19.3097C14.8233 18.6466 12.3134 18.1524 11.8944 19.1612Z" fill="white"/>
</g>
<g style="mix-blend-mode:screen" opacity="0.8">
<path d="M11.8251 21.5163C11.7641 21.8245 11.7704 22.1422 11.8434 22.4478C11.9675 22.8831 13.3546 22.2444 13.32 21.6485C13.2854 21.0525 12.0346 20.6152 11.8251 21.5163Z" fill="white"/>
</g>
<path d="M13.1539 11.9698L19.4299 13.7911C20.0661 13.9758 20.3933 14.6791 20.1246 15.2846C19.9605 15.6545 19.6061 15.9036 19.2019 15.9243C18.2984 15.9707 16.6481 16.0311 15.4606 15.9339C14.6298 15.8659 13.5959 15.6856 12.725 15.5115C11.6941 15.3055 11.0224 14.3291 11.1532 13.2859C11.2735 12.3253 12.2242 11.7 13.1539 11.9698Z" fill="#E20C74"/>
<path d="M13.717 11.5496L18.5786 15.4014C19.1586 15.8609 20.0075 15.727 20.418 15.1113C20.6797 14.7185 20.7018 14.2135 20.4648 13.8054C19.9991 13.0037 19.1827 11.6545 18.4673 10.7587C17.9934 10.1654 17.3406 9.49138 16.744 8.91029C15.8881 8.07663 14.5429 8.08176 13.6467 8.87187C12.8305 9.59136 12.8642 10.874 13.717 11.5496Z" fill="#E20C74"/>
<path d="M28.3737 11.673L22.0977 13.4943C21.4615 13.679 21.1343 14.3823 21.4029 14.9878C21.567 15.3577 21.9215 15.6068 22.3256 15.6275C23.2292 15.6739 24.8795 15.7343 26.067 15.6371C26.8978 15.5691 27.9317 15.3888 28.8026 15.2147C29.8335 15.0087 30.5051 14.0323 30.3744 12.9891C30.2541 12.0285 29.3034 11.4032 28.3737 11.673Z" fill="#E20C74"/>
<path d="M27.8105 11.2528L22.9489 15.1046C22.3688 15.5641 21.52 15.4302 21.1095 14.8145C20.8477 14.4217 20.8256 13.9167 21.0627 13.5086C21.5284 12.7069 22.3448 11.3577 23.0602 10.4619C23.5341 9.86855 24.1869 9.19458 24.7835 8.61348C25.6394 7.77982 26.9846 7.78495 27.8808 8.57507C28.6969 9.29455 28.6632 10.5772 27.8105 11.2528Z" fill="#E20C74"/>
<circle cx="20.6956" cy="15.3182" r="1.78247" fill="url(#paint3_radial)"/>
<path d="M11.4861 14.2781C11.4861 14.2781 14.3083 16.3575 18.7967 15.1259C18.7967 15.1259 14.7539 16.0605 11.4861 14.2781Z" fill="white"/>
<path d="M14.1597 8.84583C14.1597 8.84583 17.6008 9.51549 19.7325 13.6528C19.7325 13.6528 17.6837 10.0445 14.1597 8.84583Z" fill="white"/>
<path d="M30.1306 13.9813C30.1306 13.9813 27.3084 16.0607 22.82 14.8291C22.82 14.8291 26.8628 15.7637 30.1306 13.9813Z" fill="white"/>
<path d="M27.4571 8.54902C27.4571 8.54902 24.0161 9.21868 21.8843 13.356C21.8843 13.356 23.9331 9.74772 27.4571 8.54902Z" fill="white"/>
<defs>
<filter id="filter0_d" x="0" y="0" width="42" height="42" filterUnits="userSpaceOnUse" color-interpolation-filters="sRGB">
<feFlood flood-opacity="0" result="BackgroundImageFix"/>
<feColorMatrix in="SourceAlpha" type="matrix" values="0 0 0 0 0 0 0 0 0 0 0 0 0 0 0 0 0 0 127 0" result="hardAlpha"/>
<feOffset/>
<feGaussianBlur stdDeviation="0.5"/>
<feColorMatrix type="matrix" values="0 0 0 0 0 0 0 0 0 0 0 0 0 0 0 0 0 0 0.25 0"/>
<feBlend mode="normal" in2="BackgroundImageFix" result="effect1_dropShadow"/>
<feBlend mode="normal" in="SourceGraphic" in2="effect1_dropShadow" result="shape"/>
</filter>
<linearGradient id="paint0_linear" x1="21" y1="1" x2="21" y2="41" gradientUnits="userSpaceOnUse">
<stop stop-color="white"/>
<stop offset="0.927083" stop-color="#F1F1F1"/>
</linearGradient>
<radialGradient id="paint1_radial" cx="0" cy="0" r="1" gradientUnits="userSpaceOnUse" gradientTransform="translate(20.3028 12.0207) scale(19.6592 19.4728)">
<stop stop-color="#FF7098"/>
<stop offset="1" stop-color="#FF7098"/>
</radialGradient>
<linearGradient id="paint2_linear" x1="20.5" y1="15.3463" x2="20.5" y2="18.3607" gradientUnits="userSpaceOnUse">
<stop stop-color="white"/>
<stop offset="0.21035" stop-color="#FFFCFC"/>
<stop offset="0.39491" stop-color="#FFF1F3"/>
<stop offset="0.56979" stop-color="#FFDFE4"/>
<stop offset="0.7387" stop-color="#FFC5CF"/>
<stop offset="0.90186" stop-color="#FFA5B5"/>
<stop offset="0.96309" stop-color="#FF97A9"/>
</linearGradient>
<radialGradient id="paint3_radial" cx="0" cy="0" r="1" gradientUnits="userSpaceOnUse" gradientTransform="translate(20.6956 15.3182) rotate(90) scale(1.78247)">
<stop offset="0.859375" stop-color="#E20C74"/>
<stop offset="1" stop-color="white"/>
</radialGradient>
</defs>
</svg>
