<svg width="40" height="40" viewBox="0 0 40 40" fill="none" xmlns="http://www.w3.org/2000/svg">
<circle cx="20" cy="20" r="19.5" fill="#47D580" stroke="#47D580"/>
<path d="M39.1231 20C39.1231 30.4595 30.5629 38.9409 20.0003 38.9409C9.43779 38.9409 0.8776 30.4595 0.8776 20C0.8776 9.54059 9.43779 1.05912 20.0003 1.05912C30.5629 1.05912 39.1231 9.54059 39.1231 20Z" fill="#FFEDF6" stroke="#47D580" stroke-width="0.3"/>
<path d="M37.4168 20C37.4168 29.5247 29.6214 37.25 20.0002 37.25C10.379 37.25 2.5835 29.5247 2.5835 20C2.5835 10.4753 10.379 2.75 20.0002 2.75C29.6214 2.75 37.4168 10.4753 37.4168 20Z" fill="#FFEDF6" stroke="#47D580" stroke-width="0.5"/>
<path d="M28.6922 5.05173C31.2396 6.50475 33.3727 8.57187 34.8947 11.059L20.2518 19.0771L20.3219 2.75292C23.262 2.8067 26.1418 3.59699 28.6922 5.05173Z" fill="#47D580" stroke="#47D580" stroke-width="0.5"/>
<path d="M21 5H19V6H21V5Z" fill="#219653"/>
<path d="M21 34H19V35H21V34Z" fill="#219653"/>
<path d="M12.3556 6.70337L12.3002 6.73535L12.9284 7.82368L12.9838 7.7917L12.3556 6.70337Z" fill="#219653"/>
<path d="M27.0703 32.1857L27.0149 32.2177L27.6433 33.3059L27.6987 33.2739L27.0703 32.1857Z" fill="#219653"/>
<path d="M6.72927 12.3078L6.69727 12.3632L7.78559 12.9917L7.8176 12.9363L6.72927 12.3078Z" fill="#219653"/>
<path d="M32.2145 27.02L32.1825 27.0754L33.2709 27.7037L33.3029 27.6483L32.2145 27.02Z" fill="#219653"/>
<path d="M6 19H5V21H6V19Z" fill="#219653"/>
<path d="M35 19H34V21H35V19Z" fill="#219653"/>
<path d="M7.02855 28L7 27.9184L7.97145 27L8 27.0805L7.02855 28Z" fill="#219653"/>
<path d="M33.2708 12.3029L32.182 12.9306L32.214 12.986L33.3027 12.3583L33.2708 12.3029Z" fill="#219653"/>
<path d="M12.9292 32.1848L12.3016 33.2734L12.357 33.3054L12.9847 32.2168L12.9292 32.1848Z" fill="#219653"/>
<path d="M27.6417 6.70041L27.0141 7.78906L27.0695 7.82101L27.6972 6.73236L27.6417 6.70041Z" fill="#219653"/>
<path d="M12.4403 6.65109L12.2186 6.77905L13.5841 9.14361L13.8058 9.01565L12.4403 6.65109Z" fill="#219653"/>
<path d="M26.4141 30.8672L26.193 30.9948L27.558 33.3596L27.7791 33.232L26.4141 30.8672Z" fill="#219653"/>
<path d="M6.77759 12.2204L6.6496 12.4421L9.01463 13.8073L9.14262 13.5856L6.77759 12.2204Z" fill="#219653"/>
<path d="M30.9838 26.1952L30.8562 26.4162L33.2212 27.7814L33.3489 27.5604L30.9838 26.1952Z" fill="#219653"/>
<path d="M7 19H5V21H7V19Z" fill="#219653"/>
<path d="M35 19H33V21H35V19Z" fill="#219653"/>
<path d="M30.7051 13.5564L20.2399 19.1218C19.9131 19.0456 19.57 19.0676 19.2555 19.1847C18.9411 19.3019 18.6699 19.5088 18.4775 19.7783C18.2851 20.0479 18.1806 20.3675 18.1775 20.6954C18.1745 21.0232 18.2731 21.3439 18.4604 21.6155C18.6477 21.8871 18.915 22.0969 19.2272 22.2175C19.5395 22.338 19.8822 22.3636 20.2103 22.291C20.5385 22.2184 20.8369 22.0509 21.0664 21.8105C21.2958 21.57 21.4457 21.2679 21.4963 20.9436L30.7051 13.5564ZM19.9253 21.8117C19.701 21.8274 19.4771 21.7779 19.2821 21.6695C19.0871 21.561 18.9296 21.3985 18.8296 21.2025C18.7297 21.0065 18.6916 20.7858 18.7204 20.5683C18.7492 20.3507 18.8434 20.1462 18.9913 19.9805C19.1391 19.8148 19.3338 19.6953 19.5509 19.6373C19.7679 19.5792 19.9976 19.5852 20.2107 19.6544C20.4238 19.7236 20.6109 19.8529 20.7482 20.026C20.8856 20.1991 20.967 20.4082 20.9823 20.6268C21.0026 20.92 20.9027 21.2094 20.7045 21.4316C20.5063 21.6537 20.2261 21.7905 19.9253 21.8117Z" fill="#219653"/>
<path d="M13.5841 30.8594L12.2186 33.224L12.4403 33.352L13.8058 30.9874L13.5841 30.8594Z" fill="#219653"/>
<path d="M27.563 6.65703L26.1963 9.02087L26.4173 9.14858L27.7839 6.78474L27.563 6.65703Z" fill="#219653"/>
<path d="M9.01605 26.1958L6.65149 27.5618L6.77918 27.7827L9.14374 26.4167L9.01605 26.1958Z" fill="#219653"/>
<path d="M33.2226 12.2248L30.8573 13.5895L30.9852 13.8112L33.3505 12.4464L33.2226 12.2248Z" fill="#219653"/>
<path d="M21 5H19V7H21V5Z" fill="#219653"/>
<path d="M21 33H19V35H21V33Z" fill="#219653"/>
</svg>
