<svg width="40" height="40" viewBox="0 0 40 40" fill="none" xmlns="http://www.w3.org/2000/svg">
<circle cx="20" cy="20" r="19.5" fill="#FA9E67" stroke="#FA9E67"/>
<path d="M39.1231 20C39.1231 30.4595 30.5629 38.9409 20.0003 38.9409C9.43779 38.9409 0.8776 30.4595 0.8776 20C0.8776 9.54059 9.43779 1.05912 20.0003 1.05912C30.5629 1.05912 39.1231 9.54059 39.1231 20Z" fill="#FFEDF6" stroke="#FA9E67" stroke-width="0.3"/>
<path d="M37.4168 20C37.4168 29.5247 29.6214 37.25 20.0002 37.25C10.379 37.25 2.5835 29.5247 2.5835 20C2.5835 10.4753 10.379 2.75 20.0002 2.75C29.6214 2.75 37.4168 10.4753 37.4168 20Z" fill="#FFEDF6" stroke="#FA9E67" stroke-width="0.5"/>
<path d="M9.12734 33.7932C11.1866 35.386 13.5769 36.5065 16.1259 37.074C18.675 37.6416 21.3195 37.642 23.8687 37.0753L20.0002 20L9.12734 33.7932Z" fill="#FA9E67"/>
<path d="M5.66213 9.77594C4.3067 11.6411 3.33541 13.7524 2.80371 15.9894C2.27201 18.2263 2.19031 20.5451 2.56329 22.8134L20.0002 20L5.66213 9.77594Z" fill="#FA9E67"/>
<path d="M16.4551 2.85594C19.1864 2.30178 22.0113 2.39579 24.6989 3.1303C27.3864 3.86481 29.8604 5.21896 31.9184 7.08203L20.0002 20L16.4551 2.85594Z" fill="#FA9E67"/>
<path d="M37.4668 17.3741C38.1699 21.9628 37.0039 26.6403 34.2254 30.3775L20.0002 20L37.4668 17.3741Z" fill="#FA9E67"/>
<path d="M21.5057 20C21.5057 20.8225 20.8323 21.4909 19.9996 21.4909C19.1669 21.4909 18.4936 20.8225 18.4936 20C18.4936 19.1775 19.1669 18.5091 19.9996 18.5091C20.8323 18.5091 21.5057 19.1775 21.5057 20Z" fill="#FFEDF6" stroke="#FA9E67" stroke-width="0.2"/>
</svg>
