<svg width="80" height="80" viewBox="0 0 80 80" fill="none" xmlns="http://www.w3.org/2000/svg">
<g filter="url(#filter0_d)">
<circle cx="40" cy="36" r="35.5" fill="white" stroke="#47D580"/>
<path d="M70.5 36C70.5 52.8447 56.8447 66.5 40 66.5C23.1553 66.5 9.5 52.8447 9.5 36C9.5 19.1553 23.1553 5.5 40 5.5C56.8447 5.5 70.5 19.1553 70.5 36Z" fill="#47D580" stroke="#47D580"/>
</g>
<path fill-rule="evenodd" clip-rule="evenodd" d="M40 16C40.5894 16 41.1546 16.2341 41.5714 16.6509C41.9881 17.0676 42.2222 17.6329 42.2222 18.2222V36C42.2222 36.5894 41.9881 37.1546 41.5714 37.5713C41.1546 37.9881 40.5894 38.2222 40 38.2222H22.2222C21.6329 38.2222 21.0676 37.9881 20.6509 37.5713C20.2341 37.1546 20 36.5894 20 36C20 35.4106 20.2341 34.8454 20.6509 34.4287C21.0676 34.0119 21.6329 33.7778 22.2222 33.7778H37.7778V18.2222C37.7778 17.6329 38.0119 17.0676 38.4287 16.6509C38.8454 16.2341 39.4106 16 40 16Z" fill="white"/>
<path fill-rule="evenodd" clip-rule="evenodd" d="M37.7778 36.0001C37.7778 35.4107 38.012 34.8455 38.4287 34.4287C38.8455 34.012 39.4107 33.7778 40.0001 33.7778H57.7778C58.3672 33.7778 58.9324 34.012 59.3492 34.4287C59.7659 34.8455 60.0001 35.4107 60.0001 36.0001C60.0001 36.5894 59.7659 37.1547 59.3492 37.5714C58.9324 37.9882 58.3672 38.2223 57.7778 38.2223H42.2223V53.7778C42.2223 54.3672 41.9882 54.9324 41.5714 55.3492C41.1547 55.7659 40.5894 56.0001 40.0001 56.0001C39.4107 56.0001 38.8455 55.7659 38.4287 55.3492C38.012 54.9324 37.7778 54.3672 37.7778 53.7778V36.0001Z" fill="white"/>
<defs>
<filter id="filter0_d" x="0" y="0" width="80" height="80" filterUnits="userSpaceOnUse" color-interpolation-filters="sRGB">
<feFlood flood-opacity="0" result="BackgroundImageFix"/>
<feColorMatrix in="SourceAlpha" type="matrix" values="0 0 0 0 0 0 0 0 0 0 0 0 0 0 0 0 0 0 127 0"/>
<feOffset dy="4"/>
<feGaussianBlur stdDeviation="2"/>
<feColorMatrix type="matrix" values="0 0 0 0 0.0802604 0 0 0 0 0.279167 0 0 0 0 0.159823 0 0 0 0.3 0"/>
<feBlend mode="normal" in2="BackgroundImageFix" result="effect1_dropShadow"/>
<feBlend mode="normal" in="SourceGraphic" in2="effect1_dropShadow" result="shape"/>
</filter>
</defs>
</svg>
