<svg width="56" height="56" viewBox="0 0 56 56" fill="none" xmlns="http://www.w3.org/2000/svg">
<g filter="url(#filter0_d)">
<circle cx="28" cy="27" r="25.5" fill="#47D580" stroke="#47D580"/>
<circle cx="28.0008" cy="27.0008" r="24.55" fill="#FFEDF6" stroke="#47D580" stroke-width="0.3"/>
<circle cx="27.9996" cy="26.9996" r="23.15" fill="#FFEDF6" stroke="#47D580" stroke-width="0.5"/>
<mask id="path-4-inside-1" fill="white">
<path d="M27.9996 3.59961C32.4504 3.59961 36.8089 4.86894 40.5637 7.25869C44.3185 9.64843 47.3139 13.0595 49.1984 17.0916L27.9996 26.9996V3.59961Z"/>
</mask>
<path d="M27.9996 3.59961C32.4504 3.59961 36.8089 4.86894 40.5637 7.25869C44.3185 9.64843 47.3139 13.0595 49.1984 17.0916L27.9996 26.9996V3.59961Z" fill="#47D580" stroke="#47D580" mask="url(#path-4-inside-1)"/>
<path d="M18.8667 9.85477L18.791 9.89844L19.6485 11.3843L19.7242 11.3406L18.8667 9.85477Z" fill="#219653"/>
<path d="M38.9506 44.6458L38.875 44.6895L39.7328 46.1752L39.8084 46.1315L38.9506 44.6458Z" fill="#219653"/>
<path d="M11.1863 17.5064L11.1426 17.582L12.6281 18.4401L12.6718 18.3644L11.1863 17.5064Z" fill="#219653"/>
<path d="M45.9714 37.5943L45.9277 37.6699L47.4134 38.5277L47.4571 38.452L45.9714 37.5943Z" fill="#219653"/>
<path d="M11.1738 38.7004L11.0996 38.5943L13.6254 37.4004L13.6996 37.5051L11.1738 38.7004Z" fill="#219653"/>
<path d="M47.4139 17.5024L45.9277 18.3594L45.9714 18.435L47.4575 17.578L47.4139 17.5024Z" fill="#219653"/>
<path d="M19.6478 44.6465L18.791 46.1328L18.8667 46.1764L19.7234 44.6901L19.6478 44.6465Z" fill="#219653"/>
<path d="M39.7317 9.85353L38.875 11.3398L38.9507 11.3835L39.8074 9.89715L39.7317 9.85353Z" fill="#219653"/>
<path d="M18.9823 9.78623L18.6797 9.96094L20.5435 13.1892L20.8461 13.0145L18.9823 9.78623Z" fill="#219653"/>
<path d="M38.0537 42.8473L37.752 43.0215L39.6152 46.2501L39.917 46.0759L38.0537 42.8473Z" fill="#219653"/>
<path d="M11.2528 17.3888L11.0781 17.6914L14.3064 19.5552L14.4811 19.2526L11.2528 17.3888Z" fill="#219653"/>
<path d="M44.2953 36.4678L44.1211 36.7695L47.3494 38.6334L47.5236 38.3317L44.2953 36.4678Z" fill="#219653"/>
<ellipse cx="28.0795" cy="26.9559" rx="1.125" ry="1.125" transform="rotate(119.591 28.0795 26.9559)" fill="#FFEDF6"/>
<path d="M38.0652 22.374L28.2153 25.491C27.9498 25.3698 27.6539 25.3317 27.3663 25.3815C27.0787 25.4314 26.8129 25.567 26.6037 25.7705C26.3946 25.974 26.2517 26.236 26.1939 26.5221C26.1362 26.8082 26.1662 27.105 26.28 27.3738C26.3939 27.6425 26.5862 27.8706 26.8319 28.0282C27.0776 28.1857 27.3651 28.2654 27.6569 28.2567C27.9486 28.2481 28.2309 28.1515 28.4668 27.9796C28.7027 27.8078 28.8812 27.5687 28.9789 27.2937L38.0652 22.374ZM27.4947 27.7901C27.301 27.7663 27.1187 27.6856 26.9708 27.5583C26.823 27.4309 26.7162 27.2625 26.664 27.0744C26.6119 26.8864 26.6166 26.687 26.6777 26.5017C26.7388 26.3163 26.8535 26.1532 27.0073 26.0331C27.1611 25.9129 27.3471 25.841 27.5417 25.8265C27.7364 25.8121 27.9309 25.8556 28.1008 25.9517C28.2707 26.0478 28.4082 26.1921 28.4961 26.3664C28.584 26.5407 28.6182 26.7371 28.5944 26.9308C28.5623 27.1905 28.4285 27.4268 28.2223 27.5879C28.0162 27.7491 27.7545 27.8218 27.4947 27.7901Z" fill="#219653"/>
<path d="M8.5 28.3008H12.4V28.3008H8.5V28.3008Z" stroke="#219653" stroke-width="0.3"/>
<path d="M46.1992 28.3008H50.0992V28.3008H46.1992V28.3008Z" stroke="#219653" stroke-width="0.3"/>
<path d="M20.5435 42.8342L18.6797 46.0625L18.9823 46.2372L20.8461 43.0089L20.5435 42.8342Z" fill="#219653"/>
<path d="M39.6233 9.79224L37.7578 13.0195L38.0594 13.1939L39.925 9.96659L39.6233 9.79224Z" fill="#219653"/>
<path d="M14.3077 36.469L11.0801 38.334L11.2544 38.6356L14.482 36.7707L14.3077 36.469Z" fill="#219653"/>
<path d="M47.3497 17.3945L44.1211 19.2578L44.2957 19.5604L47.5243 17.6972L47.3497 17.3945Z" fill="#219653"/>
<path d="M28 7.5V7.5V11.4V11.4V7.5Z" stroke="#219653" stroke-width="0.3"/>
<path d="M28 45.1992V45.1992V49.0992V49.0992V45.1992Z" stroke="#219653" stroke-width="0.3"/>
</g>
<defs>
<filter id="filter0_d" x="0" y="0" width="56" height="56" filterUnits="userSpaceOnUse" color-interpolation-filters="sRGB">
<feFlood flood-opacity="0" result="BackgroundImageFix"/>
<feColorMatrix in="SourceAlpha" type="matrix" values="0 0 0 0 0 0 0 0 0 0 0 0 0 0 0 0 0 0 127 0"/>
<feOffset dy="1"/>
<feGaussianBlur stdDeviation="1"/>
<feColorMatrix type="matrix" values="0 0 0 0 0.129412 0 0 0 0 0.588235 0 0 0 0 0.32549 0 0 0 1 0"/>
<feBlend mode="normal" in2="BackgroundImageFix" result="effect1_dropShadow"/>
<feBlend mode="normal" in="SourceGraphic" in2="effect1_dropShadow" result="shape"/>
</filter>
</defs>
</svg>
