<svg width="56" height="56" viewBox="0 0 56 56" fill="none" xmlns="http://www.w3.org/2000/svg">
<g filter="url(#filter0_d)">
<circle cx="28" cy="27" r="25.5" fill="#FDBD04" stroke="#FDBD04"/>
<circle cx="28.0008" cy="27.0008" r="24.55" fill="#FFEDF6" stroke="#FDBD04" stroke-width="0.3"/>
<circle cx="27.9996" cy="26.9996" r="23.15" fill="#FFEDF6" stroke="#FDBD04" stroke-width="0.5"/>
<mask id="path-4-inside-1" fill="white">
<path d="M27.9996 3.59961C32.1656 3.59961 36.256 4.71178 39.8484 6.82125C43.4408 8.93073 46.4049 11.961 48.4346 15.5991C50.4642 19.2372 51.4859 23.3512 51.3939 27.5161C51.302 31.6811 50.0998 35.7459 47.9115 39.2909L27.9996 26.9996V3.59961Z"/>
</mask>
<path d="M27.9996 3.59961C32.1656 3.59961 36.256 4.71178 39.8484 6.82125C43.4408 8.93073 46.4049 11.961 48.4346 15.5991C50.4642 19.2372 51.4859 23.3512 51.3939 27.5161C51.302 31.6811 50.0998 35.7459 47.9115 39.2909L27.9996 26.9996V3.59961Z" fill="#FDBD04" stroke="#FDBD04" mask="url(#path-4-inside-1)"/>
<path d="M18.8667 9.85477L18.791 9.89844L19.6485 11.3843L19.7242 11.3406L18.8667 9.85477Z" fill="#E97810"/>
<path d="M38.9506 44.6458L38.875 44.6895L39.7328 46.1752L39.8084 46.1315L38.9506 44.6458Z" fill="#E97810"/>
<path d="M11.1863 17.5064L11.1426 17.582L12.6281 18.4401L12.6718 18.3644L11.1863 17.5064Z" fill="#E97810"/>
<path d="M45.9714 37.5943L45.9277 37.6699L47.4134 38.5277L47.4571 38.452L45.9714 37.5943Z" fill="#E97810"/>
<path d="M11.1738 38.7004L11.0996 38.5943L13.6254 37.4004L13.6996 37.5051L11.1738 38.7004Z" fill="#E97810"/>
<path d="M47.4139 17.5024L45.9277 18.3594L45.9714 18.435L47.4575 17.578L47.4139 17.5024Z" fill="#E97810"/>
<path d="M19.6478 44.6465L18.791 46.1328L18.8667 46.1764L19.7234 44.6901L19.6478 44.6465Z" fill="#E97810"/>
<path d="M39.7317 9.85353L38.875 11.3398L38.9507 11.3835L39.8074 9.89715L39.7317 9.85353Z" fill="#E97810"/>
<path d="M18.9823 9.78623L18.6797 9.96094L20.5435 13.1892L20.8461 13.0145L18.9823 9.78623Z" fill="#E97810"/>
<path d="M38.0537 42.8473L37.752 43.0215L39.6152 46.2501L39.917 46.0759L38.0537 42.8473Z" fill="#E97810"/>
<path d="M11.2528 17.3888L11.0781 17.6914L14.3064 19.5552L14.4811 19.2526L11.2528 17.3888Z" fill="#E97810"/>
<path d="M44.2953 36.4678L44.1211 36.7695L47.3494 38.6334L47.5236 38.3317L44.2953 36.4678Z" fill="#E97810"/>
<ellipse cx="28.0795" cy="26.9559" rx="1.125" ry="1.125" transform="rotate(119.591 28.0795 26.9559)" fill="#FFEDF6"/>
<path d="M37.598 32.9024L29.3357 26.7C29.2799 26.4136 29.1389 26.1506 28.9311 25.9456C28.7234 25.7406 28.4586 25.6032 28.1713 25.5513C27.8841 25.4994 27.5879 25.5355 27.3216 25.6548C27.0552 25.7741 26.8311 25.9711 26.6786 26.2199C26.5261 26.4688 26.4524 26.7579 26.467 27.0494C26.4816 27.3409 26.584 27.6212 26.7606 27.8535C26.9373 28.0858 27.18 28.2594 27.457 28.3514C27.7339 28.4435 28.0322 28.4497 28.3128 28.3693L37.598 32.9024ZM27.0461 27.4503C26.9528 27.2789 26.9125 27.0836 26.9301 26.8893C26.9478 26.6949 27.0228 26.5101 27.1455 26.3584C27.2682 26.2066 27.4331 26.0946 27.6194 26.0365C27.8058 25.9785 28.0052 25.977 28.1923 26.0323C28.3795 26.0876 28.5461 26.1971 28.671 26.347C28.796 26.497 28.8736 26.6806 28.8942 26.8747C28.9148 27.0688 28.8773 27.2646 28.7866 27.4374C28.6959 27.6102 28.556 27.7522 28.3845 27.8455C28.1546 27.9704 27.8845 27.9989 27.6335 27.9248C27.3826 27.8507 27.1713 27.6801 27.0461 27.4503Z" fill="#E97810"/>
<path d="M8.5 28.3008H12.4V28.3008H8.5V28.3008Z" stroke="#E97810" stroke-width="0.3"/>
<path d="M46.1992 28.3008H50.0992V28.3008H46.1992V28.3008Z" stroke="#E97810" stroke-width="0.3"/>
<path d="M20.5435 42.8342L18.6797 46.0625L18.9823 46.2372L20.8461 43.0089L20.5435 42.8342Z" fill="#E97810"/>
<path d="M39.6233 9.79224L37.7578 13.0195L38.0594 13.1939L39.925 9.96659L39.6233 9.79224Z" fill="#E97810"/>
<path d="M14.3077 36.469L11.0801 38.334L11.2544 38.6356L14.482 36.7707L14.3077 36.469Z" fill="#E97810"/>
<path d="M47.3497 17.3945L44.1211 19.2578L44.2957 19.5604L47.5243 17.6972L47.3497 17.3945Z" fill="#E97810"/>
<path d="M28 7.5V7.5V11.4V11.4V7.5Z" stroke="#E97810" stroke-width="0.3"/>
<path d="M28 45.1992V45.1992V49.0992V49.0992V45.1992Z" stroke="#E97810" stroke-width="0.3"/>
</g>
<defs>
<filter id="filter0_d" x="0" y="0" width="56" height="56" filterUnits="userSpaceOnUse" color-interpolation-filters="sRGB">
<feFlood flood-opacity="0" result="BackgroundImageFix"/>
<feColorMatrix in="SourceAlpha" type="matrix" values="0 0 0 0 0 0 0 0 0 0 0 0 0 0 0 0 0 0 127 0"/>
<feOffset dy="1"/>
<feGaussianBlur stdDeviation="1"/>
<feColorMatrix type="matrix" values="0 0 0 0 0.775 0 0 0 0 0.320281 0 0 0 0 0.0484375 0 0 0 1 0"/>
<feBlend mode="normal" in2="BackgroundImageFix" result="effect1_dropShadow"/>
<feBlend mode="normal" in="SourceGraphic" in2="effect1_dropShadow" result="shape"/>
</filter>
</defs>
</svg>
