<svg width="56" height="56" viewBox="0 0 56 56" fill="none" xmlns="http://www.w3.org/2000/svg">
<g filter="url(#filter0_d)">
<circle cx="28" cy="27" r="25.5" fill="#56CCF2" stroke="#56CCF2"/>
<circle cx="28.0008" cy="27.0008" r="24.55" fill="#FFEDF6" stroke="#56CCF2" stroke-width="0.3"/>
<circle cx="27.9996" cy="26.9996" r="23.15" fill="#FFEDF6" stroke="#56CCF2" stroke-width="0.5"/>
<path d="M18.8667 9.85477L18.791 9.89844L19.6485 11.3843L19.7242 11.3406L18.8667 9.85477Z" fill="#037499"/>
<path d="M38.9506 44.6458L38.875 44.6895L39.7328 46.1752L39.8084 46.1315L38.9506 44.6458Z" fill="#037499"/>
<path d="M11.1863 17.5064L11.1426 17.582L12.6281 18.4401L12.6718 18.3644L11.1863 17.5064Z" fill="#037499"/>
<path d="M45.9714 37.5943L45.9277 37.6699L47.4134 38.5277L47.4571 38.452L45.9714 37.5943Z" fill="#037499"/>
<path d="M11.1738 38.7004L11.0996 38.5943L13.6254 37.4004L13.6996 37.5051L11.1738 38.7004Z" fill="#037499"/>
<path d="M47.4139 17.5024L45.9277 18.3594L45.9714 18.435L47.4575 17.578L47.4139 17.5024Z" fill="#037499"/>
<path d="M19.6478 44.6465L18.791 46.1328L18.8667 46.1764L19.7234 44.6901L19.6478 44.6465Z" fill="#037499"/>
<path d="M39.7317 9.85353L38.875 11.3398L38.9507 11.3835L39.8074 9.89715L39.7317 9.85353Z" fill="#037499"/>
<path d="M18.9823 9.78623L18.6797 9.96094L20.5435 13.1892L20.8461 13.0145L18.9823 9.78623Z" fill="#037499"/>
<path d="M27.9996 50.3996C34.2057 50.3996 40.1576 47.9343 44.5459 43.5459C48.9343 39.1576 51.3996 33.2057 51.3996 26.9996C51.3996 20.7935 48.9343 14.8417 44.5459 10.4533C40.1576 6.06496 34.2057 3.59961 27.9996 3.59961L27.9996 26.9996L27.9996 50.3996Z" fill="#56CCF2"/>
<path d="M38.0537 42.8473L37.752 43.0215L39.6152 46.2501L39.917 46.0759L38.0537 42.8473Z" fill="#037499"/>
<path d="M11.2528 17.3888L11.0781 17.6914L14.3064 19.5552L14.4811 19.2526L11.2528 17.3888Z" fill="#037499"/>
<path d="M44.2953 36.4678L44.1211 36.7695L47.3494 38.6334L47.5236 38.3317L44.2953 36.4678Z" fill="#037499"/>
<ellipse cx="28.0795" cy="26.9559" rx="1.125" ry="1.125" transform="rotate(119.591 28.0795 26.9559)" fill="#FFEDF6"/>
<path d="M28.1945 38.3281L29.1014 28.0367C29.3153 27.8381 29.4642 27.5795 29.5286 27.2949C29.5931 27.0102 29.57 26.7127 29.4625 26.4414C29.355 26.1701 29.168 25.9375 28.9261 25.7743C28.6842 25.611 28.3986 25.5247 28.1067 25.5265C27.8148 25.5283 27.5304 25.6183 27.2905 25.7846C27.0506 25.9509 26.8666 26.1857 26.7625 26.4584C26.6584 26.7311 26.6391 27.0288 26.7071 27.3126C26.7752 27.5965 26.9273 27.8531 27.1437 28.049L28.1945 38.3281ZM27.2556 26.488C27.352 26.3183 27.4965 26.181 27.671 26.0934C27.8454 26.0058 28.0419 25.972 28.2355 25.996C28.4292 26.0201 28.6114 26.1011 28.7591 26.2288C28.9067 26.3564 29.0132 26.525 29.0651 26.7131C29.1169 26.9013 29.1118 27.1006 29.0504 27.2858C28.989 27.4711 28.874 27.634 28.72 27.7539C28.566 27.8738 28.3799 27.9454 28.1853 27.9595C27.9906 27.9737 27.7961 27.9298 27.6264 27.8334C27.399 27.704 27.2322 27.4897 27.1627 27.2374C27.0932 26.9852 27.1266 26.7156 27.2556 26.488Z" fill="#037499"/>
<path d="M8.5 28.3008H12.4V28.3008H8.5V28.3008Z" stroke="#037499" stroke-width="0.3"/>
<path d="M46.1992 28.3008H50.0992V28.3008H46.1992V28.3008Z" stroke="#037499" stroke-width="0.3"/>
<path d="M20.5435 42.8342L18.6797 46.0625L18.9823 46.2372L20.8461 43.0089L20.5435 42.8342Z" fill="#037499"/>
<path d="M39.6233 9.79224L37.7578 13.0195L38.0594 13.1939L39.925 9.96659L39.6233 9.79224Z" fill="#037499"/>
<path d="M14.3077 36.469L11.0801 38.334L11.2544 38.6356L14.482 36.7707L14.3077 36.469Z" fill="#037499"/>
<path d="M47.3497 17.3945L44.1211 19.2578L44.2957 19.5604L47.5243 17.6972L47.3497 17.3945Z" fill="#037499"/>
<path d="M28 7.5V7.5V11.4V11.4V7.5Z" stroke="#037499" stroke-width="0.3"/>
<path d="M28 45.1992V45.1992V49.0992V49.0992V45.1992Z" stroke="#037499" stroke-width="0.3"/>
</g>
<defs>
<filter id="filter0_d" x="0" y="0" width="56" height="56" filterUnits="userSpaceOnUse" color-interpolation-filters="sRGB">
<feFlood flood-opacity="0" result="BackgroundImageFix"/>
<feColorMatrix in="SourceAlpha" type="matrix" values="0 0 0 0 0 0 0 0 0 0 0 0 0 0 0 0 0 0 127 0"/>
<feOffset dy="1"/>
<feGaussianBlur stdDeviation="1"/>
<feColorMatrix type="matrix" values="0 0 0 0 0.305764 0 0 0 0 0.45451 0 0 0 0 0.616667 0 0 0 1 0"/>
<feBlend mode="normal" in2="BackgroundImageFix" result="effect1_dropShadow"/>
<feBlend mode="normal" in="SourceGraphic" in2="effect1_dropShadow" result="shape"/>
</filter>
</defs>
</svg>
