<svg width="13" height="13" viewBox="0 0 13 13" fill="none" xmlns="http://www.w3.org/2000/svg">
<path fill-rule="evenodd" clip-rule="evenodd" d="M12.6256 0.625582C12.1531 0.153102 11.387 0.153166 10.9144 0.625723L6.92349 4.61668L3.0089 0.702095C2.53643 0.229615 1.77032 0.229679 1.29776 0.702236C0.825206 1.17479 0.825143 1.9409 1.29762 2.41338L5.2122 6.32796L1.22125 10.3189C0.748691 10.7915 0.748628 11.5576 1.22111 12.0301C1.69359 12.5025 2.45969 12.5025 2.93225 12.0299L6.9232 8.03896L10.8378 11.9535C11.3103 12.426 12.0764 12.426 12.5489 11.9534C13.0215 11.4808 13.0215 10.7147 12.5491 10.2423L8.63449 6.32768L12.6254 2.33672C13.098 1.86417 13.0981 1.09806 12.6256 0.625582Z" fill="#E3BEC9"/>
</svg>
