<svg width="19" height="22" viewBox="0 0 19 22" fill="none" xmlns="http://www.w3.org/2000/svg">
<path d="M9.50014 0.928467C10.323 0.928393 11.1145 1.2439 11.7117 1.80999C12.3089 2.37608 12.6663 3.14964 12.7101 3.97132L12.7144 4.14275H17.4287C17.5916 4.1428 17.7484 4.20468 17.8674 4.31587C17.9864 4.42707 18.0588 4.57929 18.0699 4.74179C18.081 4.90429 18.03 5.06495 17.9272 5.19129C17.8244 5.31764 17.6775 5.40027 17.5161 5.42247L17.4287 5.42847H16.521L15.4753 18.331C15.41 19.136 15.0442 19.8868 14.4505 20.4343C13.8568 20.9817 13.0788 21.2857 12.2713 21.2856H6.729C5.92144 21.2857 5.14344 20.9817 4.54977 20.4343C3.9561 19.8868 3.59025 19.136 3.525 18.331L2.47843 5.42847H1.57157C1.41622 5.42846 1.26613 5.3722 1.14906 5.27009C1.03198 5.16799 0.955838 5.02694 0.934711 4.87304L0.928711 4.78561C0.928717 4.63026 0.984976 4.48017 1.08708 4.3631C1.18919 4.24602 1.33024 4.16988 1.48414 4.14875L1.57157 4.14275H6.28585C6.28585 3.29027 6.6245 2.4727 7.2273 1.86991C7.83009 1.26711 8.64766 0.928467 9.50014 0.928467ZM15.2319 5.42847H3.76843L4.80643 18.2273C4.84562 18.7103 5.06517 19.1608 5.42141 19.4892C5.77764 19.8177 6.24446 20 6.729 19.9999H12.2713C12.7558 20 13.2226 19.8177 13.5789 19.4892C13.9351 19.1608 14.1547 18.7103 14.1939 18.2273L15.231 5.42847H15.2319ZM7.57157 8.64275C7.72691 8.64276 7.877 8.69902 7.99408 8.80112C8.11116 8.90323 8.1873 9.04428 8.20843 9.19818L8.21443 9.28561V16.1428C8.21438 16.3056 8.1525 16.4624 8.04131 16.5814C7.93011 16.7004 7.77788 16.7728 7.61539 16.7839C7.45289 16.795 7.29223 16.744 7.16588 16.6412C7.03954 16.5385 6.95691 16.3915 6.93471 16.2302L6.92871 16.1428V9.28561C6.92871 9.11511 6.99644 8.9516 7.117 8.83104C7.23756 8.71048 7.40107 8.64275 7.57157 8.64275ZM11.4287 8.64275C11.5841 8.64276 11.7341 8.69902 11.8512 8.80112C11.9683 8.90323 12.0444 9.04428 12.0656 9.19818L12.0716 9.28561V16.1428C12.0715 16.3056 12.0096 16.4624 11.8984 16.5814C11.7873 16.7004 11.635 16.7728 11.4725 16.7839C11.31 16.795 11.1494 16.744 11.023 16.6412C10.8967 16.5385 10.8141 16.3915 10.7919 16.2302L10.7859 16.1428V9.28561C10.7859 9.11511 10.8536 8.9516 10.9741 8.83104C11.0947 8.71048 11.2582 8.64275 11.4287 8.64275ZM9.50014 2.21418C9.01146 2.21412 8.54098 2.39958 8.18378 2.73307C7.82658 3.06656 7.6093 3.52322 7.57585 4.01075L7.57157 4.14275H11.4287L11.4244 4.01075C11.391 3.52322 11.1737 3.06656 10.8165 2.73307C10.4593 2.39958 9.98882 2.21412 9.50014 2.21418Z" fill="#FF0000"/>
</svg>
