<svg width="20" height="20" viewBox="0 0 20 20" fill="none" xmlns="http://www.w3.org/2000/svg">
<g clip-path="url(#clip0)">
<path d="M2.47574 7.52515C1.10747 7.52515 0 8.632 0 9.99965C0 11.3673 1.10622 12.4748 2.47574 12.4748C3.84152 12.4748 4.95024 11.3692 4.95024 9.99965C4.95024 8.632 3.84152 7.52515 2.47574 7.52515ZM10.1282 7.52515C8.76306 7.52515 7.65247 8.63137 7.65247 9.99902C7.65247 11.3667 8.76182 12.4741 10.1282 12.4741C11.4946 12.4741 12.6052 11.3685 12.6052 9.99902C12.604 8.63199 11.4946 7.52515 10.1282 7.52515ZM17.5261 7.52515C16.1585 7.52515 15.0498 8.63199 15.0498 10.0003C15.0498 11.3667 16.1566 12.4741 17.5261 12.4741C18.8913 12.4741 20 11.3685 20 10.0003C20 8.63199 18.8913 7.52515 17.5261 7.52515Z" fill="white"/>
</g>
<defs>
<clipPath id="clip0">
<rect width="20" height="20" fill="white"/>
</clipPath>
</defs>
</svg>
