<svg width="24" height="24" viewBox="0 0 24 24" fill="none" xmlns="http://www.w3.org/2000/svg">
<g clip-path="url(#clip0)">
<path fill-rule="evenodd" clip-rule="evenodd" d="M21 4.07206C20.9984 3.92738 20.9424 3.79359 20.8405 3.69325L20.2999 3.1581C20.0853 2.94575 19.736 2.94808 19.5237 3.16043C19.3712 3.31211 19.2359 3.44901 19.1417 3.54391L20.4563 4.84445C20.5504 4.74878 20.6858 4.61188 20.8374 4.4602C20.9424 4.35597 21 4.21751 21 4.07206ZM4 6.81417V17.9668C4 19.0892 4.91007 20.0032 6.02782 20.0032H17.1408C18.2585 20.0032 19.1678 19.0892 19.1678 17.9668V8.67631L18.0749 9.7645V17.9668C18.0749 18.4848 17.6557 18.9056 17.1408 18.9056H6.02782C5.51211 18.9056 5.09286 18.4848 5.09286 17.9668V6.81417C5.09286 6.29691 5.51211 5.8761 6.02782 5.8761H14.3732L15.4762 4.77779H6.02782C4.91007 4.77779 4 5.69175 4 6.81417ZM10.7757 11.8777L10.3027 13.6395L12.091 13.1752L20.0708 5.22333L18.7586 3.92201L10.7757 11.8777Z" fill="black"/>
</g>
<defs>
<clipPath id="clip0">
<rect width="17" height="17.0032" fill="white" transform="translate(4 3)"/>
</clipPath>
</defs>
</svg>
