<svg width="25" height="24" viewBox="0 0 25 24" fill="none" xmlns="http://www.w3.org/2000/svg">
<path d="M12.5001 1.92847C13.323 1.92839 14.1145 2.2439 14.7117 2.80999C15.3089 3.37608 15.6663 4.14964 15.7101 4.97132L15.7144 5.14275H20.4287C20.5916 5.1428 20.7484 5.20468 20.8674 5.31587C20.9864 5.42707 21.0588 5.57929 21.0699 5.74179C21.081 5.90429 21.03 6.06495 20.9272 6.19129C20.8244 6.31764 20.6775 6.40027 20.5161 6.42247L20.4287 6.42847H19.521L18.4753 19.331C18.41 20.136 18.0442 20.8868 17.4505 21.4343C16.8568 21.9817 16.0788 22.2857 15.2713 22.2856H9.729C8.92144 22.2857 8.14344 21.9817 7.54977 21.4343C6.9561 20.8868 6.59025 20.136 6.525 19.331L5.47843 6.42847H4.57157C4.41622 6.42846 4.26613 6.3722 4.14906 6.27009C4.03198 6.16799 3.95584 6.02694 3.93471 5.87304L3.92871 5.78561C3.92872 5.63026 3.98498 5.48017 4.08708 5.3631C4.18919 5.24602 4.33024 5.16988 4.48414 5.14875L4.57157 5.14275H9.28585C9.28585 4.29027 9.6245 3.4727 10.2273 2.86991C10.8301 2.26711 11.6477 1.92847 12.5001 1.92847ZM18.2319 6.42847H6.76843L7.80643 19.2273C7.84562 19.7103 8.06517 20.1608 8.42141 20.4892C8.77764 20.8177 9.24446 21 9.729 20.9999H15.2713C15.7558 21 16.2226 20.8177 16.5789 20.4892C16.9351 20.1608 17.1547 19.7103 17.1939 19.2273L18.231 6.42847H18.2319ZM10.5716 9.64275C10.7269 9.64276 10.877 9.69902 10.9941 9.80112C11.1112 9.90323 11.1873 10.0443 11.2084 10.1982L11.2144 10.2856V17.1428C11.2144 17.3056 11.1525 17.4624 11.0413 17.5814C10.9301 17.7004 10.7779 17.7728 10.6154 17.7839C10.4529 17.795 10.2922 17.744 10.1659 17.6412C10.0395 17.5385 9.95691 17.3915 9.93471 17.2302L9.92871 17.1428V10.2856C9.92871 10.1151 9.99644 9.9516 10.117 9.83104C10.2376 9.71048 10.4011 9.64275 10.5716 9.64275ZM14.4287 9.64275C14.5841 9.64276 14.7341 9.69902 14.8512 9.80112C14.9683 9.90323 15.0444 10.0443 15.0656 10.1982L15.0716 10.2856V17.1428C15.0715 17.3056 15.0096 17.4624 14.8984 17.5814C14.7873 17.7004 14.635 17.7728 14.4725 17.7839C14.31 17.795 14.1494 17.744 14.023 17.6412C13.8967 17.5385 13.8141 17.3915 13.7919 17.2302L13.7859 17.1428V10.2856C13.7859 10.1151 13.8536 9.9516 13.9741 9.83104C14.0947 9.71048 14.2582 9.64275 14.4287 9.64275ZM12.5001 3.21418C12.0115 3.21412 11.541 3.39958 11.1838 3.73307C10.8266 4.06656 10.6093 4.52322 10.5759 5.01075L10.5716 5.14275H14.4287L14.4244 5.01075C14.391 4.52322 14.1737 4.06656 13.8165 3.73307C13.4593 3.39958 12.9888 3.21412 12.5001 3.21418Z" fill="#FF0000"/>
</svg>
