<svg width="24" height="24" viewBox="0 0 24 24" fill="none" xmlns="http://www.w3.org/2000/svg">
<path d="M13.1469 7.05403V7.19101L13.0105 7.20341C11.5633 7.33502 8.84198 7.78721 6.48631 9.33038C4.13987 10.8675 2.14687 13.4921 2.14687 18C2.14688 18.1781 2.20285 18.3517 2.30687 18.4963C2.41089 18.6409 2.5577 18.7492 2.72657 18.8058L2.72684 18.8059C2.89506 18.8627 3.07688 18.8651 3.24655 18.8128C3.41622 18.7605 3.56514 18.6562 3.67222 18.5146L3.67221 18.5146L3.67351 18.5129C3.80584 18.3429 6.65755 14.725 12.1539 14.725C12.4351 14.725 12.7196 14.7341 13.0074 14.7544L13.1469 14.7642V14.904L13.1469 18L13.1469 18.0004C13.1465 18.1686 13.1961 18.3332 13.2894 18.4731C13.3828 18.6131 13.5156 18.7222 13.671 18.7866C13.8264 18.851 13.9975 18.8677 14.1625 18.8347C14.3274 18.8017 14.4789 18.7204 14.5976 18.6012L14.5978 18.601L21.5978 11.601L21.5979 11.6009C21.6769 11.522 21.7395 11.4284 21.7823 11.3253C21.8251 11.2222 21.8471 11.1116 21.8471 11C21.8471 10.8884 21.8251 10.7779 21.7823 10.6748C21.7395 10.5717 21.6769 10.478 21.5979 10.3992L21.5978 10.3991L14.5978 3.39911C14.5978 3.39911 14.5978 3.3991 14.5978 3.3991C14.4789 3.28027 14.3275 3.19935 14.1626 3.16657C13.9978 3.13378 13.8269 3.15062 13.6716 3.21494C13.5163 3.27926 13.3836 3.38818 13.2902 3.52792C13.1968 3.66766 13.1469 3.83195 13.1469 4.00003C13.1469 4.00004 13.1469 4.00005 13.1469 4.00006V7.05403ZM15.1029 15.6921L14.8469 15.9482V15.586V14C14.8469 14 14.8469 14 14.8469 14C14.8468 13.7939 14.772 13.5949 14.6363 13.4398C14.5006 13.2847 14.3132 13.1841 14.1089 13.1567C13.4523 13.0696 12.7939 13.025 12.1539 13.025C8.61627 13.025 6.01971 14.3419 4.38481 15.5458L4.04857 15.7934L4.1504 15.3885C4.9484 12.2148 7.18696 10.5785 9.32619 9.7389C11.4619 8.9007 13.512 8.85003 13.9749 8.85003C14.4474 8.85003 14.8469 8.46489 14.8469 8.00003V6.41403V6.0519L15.1029 6.30797L19.6889 10.894L19.795 11L19.6889 11.1061L15.1029 15.6921ZM12.9969 18V14.904L21.7039 10.293C21.7968 10.3858 21.8706 10.496 21.9209 10.6173C21.9712 10.7387 21.9971 10.8687 21.9971 11C21.9971 11.1314 21.9712 11.2614 21.9209 11.3827C21.8706 11.504 21.7968 11.6142 21.7039 11.707L14.7039 18.707C14.5642 18.8473 14.386 18.943 14.1919 18.9818C13.9978 19.0207 13.7965 19.001 13.6136 18.9252C13.4307 18.8495 13.2744 18.7211 13.1646 18.5563C13.0548 18.3916 12.9964 18.198 12.9969 18Z" fill="black" stroke="#F6F8F8" stroke-width="0.3"/>
</svg>
