<svg width="24" height="19" viewBox="0 0 24 19" fill="none" xmlns="http://www.w3.org/2000/svg">
<g clip-path="url(#clip0)">
<path d="M4.6875 15.8921H19.3125C19.6219 15.8921 19.875 16.1435 19.875 16.4508V17.5681C19.875 17.8753 19.6219 18.1267 19.3125 18.1267H4.6875C4.37812 18.1267 4.125 17.8753 4.125 17.5681V16.4508C4.125 16.1435 4.37812 15.8921 4.6875 15.8921ZM2.4375 4.71918C3.36914 4.71918 4.125 5.46986 4.125 6.39512C4.125 6.64302 4.06875 6.87346 3.97031 7.08645L6.51562 8.60178C7.05703 8.923 7.75664 8.74144 8.06953 8.19676L10.9348 3.21781C10.5586 2.91056 10.3125 2.44967 10.3125 1.92594C10.3125 1.00068 11.0684 0.25 12 0.25C12.9316 0.25 13.6875 1.00068 13.6875 1.92594C13.6875 2.44967 13.4414 2.91056 13.0652 3.21781L15.9305 8.19676C16.2434 8.74144 16.9465 8.923 17.4844 8.60178L20.0262 7.08645C19.9313 6.87695 19.8715 6.64302 19.8715 6.39512C19.8715 5.46986 20.6273 4.71918 21.559 4.71918C22.4906 4.71918 23.25 5.46986 23.25 6.39512C23.25 7.32038 22.4941 8.07106 21.5625 8.07106C21.4711 8.07106 21.3797 8.0571 21.2918 8.04313L18.75 14.7748H5.25L2.7082 8.04313C2.62031 8.0571 2.52891 8.07106 2.4375 8.07106C1.50586 8.07106 0.75 7.32038 0.75 6.39512C0.75 5.46986 1.50586 4.71918 2.4375 4.71918Z" fill="#FC9E29"/>
</g>
<defs>
<clipPath id="clip0">
<rect width="22.5" height="17.8767" fill="white" transform="matrix(-1 0 0 1 23.25 0.25)"/>
</clipPath>
</defs>
</svg>
