<svg width="44" height="64" viewBox="0 0 44 64" fill="none" xmlns="http://www.w3.org/2000/svg">
<path d="M23.1972 34.5861H20.5112V50.8541H23.1972V34.5861Z" fill="#FF86A2"/>
<path d="M26.1493 52.7245H17.5542C17.5542 52.2286 17.7523 51.7529 18.1049 51.4022C18.4575 51.0515 18.9357 50.8545 19.4344 50.8545H24.2691C24.7678 50.8545 25.246 51.0515 25.5986 51.4022C25.9512 51.7529 26.1493 52.2286 26.1493 52.7245Z" fill="#FF5D8B"/>
<path d="M40.4307 59.5171C40.8342 61.3859 39.4101 63.1503 37.4983 63.1503H6.91183C4.97187 63.1503 3.54202 61.3368 3.99461 59.4504L4.7081 56.4765C5.03175 55.1275 6.23807 54.1764 7.62532 54.1764H36.8561C38.269 54.1764 39.4904 55.1622 39.7886 56.5432L40.4307 59.5171Z" fill="#E20C74"/>
<path d="M33.1982 52.7241H10.1211C9.57044 52.7241 9.12402 53.1705 9.12402 53.7212C9.12402 54.2719 9.57044 54.7183 10.1211 54.7183H33.1982C33.7488 54.7183 34.1953 54.2719 34.1953 53.7212C34.1953 53.1705 33.7488 52.7241 33.1982 52.7241Z" fill="#FF86A2"/>
<path d="M8.83482 35.8404C8.64629 38.063 10.8631 39.7067 12.9351 38.8806L21.6866 35.3916L30.3804 39.028C32.4378 39.8886 34.6816 38.2832 34.5313 36.0581L33.9002 26.721L40.036 19.6551C41.5031 17.9656 40.6711 15.3227 38.5008 14.7783L29.3856 12.4918L24.5013 4.46478C23.3443 2.56333 20.5924 2.53967 19.4029 4.42095L14.3808 12.3635L5.22614 14.4971C3.0472 15.0049 2.1708 17.6331 3.60886 19.3471L9.62555 26.518L8.83482 35.8404Z" fill="#FFDC01"/>
<g style="mix-blend-mode:screen">
<path d="M32.7703 40.0271C25.2496 31.7712 20.2859 18.4865 20.0324 3.42587C20.9321 2.00296 23.0137 2.02139 23.8881 3.46001L29.3774 12.4918L38.4919 14.7781C40.6623 15.3226 41.4942 17.9658 40.0269 19.6552L33.8898 26.721L34.6961 38.6521C34.7659 39.6843 33.7239 40.4282 32.7703 40.0271Z" fill="#FCC72E"/>
</g>
<g style="mix-blend-mode:screen" opacity="0.8">
<path d="M7.22964 15.8628C7.10711 16.2018 7.11878 16.5744 7.26228 16.9052C7.5152 17.3899 10.3218 16.672 10.2443 16.0109C10.1668 15.3497 7.64982 14.8569 7.22964 15.8628Z" fill="white"/>
</g>
<g style="mix-blend-mode:screen" opacity="0.8">
<path d="M7.16028 18.2119C7.09915 18.5192 7.10541 18.836 7.17864 19.1407C7.30306 19.5747 8.69413 18.9379 8.65946 18.3437C8.62479 17.7495 7.37037 17.3135 7.16028 18.2119Z" fill="white"/>
</g>
</svg>
