<svg width="112" height="112" viewBox="0 0 112 112" fill="none" xmlns="http://www.w3.org/2000/svg">
<rect width="112" height="112" rx="56" fill="url(#paint0_linear)"/>
<path d="M86.5288 41.1685H25.8391V81.8996C25.8391 86.3179 29.4208 89.8996 33.8391 89.8996H78.5288C82.9471 89.8996 86.5288 86.3179 86.5288 81.8996V41.1685Z" fill="#FF97A9"/>
<path style="mix-blend-mode:color-dodge" opacity="0.44" d="M86.5288 41.1685H25.8391V81.8996C25.8391 86.3179 29.4208 89.8996 33.8391 89.8996H78.5288C82.9471 89.8996 86.5288 86.3179 86.5288 81.8996V41.1685Z" fill="url(#paint1_radial)"/>
<path fill-rule="evenodd" clip-rule="evenodd" d="M26.8059 85.8161C28.1611 88.3085 30.8024 90.0002 33.8389 90.0002H78.5286C82.9469 90.0002 86.5286 86.4185 86.5286 82.0002V42.1841H82.2243V81.8161C82.2243 84.0253 80.4334 85.8161 78.2243 85.8161H26.8059Z" fill="#FF5E8B"/>
<path d="M85.3679 33.9082H27C25.3431 33.9082 24 35.2513 24 36.9082V40.5196C24 42.1764 25.3431 43.5196 27 43.5196H85.3679C87.0247 43.5196 88.3679 42.1764 88.3679 40.5196V36.9082C88.3679 35.2513 87.0247 33.9082 85.3679 33.9082Z" fill="#FF7098"/>
<path style="mix-blend-mode:multiply" opacity="0.46" d="M86.9565 39.4253H25.4113C24.6319 39.4253 24 40.0572 24 40.8366C24 42.3955 25.2637 43.6592 26.8226 43.6592H85.5452C87.1041 43.6592 88.3679 42.3955 88.3679 40.8366C88.3679 40.0572 87.736 39.4253 86.9565 39.4253Z" fill="url(#paint2_linear)"/>
<path d="M62 90V38H53V90H62Z" fill="#E20C74"/>
<g style="mix-blend-mode:screen" opacity="0.8">
<path d="M29.8595 47.6415C29.4813 48.6939 29.5174 49.8506 29.9603 50.8774C30.7409 52.382 39.4035 50.1534 39.1643 48.1011C38.9251 46.0487 31.1564 44.5189 29.8595 47.6415Z" fill="white"/>
</g>
<g style="mix-blend-mode:screen" opacity="0.8">
<path d="M29.6458 54.9363C29.4571 55.8903 29.4765 56.8737 29.7025 57.8196C30.0865 59.1668 34.3801 57.1901 34.273 55.3455C34.166 53.5009 30.2943 52.1473 29.6458 54.9363Z" fill="white"/>
</g>
<path d="M31.6532 24.7728L53.6093 31.1447C55.3547 31.6512 56.2524 33.581 55.5154 35.2423L55.2432 35.856C54.7929 36.871 53.8213 37.5541 52.7125 37.6127C49.9742 37.7573 44.6799 37.9637 40.9004 37.6543C37.2791 37.3579 32.4109 36.3721 29.4609 35.7218C27.9732 35.3939 27.0006 33.9827 27.19 32.4712L27.5676 29.4581L27.8404 27.281C28.0698 25.4504 29.8814 24.2586 31.6532 24.7728Z" fill="#E20C74"/>
<path d="M33.25 22.2977L51.3328 36.6243C52.7075 37.7134 54.7193 37.3961 55.6921 35.9367L56.5538 34.6439C57.1742 33.7131 57.2266 32.5169 56.6686 31.5474C55.2936 29.1588 52.5721 24.5965 50.2071 21.6351C47.9283 18.7816 44.3128 15.3262 42.0897 13.2819C40.981 12.2624 39.2896 12.265 38.1598 13.261L35.2858 15.7946L33.1291 17.6959C31.7266 18.9323 31.7845 21.1366 33.25 22.2977Z" fill="#E20C74"/>
<path d="M82.9769 23.8534L61.0208 30.2252C59.2754 30.7318 58.3777 32.6616 59.1147 34.3229L59.387 34.9366C59.8372 35.9516 60.8088 36.6347 61.9176 36.6932C64.6559 36.8379 69.9502 37.0443 73.7297 36.7349C77.351 36.4385 82.2192 35.4527 85.1693 34.8024C86.6569 34.4745 87.6295 33.0633 87.4401 31.5518L87.0625 28.5387L86.7897 26.3615C86.5604 24.5309 84.7487 23.3392 82.9769 23.8534Z" fill="#E20C74"/>
<path d="M81.3808 21.3778L63.2981 35.7043C61.9234 36.7935 59.9116 36.4762 58.9388 35.0168L58.077 33.7239C57.4566 32.7932 57.4043 31.5969 57.9623 30.6275C59.3373 28.2389 62.0588 23.6766 64.4238 20.7151C66.7026 17.8617 70.3181 14.4063 72.5412 12.362C73.6498 11.3425 75.3413 11.3451 76.4711 12.341L79.3451 14.8747L81.5017 16.776C82.9043 18.0124 82.8464 20.2167 81.3808 21.3778Z" fill="#E20C74"/>
<circle cx="57.1037" cy="35.7472" r="5.51724" fill="url(#paint3_radial)"/>
<path d="M28.5978 32.529C28.5978 32.529 37.3335 38.9656 51.2263 35.1535C51.2263 35.1535 38.7127 38.0461 28.5978 32.529Z" fill="white"/>
<path d="M36.8737 15.7148C36.8737 15.7148 47.5248 17.7875 54.1233 30.5938C54.1233 30.5938 47.7816 19.4251 36.8737 15.7148Z" fill="white"/>
<path d="M86.3072 31.6096C86.3072 31.6096 77.5715 38.0462 63.6788 34.234C63.6788 34.234 76.1923 37.1267 86.3072 31.6096Z" fill="white"/>
<path d="M78.0311 14.7953C78.0311 14.7953 67.38 16.8681 60.7815 29.6744C60.7815 29.6744 67.1232 18.5056 78.0311 14.7953Z" fill="white"/>
<defs>
<linearGradient id="paint0_linear" x1="56" y1="0" x2="56" y2="112" gradientUnits="userSpaceOnUse">
<stop stop-color="white"/>
<stop offset="0.927083" stop-color="#F1F1F1"/>
</linearGradient>
<radialGradient id="paint1_radial" cx="0" cy="0" r="1" gradientUnits="userSpaceOnUse" gradientTransform="translate(55.8901 25.5417) scale(60.8508 60.2738)">
<stop stop-color="#FF7098"/>
<stop offset="1" stop-color="#FF7098"/>
</radialGradient>
<linearGradient id="paint2_linear" x1="56.1839" y1="38.4844" x2="56.1839" y2="43.7517" gradientUnits="userSpaceOnUse">
<stop stop-color="white"/>
<stop offset="0.21035" stop-color="#FFFCFC"/>
<stop offset="0.39491" stop-color="#FFF1F3"/>
<stop offset="0.56979" stop-color="#FFDFE4"/>
<stop offset="0.7387" stop-color="#FFC5CF"/>
<stop offset="0.90186" stop-color="#FFA5B5"/>
<stop offset="0.96309" stop-color="#FF97A9"/>
</linearGradient>
<radialGradient id="paint3_radial" cx="0" cy="0" r="1" gradientUnits="userSpaceOnUse" gradientTransform="translate(57.1037 35.7472) rotate(90) scale(5.51724)">
<stop offset="0.859375" stop-color="#E20C74"/>
<stop offset="1" stop-color="white"/>
</radialGradient>
</defs>
</svg>
