<svg width="26" height="32" viewBox="0 0 26 32" fill="none" xmlns="http://www.w3.org/2000/svg">
<path d="M24 13.0002H2V27.0002C2 29.2094 3.79086 31.0002 6 31.0002H20C22.2091 31.0002 24 29.2094 24 27.0002V13.0002Z" fill="#FF97A9"/>
<path style="mix-blend-mode:color-dodge" opacity="0.44" d="M24.0871 12.5081H1.67896V26.5008C1.67896 28.7099 3.46982 30.5008 5.67895 30.5008H20.0871C22.2962 30.5008 24.0871 28.7099 24.0871 26.5008V12.5081Z" fill="url(#paint0_radial)"/>
<path fill-rule="evenodd" clip-rule="evenodd" d="M2.40735 28.8409C3.13138 29.8679 4.32677 30.5387 5.67884 30.5387H20.087C22.2961 30.5387 24.087 28.7478 24.087 26.5387V12.8838H22.5464V26.8409C22.5464 27.9454 21.651 28.8409 20.5464 28.8409H2.40735Z" fill="#FF5E8B"/>
<path d="M23 10.0002H3C1.89543 10.0002 1 10.8957 1 12.0002C1 13.1048 1.89543 14.0002 3 14.0002H23C24.1046 14.0002 25 13.1048 25 12.0002C25 10.8957 24.1046 10.0002 23 10.0002Z" fill="#FF7098"/>
<path style="mix-blend-mode:multiply" opacity="0.46" d="M24 11.0002H2C1.44772 11.0002 1 11.448 1 12.0002C1 13.1048 1.89543 14.0002 3 14.0002H23C24.1046 14.0002 25 13.1048 25 12.0002C25 11.448 24.5523 11.0002 24 11.0002Z" fill="url(#paint1_linear)"/>
<path d="M11 31.0002H15L15 21.0002V11.0002H11L11 31.0002Z" fill="#E20C74"/>
<g style="mix-blend-mode:screen" opacity="0.8">
<path d="M3.10855 14.646C2.95046 15.0281 2.96552 15.4481 3.15065 15.8209C3.47697 16.3672 7.09797 15.558 6.99797 14.8129C6.89797 14.0677 3.65065 13.5122 3.10855 14.646Z" fill="white"/>
</g>
<g style="mix-blend-mode:screen" opacity="0.8">
<path d="M3.05402 17.6475C2.9747 18.0353 2.98282 18.435 3.07783 18.8195C3.23927 19.3671 5.04416 18.5636 4.99917 17.8138C4.95418 17.0641 3.3266 16.5139 3.05402 17.6475Z" fill="white"/>
</g>
<path d="M4.60445 6.67959L11.777 8.76114C12.5041 8.97213 12.878 9.77597 12.571 10.468C12.3835 10.8907 11.9784 11.1753 11.5165 11.199C10.4839 11.252 8.5978 11.321 7.2407 11.21C6.29122 11.1322 5.10961 10.9262 4.1143 10.7273C2.93608 10.4918 2.16849 9.37591 2.31788 8.18372C2.45543 7.08592 3.5419 6.37123 4.60445 6.67959Z" fill="#E20C74"/>
<path d="M5.24792 6.19973L10.804 10.6017C11.4669 11.1269 12.4371 10.9739 12.9062 10.2702C13.2053 9.82135 13.2306 9.24416 12.9596 8.77776C12.4274 7.86155 11.4944 6.31963 10.6768 5.29586C10.1352 4.6177 9.38917 3.84744 8.70733 3.18333C7.72916 2.23058 6.19181 2.23644 5.16752 3.13943C4.23481 3.9617 4.27331 5.42757 5.24792 6.19973Z" fill="#E20C74"/>
<path d="M21.9985 6.34072L14.8259 8.42227C14.0988 8.63326 13.7249 9.4371 14.0319 10.1291C14.2194 10.5518 14.6245 10.8365 15.0864 10.8602C16.119 10.9132 18.0051 10.9822 19.3622 10.8711C20.3117 10.7934 21.4933 10.5873 22.4886 10.3884C23.6668 10.1529 24.4344 9.03705 24.285 7.84485C24.1475 6.74705 23.061 6.03236 21.9985 6.34072Z" fill="#E20C74"/>
<path d="M21.3547 5.86038L15.7986 10.2623C15.1357 10.7876 14.1656 10.6345 13.6965 9.93081C13.3973 9.48199 13.3721 8.9048 13.643 8.4384C14.1753 7.52219 15.1082 5.98027 15.9258 4.9565C16.4674 4.27834 17.2135 3.50809 17.8953 2.84397C18.8735 1.89123 20.4109 1.89709 21.4351 2.80008C22.3679 3.62234 22.3293 5.08822 21.3547 5.86038Z" fill="#E20C74"/>
<ellipse cx="13" cy="10.5" rx="2" ry="2.5" fill="url(#paint2_radial)"/>
<path d="M2.69832 9.31789C2.69832 9.31789 5.92375 11.6944 11.0533 10.2869C11.0533 10.2869 6.43297 11.3549 2.69832 9.31789Z" fill="white"/>
<path d="M5.75386 3.10961C5.75386 3.10961 9.68649 3.87493 12.1228 8.60332C12.1228 8.60332 9.78132 4.47955 5.75386 3.10961Z" fill="white"/>
<path d="M24.0064 8.97853C24.0064 8.97853 20.781 11.3551 15.6514 9.94753C15.6514 9.94753 20.2717 11.0156 24.0064 8.97853Z" fill="white"/>
<path d="M20.951 2.77025C20.951 2.77025 17.0183 3.53557 14.582 8.26397C14.582 8.26397 16.9235 4.14019 20.951 2.77025Z" fill="white"/>
<defs>
<radialGradient id="paint0_radial" cx="0" cy="0" r="1" gradientUnits="userSpaceOnUse" gradientTransform="translate(12.7745 6.73829) scale(22.4676 22.2546)">
<stop stop-color="#FF7098"/>
<stop offset="1" stop-color="#FF7098"/>
</radialGradient>
<linearGradient id="paint1_linear" x1="13" y1="10.3336" x2="13" y2="14.0657" gradientUnits="userSpaceOnUse">
<stop stop-color="white"/>
<stop offset="0.21035" stop-color="#FFFCFC"/>
<stop offset="0.39491" stop-color="#FFF1F3"/>
<stop offset="0.56979" stop-color="#FFDFE4"/>
<stop offset="0.7387" stop-color="#FFC5CF"/>
<stop offset="0.90186" stop-color="#FFA5B5"/>
<stop offset="0.96309" stop-color="#FF97A9"/>
</linearGradient>
<radialGradient id="paint2_radial" cx="0" cy="0" r="1" gradientUnits="userSpaceOnUse" gradientTransform="translate(13 10.5) rotate(90) scale(2.5 2)">
<stop offset="0.859375" stop-color="#E20C74"/>
<stop offset="1" stop-color="white"/>
</radialGradient>
</defs>
</svg>
