<svg width="237" height="155" viewBox="0 0 237 155" fill="none" xmlns="http://www.w3.org/2000/svg">
<g filter="url(#filter0_d_4715:15209)">
<path d="M224.775 105.983C227.314 101.864 229.392 97.4785 230.973 92.9058C231.116 92.4341 230.441 92.1223 230.227 92.7256C228.55 97.0078 226.416 101.097 223.863 104.923L214.668 108.24C214.978 107.456 215.099 106.609 215.021 105.77C214.998 105.522 214.974 105.274 214.951 105.026C218.334 102.19 221.489 100.041 222.72 96.26C222.911 91.1676 222.434 86.072 221.303 81.1032C221.275 81.0064 221.209 80.9249 221.12 80.8765C221.032 80.8281 220.928 80.8169 220.831 80.8453C220.734 80.8737 220.652 80.9393 220.604 81.0279C220.556 81.1164 220.544 81.2205 220.573 81.3172C220.573 81.3172 221.851 84.5098 221.426 96.0267C220.256 99.1148 217.153 101.155 214.273 103.34C214.073 103.015 213.835 102.716 213.564 102.448C214.243 100.263 214.236 97.923 213.542 95.743C213.518 95.6785 213.474 95.6237 213.416 95.5871C213.358 95.5505 213.289 95.5341 213.221 95.5405C213.152 95.5469 213.088 95.5757 213.038 95.6224C212.987 95.6692 212.954 95.7313 212.943 95.799C212.982 97.6576 212.504 99.4907 211.561 101.094C209.707 100.84 207.819 101.016 206.044 101.609C205.097 100.537 204.407 99.2619 204.028 97.8818C203.858 97.1687 203.749 96.6789 203.749 96.6789C203.742 96.5968 203.702 96.5211 203.638 96.4684C203.575 96.4158 203.493 96.3905 203.41 96.3982C203.328 96.4059 203.252 96.4459 203.2 96.5094C203.147 96.5729 203.122 96.6547 203.129 96.7369C202.961 98.3616 203.115 100.003 203.581 101.569C203.796 102.159 204.052 102.734 204.346 103.289C204.131 103.621 203.947 103.973 203.798 104.34C200.258 102.588 197.107 101.216 195.432 98.4561C194.166 93.6884 193.538 88.7739 193.566 83.8412C193.562 83.7459 193.524 83.6553 193.458 83.5861C193.392 83.5169 193.304 83.4739 193.209 83.465C193.114 83.456 193.019 83.4818 192.941 83.5376C192.864 83.5933 192.809 83.6752 192.788 83.7681C192.597 88.8606 193.073 93.9561 194.204 98.9249C195.969 102.197 198.981 103.644 203.444 106.123C203.467 106.37 203.488 106.598 203.511 106.845C203.593 107.682 203.861 108.49 204.295 109.209L194.474 107.607C191.266 104.312 188.412 100.69 185.96 96.8C185.949 96.7417 185.924 96.6868 185.889 96.6393C185.853 96.5918 185.807 96.553 185.754 96.5257C185.701 96.4985 185.643 96.4835 185.584 96.482C185.524 96.4804 185.465 96.4922 185.411 96.5166C185.357 96.541 185.309 96.5773 185.271 96.6229C185.233 96.6684 185.205 96.722 185.191 96.7796C185.176 96.8371 185.175 96.8973 185.187 96.9554C185.199 97.0136 185.224 97.0683 185.26 97.1154C187.659 101.317 190.514 105.242 193.774 108.818L203.779 110.82C203.463 111.296 203.196 111.802 202.982 112.331L196.947 114.666L190.087 121.556C190.166 122.403 190.761 135.907 190.797 136.508C190.825 136.593 190.881 136.665 190.955 136.713C191.03 136.762 191.119 136.784 191.207 136.775C191.296 136.767 191.379 136.729 191.443 136.668C191.507 136.606 191.549 136.525 191.561 136.437L191.338 122.002L197.771 115.901L202.474 114.254C202.374 114.945 202.355 115.646 202.419 116.342C202.492 117.096 202.631 117.843 202.836 118.573L197.193 125.1L202.213 145.815C202.25 145.899 202.315 145.967 202.398 146.008C202.48 146.049 202.574 146.06 202.663 146.04C202.753 146.019 202.832 145.968 202.888 145.895C202.943 145.822 202.972 145.732 202.968 145.64L198.732 125.518L203.56 120.297C204.224 121.663 205.29 122.794 206.615 123.539C207.939 124.284 209.46 124.607 210.973 124.466C212.487 124.324 213.921 123.725 215.085 122.747C216.249 121.77 217.087 120.461 217.487 118.995L223.198 123.232C222.719 144.877 222.503 144.127 223.073 144.198C223.642 144.27 223.425 144.624 224.571 122.541L217.817 117.173C217.882 116.418 217.881 115.658 217.813 114.903C217.746 114.208 217.598 113.522 217.372 112.861L222.298 113.609L229.751 118.412L232.206 132.638C232.234 132.723 232.29 132.795 232.364 132.843C232.439 132.892 232.528 132.914 232.616 132.906C232.705 132.897 232.788 132.859 232.852 132.798C232.917 132.736 232.958 132.655 232.97 132.567C232.934 132.175 230.958 118.174 230.897 117.742L222.879 112.243L216.516 111.067C216.208 110.586 215.852 110.138 215.453 109.729L224.775 105.983Z" fill="black"/>
</g>
<g filter="url(#filter1_d_4715:15209)">
<path d="M33.9573 46.966C36.4414 44.2602 38.6192 41.2906 40.4517 38.1107C40.6261 37.7799 40.1658 37.4516 39.9195 37.8702C38.0565 40.8202 35.8797 43.5614 33.4266 46.0465L26.0822 47.2075C26.4255 46.6676 26.6363 46.0547 26.6975 45.4184C26.7155 45.2306 26.7334 45.0428 26.7514 44.855C29.6834 43.2244 32.3474 42.0736 33.8056 39.4333C34.6734 35.6685 35.043 31.8064 34.9048 27.9453C34.8973 27.8692 34.8598 27.7991 34.8005 27.7505C34.7412 27.7019 34.665 27.6787 34.5886 27.686C34.5121 27.6934 34.4418 27.7307 34.393 27.7897C34.3442 27.8487 34.321 27.9246 34.3284 28.0007C34.3284 28.0007 34.8291 30.5599 32.8722 39.0754C31.5577 41.2083 28.9484 42.2854 26.4842 43.5027C26.3816 43.2324 26.2464 42.9755 26.0816 42.7376C26.9003 41.2075 27.2278 39.4637 27.0196 37.7415C27.0111 37.6902 26.9857 37.6431 26.9475 37.6075C26.9093 37.572 26.8604 37.55 26.8084 37.5451C26.7564 37.5401 26.7042 37.5524 26.6599 37.58C26.6157 37.6077 26.5819 37.6491 26.5638 37.6979C26.3284 39.0875 25.7101 40.3844 24.7777 41.444C23.428 40.991 21.9919 40.8536 20.5808 41.0425C20.025 40.1089 19.6912 39.0612 19.6048 37.9797C19.5787 37.4244 19.5674 37.0443 19.5674 37.0443C19.5734 36.982 19.5543 36.9199 19.5143 36.8717C19.4743 36.8234 19.4166 36.7929 19.3541 36.787C19.2916 36.781 19.2292 36.8 19.1808 36.8398C19.1324 36.8796 19.1018 36.9369 19.0959 36.9992C18.7388 38.185 18.6197 39.4295 18.7454 40.6615C18.8223 41.1316 18.9316 41.5959 19.0725 42.0511C18.864 42.2678 18.6768 42.5037 18.5133 42.7558C16.1166 40.947 13.9572 39.4768 13.098 37.1834C12.8305 33.453 13.0612 29.7042 13.784 26.035C13.7947 25.9635 13.779 25.8905 13.7397 25.8297C13.7005 25.7688 13.6405 25.7242 13.5708 25.704C13.501 25.6838 13.4263 25.6895 13.3605 25.72C13.2947 25.7505 13.2423 25.8037 13.2129 25.8698C12.3451 29.6346 11.9755 33.4967 12.1137 37.3577C12.9669 40.0455 15.0118 41.5521 17.9946 44.0329C17.9766 44.2207 17.9601 44.3928 17.9421 44.5807C17.8842 45.2152 17.9693 45.8547 18.1913 46.4525L11.0791 43.8608C9.15029 40.9506 7.53323 37.8473 6.25443 34.6017C6.25419 34.5566 6.24373 34.5123 6.22384 34.4718C6.20395 34.4314 6.17514 34.3959 6.13956 34.3681C6.10399 34.3403 6.06256 34.3208 6.01839 34.3112C5.97422 34.3016 5.92846 34.302 5.88449 34.3125C5.84053 34.3229 5.79951 34.3431 5.76452 34.3716C5.72952 34.4001 5.70144 34.4361 5.68239 34.4769C5.66333 34.5177 5.65379 34.5623 5.65447 34.6073C5.65515 34.6523 5.66603 34.6966 5.68632 34.7368C6.88107 38.2071 8.45637 41.536 10.3837 44.663L17.576 47.5782C17.2724 47.8876 17.0007 48.2267 16.7653 48.5904L11.9224 49.4696L5.81443 53.6235C5.75303 54.2652 4.27512 64.406 4.21597 64.8583C4.22508 64.9251 4.25658 64.9869 4.30539 65.0336C4.35419 65.0804 4.41742 65.1093 4.4848 65.1158C4.55217 65.1222 4.61975 65.1058 4.67653 65.0691C4.73331 65.0325 4.77595 64.9778 4.79756 64.914L6.68569 54.1333L12.3625 50.5067L16.1118 49.9494C15.9386 50.4501 15.825 50.9693 15.7735 51.4965C15.7207 52.0688 15.7187 52.6447 15.7674 53.2175L10.6205 57.2738L11.4239 73.4137C11.4396 73.4815 11.4785 73.5417 11.5341 73.584C11.5896 73.6263 11.6582 73.648 11.728 73.6453C11.7978 73.6426 11.8645 73.6158 11.9165 73.5693C11.9686 73.5229 12.0027 73.4599 12.0129 73.391L11.7118 57.8047L16.063 54.6041C16.3653 55.716 17.0009 56.7099 17.8849 57.4531C18.769 58.1963 19.8594 58.6536 21.0108 58.7637C22.1621 58.8739 23.3195 58.6318 24.3284 58.0696C25.3374 57.5075 26.1499 56.6522 26.6575 55.6178L30.3228 59.5854C26.8836 75.6352 26.829 75.0456 27.2444 75.1801C27.6598 75.3146 27.4472 75.547 31.4479 59.2666L27.1635 54.3079C27.32 53.7548 27.4272 53.1889 27.4839 52.617C27.5333 52.0896 27.5203 51.5582 27.4451 51.0338L31.0207 52.292L35.9068 56.9293L35.7163 67.8724C35.7254 67.9392 35.757 68.0009 35.8058 68.0477C35.8546 68.0944 35.9178 68.1234 35.9852 68.1298C36.0525 68.1363 36.1201 68.1198 36.1769 68.0832C36.2337 68.0466 36.2763 67.9919 36.2979 67.9281C36.3264 67.6307 36.8432 56.9241 36.859 56.5939L31.6495 51.3571L27.0611 49.5755C26.899 49.1738 26.6966 48.7894 26.4571 48.428L33.9573 46.966Z" fill="black"/>
</g>
<defs>
<filter id="filter0_d_4715:15209" x="181.179" y="80.8299" width="55.7914" height="73.22" filterUnits="userSpaceOnUse" color-interpolation-filters="sRGB">
<feFlood flood-opacity="0" result="BackgroundImageFix"/>
<feColorMatrix in="SourceAlpha" type="matrix" values="0 0 0 0 0 0 0 0 0 0 0 0 0 0 0 0 0 0 127 0" result="hardAlpha"/>
<feOffset dy="4"/>
<feGaussianBlur stdDeviation="2"/>
<feComposite in2="hardAlpha" operator="out"/>
<feColorMatrix type="matrix" values="0 0 0 0 0.316667 0 0 0 0 0.300833 0 0 0 0 0.300833 0 0 0 0.7 0"/>
<feBlend mode="normal" in2="BackgroundImageFix" result="effect1_dropShadow_4715:15209"/>
<feBlend mode="normal" in="SourceGraphic" in2="effect1_dropShadow_4715:15209" result="shape"/>
</filter>
<filter id="filter1_d_4715:15209" x="0.215942" y="25.6921" width="44.2743" height="57.5148" filterUnits="userSpaceOnUse" color-interpolation-filters="sRGB">
<feFlood flood-opacity="0" result="BackgroundImageFix"/>
<feColorMatrix in="SourceAlpha" type="matrix" values="0 0 0 0 0 0 0 0 0 0 0 0 0 0 0 0 0 0 127 0" result="hardAlpha"/>
<feOffset dy="4"/>
<feGaussianBlur stdDeviation="2"/>
<feComposite in2="hardAlpha" operator="out"/>
<feColorMatrix type="matrix" values="0 0 0 0 0.316667 0 0 0 0 0.300833 0 0 0 0 0.300833 0 0 0 0.7 0"/>
<feBlend mode="normal" in2="BackgroundImageFix" result="effect1_dropShadow_4715:15209"/>
<feBlend mode="normal" in="SourceGraphic" in2="effect1_dropShadow_4715:15209" result="shape"/>
</filter>
</defs>
</svg>
