<svg width="68" height="58" viewBox="0 0 68 58" fill="none" xmlns="http://www.w3.org/2000/svg">
<path d="M1.4438 27.0208L1.44378 27.0207C-0.935762 19.5424 1.37607 11.4707 6.23779 6.2161C11.0841 0.978095 18.4263 -1.42915 26.166 2.32273C26.5263 2.4978 26.8851 2.68388 27.2422 2.88243L27.2425 2.88257L30.8449 4.88259C32.8072 5.97203 35.1927 5.97203 37.1551 4.88259L40.7575 2.88257L40.7577 2.88243C41.1149 2.68388 41.4736 2.4978 41.834 2.32274C49.574 -1.42916 56.9162 0.978101 61.7624 6.21609C66.6241 11.4707 68.9357 19.5424 66.5562 27.0207C65.4015 30.6508 63.1148 33.7518 60.2529 36.0724L37.4637 54.5482C35.4446 56.1851 32.5553 56.1851 30.5363 54.5482L7.74704 36.0724C4.8852 33.7518 2.59852 30.6508 1.4438 27.0208Z" fill="#FF7098" stroke="#FF7098"/>
<mask id="mask0" mask-type="alpha" maskUnits="userSpaceOnUse" x="0" y="0" width="68" height="58">
<path d="M1.4438 27.0208L1.44378 27.0207C-0.935761 19.5424 1.37607 11.4707 6.23779 6.2161C11.0841 0.978094 18.4263 -1.42915 26.166 2.32273C26.5263 2.4978 26.8851 2.68388 27.2422 2.88243L27.2425 2.88257L33.7573 6.49949L34 6.63424L34.2427 6.49949L40.7575 2.88257L40.7577 2.88243C41.1149 2.68388 41.4736 2.4978 41.8339 2.32274C49.574 -1.42916 56.9162 0.978101 61.7624 6.21609C66.6241 11.4707 68.9357 19.5424 66.5562 27.0207C65.4014 30.6508 63.1148 33.7518 60.2529 36.0724L34 57.3563L7.74704 36.0724C4.8852 33.7518 2.59852 30.6508 1.4438 27.0208Z" fill="#A3A3A3" stroke="black"/>
</mask>
<g mask="url(#mask0)">
<rect x="-0.785156" y="-2.2644" width="69.5692" height="46.5459" fill="white"/>
<path d="M1.92027 26.8692L1.92025 26.8691C-0.399665 19.5782 1.85351 11.691 6.6048 6.55566C11.3251 1.45384 18.4355 -0.86868 25.9471 2.77228C26.2997 2.94354 26.6503 3.12545 26.9993 3.31944L26.9998 3.31972L33.5146 6.93664L34 7.20613L34.4854 6.93664L41.0002 3.31972L41.0007 3.31944C41.3496 3.12545 41.7003 2.94354 42.0528 2.77228C49.5649 -0.868704 56.6752 1.45385 61.3954 6.55565C66.1466 11.6909 68.3996 19.5782 66.0797 26.8691L66.0797 26.8692C64.958 30.3955 62.7333 33.4174 59.938 35.684L36.519 54.6704C35.0506 55.8609 32.9493 55.8609 31.4809 54.6704L8.06196 35.684C5.26671 33.4174 3.042 30.3955 1.92027 26.8692Z" stroke="#FF7098" stroke-width="2"/>
</g>
</svg>
