<svg width="268" height="218" viewBox="0 0 268 218" fill="none" xmlns="http://www.w3.org/2000/svg">
<path fill-rule="evenodd" clip-rule="evenodd" d="M144.126 213.252C140.52 216.047 135.48 216.047 131.874 213.252L36.4169 139.27C25.22 130.591 16.2398 118.967 11.6986 105.32C-6.95397 49.2801 47.9532 -15.3891 108.88 12.8454C110.289 13.4997 111.692 14.1955 113.09 14.9384L133.312 25.6708C136.244 27.2268 139.756 27.2268 142.688 25.6708L162.909 14.9384C164.307 14.1955 165.711 13.4997 167.119 12.8454C228.049 -15.3891 282.954 49.2801 264.301 105.32C259.76 118.967 250.78 130.591 239.583 139.27L144.126 213.252Z" fill="#F8ECF0"/>
<path d="M4.17301 99.1617L3.69903 99.3194L4.17299 99.1617C-5.08766 71.3391 3.90925 41.3526 22.8064 21.8275C41.6891 2.31725 70.4238 -6.71735 100.67 7.29892C102.071 7.94953 103.466 8.64139 104.856 9.37996L104.856 9.38009L125.078 20.1125C128.156 21.7462 131.844 21.7462 134.922 20.1124L155.144 9.38009L155.144 9.37996C156.534 8.64145 157.929 7.94966 159.33 7.2991C189.577 -6.71743 218.312 2.31717 237.194 21.8275C256.091 41.3526 265.088 71.3391 255.827 99.1617L256.275 99.3108L255.827 99.1617C251.321 112.702 242.407 124.247 231.277 132.875L135.82 206.857C132.394 209.512 127.606 209.512 124.18 206.857L28.7232 132.875C17.593 124.247 8.67865 112.702 4.17301 99.1617Z" fill="#FF7098" stroke="#FF7098"/>
<mask id="mask0" mask-type="alpha" maskUnits="userSpaceOnUse" x="0" y="0" width="260" height="210">
<path d="M4.17301 99.1617L3.69903 99.3194L4.17299 99.1617C-5.08766 71.3391 3.90925 41.3526 22.8064 21.8275C41.6891 2.31725 70.4238 -6.71735 100.67 7.29892C102.071 7.94953 103.466 8.64139 104.856 9.37996L104.856 9.38009L125.078 20.1125C128.156 21.7462 131.844 21.7462 134.922 20.1124L155.144 9.38009L155.144 9.37996C156.534 8.64145 157.929 7.94966 159.33 7.2991C189.577 -6.71743 218.312 2.31717 237.194 21.8275C256.091 41.3526 265.088 71.3391 255.827 99.1617L256.275 99.3108L255.827 99.1617C251.321 112.702 242.407 124.247 231.277 132.875L135.82 206.857C132.394 209.512 127.606 209.512 124.18 206.857L28.7232 132.875C17.593 124.247 8.67865 112.702 4.17301 99.1617Z" fill="#EC167E" stroke="#E20C74"/>
</mask>
<g mask="url(#mask0)">
<rect x="-3" y="-5" width="266" height="176" rx="10" fill="white"/>
<path d="M5.59628 98.6881L5.59623 98.6879C-3.46756 71.4568 5.32911 42.0424 23.8842 22.8707C42.3816 3.75852 70.4447 -5.05386 100.038 8.65936C101.415 9.29912 102.787 9.97905 104.152 10.7045L104.153 10.705L124.374 21.4374C127.892 23.3046 132.108 23.3046 135.626 21.4374L155.847 10.705L155.848 10.7045C157.213 9.97931 158.583 9.29962 159.96 8.66008C189.556 -5.05418 217.619 3.75822 236.117 22.8706C254.671 42.0424 263.467 71.4568 254.404 98.6879L254.404 98.6881C250.005 111.907 241.288 123.217 230.358 131.69C230.358 131.69 230.358 131.69 230.358 131.69L134.901 205.671C132.016 207.907 127.984 207.907 125.099 205.671L29.6422 131.69C29.6422 131.69 29.6421 131.69 29.6421 131.69C18.712 123.217 9.99504 111.907 5.59628 98.6881Z" stroke="#FF7098" stroke-width="4"/>
</g>
</svg>
