<svg width="144" height="88" viewBox="0 0 144 88" fill="none" xmlns="http://www.w3.org/2000/svg">
<circle cx="21" cy="74" r="3" fill="#FF7098"/>
<circle cx="132.5" cy="55.5" r="5.5" fill="#FF7098"/>
<circle cx="113" cy="73" r="2" fill="#FDBD04"/>
<path d="M7 56L8.35045 59.6495L12 61L8.35045 62.3505L7 66L5.64955 62.3505L2 61L5.64955 59.6495L7 56Z" fill="#47D580"/>
<circle cx="127" cy="27" r="3" fill="#FDBD04"/>
<circle cx="16" cy="40" r="4" fill="#FDBD04"/>
<path d="M119.152 6L120.493 9.64955L124.117 11L120.493 12.3505L119.152 16L117.811 12.3505L114.186 11L117.811 9.64955L119.152 6Z" fill="#47D580"/>
<ellipse cx="18.3517" cy="10.5" rx="5.46207" ry="5.5" fill="#CA91FC"/>
<path d="M45.3286 42.1071L45.3286 42.1071C46.3419 45.1977 48.3497 47.8415 50.8669 49.822L70.5995 65.3441C72.5948 66.9137 75.4051 66.9137 77.4004 65.3441L97.1331 49.822C99.6503 47.8415 101.658 45.1977 102.671 42.1071L102.671 42.1071C104.76 35.7381 102.732 28.8585 98.4582 24.3761C94.1988 19.9092 87.7425 17.8531 80.9331 21.0556L45.3286 42.1071ZM45.3286 42.1071C43.24 35.7381 45.2676 28.8585 49.542 24.3761C53.8016 19.9091 60.258 17.8531 67.0673 21.0558C67.3844 21.2053 67.7 21.3642 68.0142 21.5336L68.0145 21.5338M45.3286 42.1071L68.0145 21.5338M68.0145 21.5338L73.7629 24.6303L74 24.758M68.0145 21.5338L74 24.758M74 24.758L74.2371 24.6303M74 24.758L74.2371 24.6303M74.2371 24.6303L79.9855 21.5338L79.9857 21.5336M74.2371 24.6303L79.9857 21.5336M79.9857 21.5336C80.2999 21.3642 80.6156 21.2053 80.9327 21.0558L79.9857 21.5336ZM44.8536 42.2629L44.8535 42.2629L44.8536 42.2629Z" fill="#FF7098" stroke="#FF7098"/>
</svg>
