<svg width="40" height="32" viewBox="0 0 40 32" fill="none" xmlns="http://www.w3.org/2000/svg">
<path d="M8.81684 17.215L8.81683 17.2149C8.0186 14.764 8.79253 12.1047 10.4351 10.3702C12.0627 8.65149 14.5081 7.87125 17.0976 9.0975C17.2198 9.15548 17.3412 9.21703 17.462 9.28262L17.4622 9.28276L19.7616 10.53L20 10.6593L20.2384 10.53L22.5377 9.28276L22.538 9.28262C22.6587 9.21703 22.7802 9.15548 22.9023 9.0975C25.492 7.87124 27.9374 8.6515 29.565 10.3702C31.2075 12.1047 31.9814 14.7639 31.1832 17.2149L31.1831 17.215C30.7983 18.397 30.0333 19.4148 29.0664 20.1808L23.415 24.6572C21.4141 26.242 18.5859 26.242 16.585 24.6572L10.9336 20.1808C10.9336 20.1807 10.9336 20.1807 10.9336 20.1807C9.96669 19.4147 9.2017 18.397 8.81684 17.215Z" stroke="#FF7098"/>
</svg>
