<svg width="144" height="88" viewBox="0 0 144 88" fill="none" xmlns="http://www.w3.org/2000/svg">
<circle cx="21" cy="74" r="3" fill="#FF7098"/>
<circle cx="132.5" cy="55.5" r="5.5" fill="#FF7098"/>
<circle cx="113" cy="73" r="2" fill="#FDBD04"/>
<path d="M7 56L8.35045 59.6495L12 61L8.35045 62.3505L7 66L5.64955 62.3505L2 61L5.64955 59.6495L7 56Z" fill="#47D580"/>
<circle cx="127" cy="27" r="3" fill="#FDBD04"/>
<circle cx="16" cy="40" r="4" fill="#FDBD04"/>
<path d="M119.152 6L120.493 9.64955L124.117 11L120.493 12.3505L119.152 16L117.811 12.3505L114.186 11L117.811 9.64955L119.152 6Z" fill="#47D580"/>
<ellipse cx="18.3517" cy="10.5" rx="5.46207" ry="5.5" fill="#CA91FC"/>
<path fill-rule="evenodd" clip-rule="evenodd" d="M77.1045 66.5409C75.2856 67.9817 72.7144 67.9817 70.8955 66.5409L50.5578 50.4317C47.9738 48.3846 45.9015 45.6431 44.8535 42.4244C40.5491 29.2076 53.22 13.9554 67.2801 20.6145C67.6052 20.7688 67.929 20.9329 68.2516 21.1081L74 24.2262L79.7483 21.1081C80.0709 20.9329 80.3948 20.7688 80.7199 20.6145C94.7806 13.9554 107.451 29.2076 103.146 42.4244C102.098 45.6431 100.026 48.3846 97.4422 50.4317L77.1045 66.5409Z" fill="#FF7098"/>
</svg>
