<svg width="34" height="27" viewBox="0 0 34 27" fill="none" xmlns="http://www.w3.org/2000/svg">
<path d="M0.483699 13.1177L0.483737 13.1177L0.483699 13.1177ZM0.483699 13.1177L0.483661 13.1177L0.483699 13.1177ZM0.958551 12.9612L0.958538 12.9612C-0.1968 9.45543 0.923572 5.65906 3.2964 3.18289C5.65462 0.72195 9.21608 -0.404761 12.9801 1.35697C13.1564 1.43965 13.3317 1.52746 13.5061 1.6211L13.5064 1.62123L16.7638 3.36733L17 3.49395L17.2362 3.36733L20.4936 1.62123L20.4939 1.6211C20.6684 1.5274 20.8439 1.43953 21.0203 1.35679C24.7843 -0.40469 28.3456 0.72204 30.7037 3.18288C33.0765 5.65905 34.1968 9.45542 33.0414 12.9612L33.0414 12.9612C32.4826 14.6574 31.3732 16.1139 29.9757 17.208C29.9757 17.208 29.9757 17.208 29.9757 17.208L20.3901 24.7113C18.3988 26.2701 15.6012 26.2701 13.6099 24.7113L4.02429 17.208C4.02428 17.208 4.02427 17.208 4.02425 17.208C2.62676 16.1139 1.51738 14.6574 0.958551 12.9612Z" fill="#FF7098" stroke="#FF7098"/>
</svg>
