<svg width="24" height="19" viewBox="0 0 24 19" fill="none" xmlns="http://www.w3.org/2000/svg">
<path d="M0.816842 9.21497L0.81683 9.21493C0.0185992 6.76395 0.792531 4.10469 2.43508 2.37019C4.06267 0.651492 6.50812 -0.128751 9.09764 1.0975C9.2198 1.15548 9.34124 1.21703 9.462 1.28262L9.46225 1.28276L11.7616 2.52997L12 2.65928L12.2384 2.52997L14.5377 1.28276L14.538 1.28262C14.6587 1.21703 14.7802 1.15548 14.9023 1.0975C17.492 -0.128755 19.9374 0.6515 21.565 2.37019C23.2075 4.10468 23.9814 6.76394 23.1832 9.21493L23.1831 9.21497C22.7983 10.397 22.0333 11.4148 21.0664 12.1808L15.415 16.6572C13.4141 18.242 10.5859 18.242 8.58501 16.6572L2.93359 12.1808C2.93358 12.1807 2.93357 12.1807 2.93355 12.1807C1.96669 11.4147 1.2017 10.397 0.816842 9.21497Z" fill="#FF7098" stroke="#FF7098"/>
</svg>
