<svg width="30" height="30" viewBox="0 0 30 30" fill="none" xmlns="http://www.w3.org/2000/svg">
<path d="M15.8334 25H3.33341C2.89139 25 2.46746 24.8244 2.1549 24.5118C1.84234 24.1993 1.66675 23.7754 1.66675 23.3333V6.66667C1.66675 6.22464 1.84234 5.80072 2.1549 5.48816C2.46746 5.17559 2.89139 5 3.33341 5H26.6667C27.1088 5 27.5327 5.17559 27.8453 5.48816C28.1578 5.80072 28.3334 6.22464 28.3334 6.66667V15.3083C27.2232 13.8944 25.6083 12.9656 23.8279 12.717C22.0474 12.4685 20.2399 12.9195 18.7849 13.9754C17.33 15.0313 16.3408 16.6099 16.025 18.3797C15.7093 20.1495 16.0916 21.9728 17.0917 23.4667L16.3167 24.4167L15.8334 25ZM5.83341 10V11.3333H20.0001V10H5.83341ZM5.83341 14.6667H15.0001V13.3333H5.83341V14.6667ZM5.83341 20.5H14.1667V19.1667H5.83341V20.5Z" fill="white"/>
<path d="M28.1916 19.6582C28.1938 18.7796 27.9779 17.9141 27.5632 17.1394C27.1485 16.3648 26.548 15.7052 25.8156 15.2198C25.0831 14.7344 24.2416 14.4385 23.3666 14.3585C22.4916 14.2785 21.6104 14.4169 20.8021 14.7614C19.9938 15.1059 19.2836 15.6457 18.7353 16.3323C18.187 17.0189 17.8177 17.8308 17.6605 18.6954C17.5034 19.5599 17.5633 20.4498 17.8349 21.2855C18.1065 22.1211 18.5812 22.8763 19.2166 23.4832L17.5999 25.4582L18.3499 28.4666L21.3999 24.7499C22.3654 25.0354 23.3928 25.0354 24.3583 24.7499L27.4083 28.4666L28.1583 25.4582L26.5416 23.4832C27.0615 22.9908 27.4759 22.3978 27.7595 21.7402C28.0431 21.0827 28.1902 20.3743 28.1916 19.6582ZM19.2416 19.6582C19.2317 18.9359 19.4368 18.227 19.8309 17.6216C20.225 17.0162 20.7902 16.5416 21.4547 16.2583C22.1192 15.975 22.8529 15.8957 23.5626 16.0305C24.2723 16.1654 24.9258 16.5082 25.4401 17.0154C25.9544 17.5227 26.3063 18.1714 26.4509 18.8792C26.5955 19.5869 26.5263 20.3217 26.2522 20.99C25.9781 21.6584 25.5115 22.2301 24.9116 22.6325C24.3117 23.0349 23.6056 23.2498 22.8833 23.2499C21.9262 23.2521 21.007 22.8758 20.3263 22.2029C19.6457 21.53 19.2587 20.6153 19.2499 19.6582H19.2416Z" fill="white"/>
</svg>
