<svg width="30" height="28" viewBox="0 0 30 28" fill="none" xmlns="http://www.w3.org/2000/svg">
<path d="M14.8602 13.5609C16.4485 13.5609 17.8238 12.9912 18.9475 11.8673C20.0712 10.7436 20.6409 9.36868 20.6409 7.78025C20.6409 6.19237 20.0712 4.81725 18.9473 3.69317C17.8234 2.56964 16.4483 2 14.8602 2C13.2718 2 11.8969 2.56964 10.7731 3.69335C9.64941 4.81707 9.07959 6.19218 9.07959 7.78025C9.07959 9.36868 9.64941 10.7438 10.7733 11.8675C11.8972 12.991 13.2723 13.5609 14.8602 13.5609Z" fill="#D7AFBB"/>
<path d="M24.9748 20.4546C24.9424 19.987 24.8768 19.4768 24.7803 18.9381C24.6829 18.3954 24.5575 17.8824 24.4073 17.4134C24.2523 16.9288 24.0413 16.4501 23.7806 15.9914C23.5099 15.5154 23.1921 15.1008 22.8354 14.7597C22.4624 14.4028 22.0057 14.1159 21.4777 13.9066C20.9514 13.6984 20.3682 13.593 19.7444 13.593C19.4994 13.593 19.2625 13.6935 18.8049 13.9914C18.5233 14.175 18.1938 14.3874 17.8262 14.6224C17.5118 14.8227 17.0859 15.0104 16.5598 15.1803C16.0466 15.3464 15.5255 15.4306 15.0111 15.4306C14.4968 15.4306 13.9758 15.3464 13.462 15.1803C12.9365 15.0106 12.5106 14.8229 12.1966 14.6226C11.8324 14.3898 11.5028 14.1774 11.217 13.9912C10.7599 13.6933 10.5228 13.5928 10.2778 13.5928C9.65381 13.5928 9.0708 13.6984 8.54474 13.9068C8.01703 14.1157 7.56018 14.4026 7.18683 14.7599C6.83032 15.1012 6.51227 15.5156 6.242 15.9914C5.98145 16.4501 5.77051 16.9286 5.61523 17.4136C5.46527 17.8826 5.33984 18.3954 5.24243 18.9381C5.14594 19.4761 5.08038 19.9864 5.04797 20.4552C5.01611 20.9144 5 21.391 5 21.8724C5 23.1252 5.39825 24.1394 6.18359 24.8874C6.95923 25.6255 7.98553 25.9999 9.23358 25.9999H20.7897C22.0378 25.9999 23.0637 25.6257 23.8395 24.8874C24.6251 24.14 25.0233 23.1256 25.0233 21.8722C25.0231 21.3886 25.0068 20.9117 24.9748 20.4546Z" fill="#D7AFBB"/>
</svg>
