<svg width="24" height="24" viewBox="0 0 24 24" fill="none" xmlns="http://www.w3.org/2000/svg">
<g clip-path="url(#clip0)">
<path d="M6.15 17.5137H17.85C18.0975 17.5137 18.3 17.7148 18.3 17.9606V18.8545C18.3 19.1003 18.0975 19.3014 17.85 19.3014H6.15C5.9025 19.3014 5.7 19.1003 5.7 18.8545V17.9606C5.7 17.7148 5.9025 17.5137 6.15 17.5137ZM4.35 8.57534C5.09531 8.57534 5.7 9.17589 5.7 9.9161C5.7 10.1144 5.655 10.2988 5.57625 10.4692L7.6125 11.6814C8.04563 11.9384 8.60531 11.7932 8.85563 11.3574L11.1478 7.37425C10.8469 7.12845 10.65 6.75974 10.65 6.34075C10.65 5.60055 11.2547 5 12 5C12.7453 5 13.35 5.60055 13.35 6.34075C13.35 6.75974 13.1531 7.12845 12.8522 7.37425L15.1444 11.3574C15.3947 11.7932 15.9572 11.9384 16.3875 11.6814L18.4209 10.4692C18.345 10.3016 18.2972 10.1144 18.2972 9.9161C18.2972 9.17589 18.9019 8.57534 19.6472 8.57534C20.3925 8.57534 21 9.17589 21 9.9161C21 10.6563 20.3953 11.2568 19.65 11.2568C19.5769 11.2568 19.5037 11.2457 19.4334 11.2345L17.4 16.6199H6.6L4.56656 11.2345C4.49625 11.2457 4.42313 11.2568 4.35 11.2568C3.60469 11.2568 3 10.6563 3 9.9161C3 9.17589 3.60469 8.57534 4.35 8.57534Z"/>
</g>
<defs>
<clipPath id="clip0">
<rect width="18" height="14.3014" fill="white" transform="matrix(-1 0 0 1 21 5)"/>
</clipPath>
</defs>
</svg>
