<svg width="30" height="28" viewBox="0 0 30 28" fill="none" xmlns="http://www.w3.org/2000/svg">
<path d="M13.3058 3.37698C14.0547 1.94891 16.0991 1.94891 16.8481 3.37698L19.2276 7.91373C19.5161 8.46383 20.0438 8.84864 20.6558 8.95516L25.6993 9.833C27.28 10.1081 27.9095 12.0391 26.7946 13.193L23.2132 16.8999C22.7842 17.344 22.5843 17.9614 22.6717 18.5726L23.4015 23.6773C23.6292 25.2706 21.9775 26.4666 20.5349 25.753L15.9636 23.4919C15.4048 23.2155 14.749 23.2155 14.1902 23.4919L9.61897 25.753C8.1763 26.4666 6.5246 25.2706 6.75238 23.6773L7.48214 18.5726C7.56952 17.9614 7.36966 17.344 6.94061 16.8999L3.3592 13.193C2.24434 12.0391 2.87385 10.1081 4.4546 9.833L9.49807 8.95516C10.11 8.84864 10.6378 8.46383 10.9263 7.91373L13.3058 3.37698Z" fill="#D7AFBB"/>
</svg>
