<svg width="24" height="24" viewBox="0 0 24 24" fill="none" xmlns="http://www.w3.org/2000/svg">
<path d="M18.7624 9.23706H4.43408V16.5528C4.43408 18.7619 6.22494 20.5528 8.43408 20.5528H14.7624C16.9715 20.5528 18.7624 18.7619 18.7624 16.5528V9.23706Z" fill="#FF97A9"/>
<path style="mix-blend-mode:color-dodge" opacity="0.44" d="M18.7624 9.23706H4.43408V16.5528C4.43408 18.7619 6.22494 20.5528 8.43408 20.5528H14.7624C16.9715 20.5528 18.7624 18.7619 18.7624 16.5528V9.23706Z" fill="url(#paint0_radial)"/>
<path d="M18.1851 7.80518H5.16106C4.51982 7.80518 4 8.325 4 8.96623C4 9.60747 4.51982 10.1273 5.16106 10.1273H18.1851C18.8263 10.1273 19.3462 9.60747 19.3462 8.96623C19.3462 8.325 18.8263 7.80518 18.1851 7.80518Z" fill="#FF7098"/>
<path style="mix-blend-mode:multiply" opacity="0.46" d="M18.7656 8.38574H4.58053C4.25991 8.38574 4 8.64565 4 8.96627C4 9.60751 4.51982 10.1273 5.16106 10.1273H18.1851C18.8263 10.1273 19.3462 9.60751 19.3462 8.96627C19.3462 8.64565 19.0862 8.38574 18.7656 8.38574Z" fill="url(#paint1_linear)"/>
<path d="M10.5772 20.5771H12.7695V14.4678V8.3584H10.5772V20.5771Z" fill="#E20C74"/>
<g style="mix-blend-mode:screen" opacity="0.8">
<path d="M5.38406 10.7409C5.29477 10.9853 5.30328 11.2539 5.40784 11.4923C5.59215 11.8417 7.63731 11.3242 7.58083 10.8476C7.52435 10.3711 5.69024 10.0158 5.38406 10.7409Z" fill="white"/>
</g>
<g style="mix-blend-mode:screen" opacity="0.8">
<path d="M5.33356 12.4334C5.28901 12.6549 5.29357 12.8833 5.34693 13.1029C5.4376 13.4158 6.45127 12.9567 6.426 12.5284C6.40073 12.1001 5.48665 11.7858 5.33356 12.4334Z" fill="white"/>
</g>
<path d="M6.28454 5.56612L10.9009 6.8838C11.3594 7.01468 11.594 7.52141 11.3976 7.95685C11.2783 8.22128 11.0236 8.399 10.7341 8.41369C10.0759 8.44709 8.86236 8.49126 7.99035 8.42105C7.37664 8.37164 6.61125 8.23976 5.97056 8.11341C5.22957 7.96728 4.74711 7.26726 4.84259 6.51783C4.93062 5.82681 5.6151 5.37504 6.28454 5.56612Z" fill="#E20C74"/>
<path d="M6.71858 5.27191L10.2677 8.03752C10.6923 8.36843 11.3129 8.2728 11.6128 7.83024C11.8042 7.5478 11.8202 7.18421 11.6465 6.89017C11.3061 6.31382 10.71 5.34499 10.1875 4.70158C9.84184 4.27582 9.36582 3.79233 8.93045 3.37516C8.30372 2.77462 7.31976 2.77746 6.66476 3.34539C6.06844 3.86245 6.09422 4.78538 6.71858 5.27191Z" fill="#E20C74"/>
<path d="M17.4469 5.35275L12.8305 6.67043C12.372 6.8013 12.1375 7.30803 12.3339 7.74347C12.4531 8.0079 12.7078 8.18562 12.9974 8.20031C13.6555 8.23371 14.8691 8.27788 15.7411 8.20767C16.3548 8.15827 17.1202 8.02638 17.7609 7.90003C18.5019 7.7539 18.9843 7.05388 18.8889 6.30445C18.8008 5.61343 18.1163 5.16167 17.4469 5.35275Z" fill="#E20C74"/>
<path d="M17.0129 5.05865L13.4638 7.82426C13.0391 8.15517 12.4185 8.05954 12.1186 7.61698C11.9272 7.33455 11.9112 6.97096 12.0849 6.67692C12.4254 6.10056 13.0215 5.13173 13.5439 4.48833C13.8896 4.06256 14.3656 3.57908 14.801 3.1619C15.4277 2.56136 16.4117 2.5642 17.0667 3.13213C17.663 3.64919 17.6372 4.57213 17.0129 5.05865Z" fill="#E20C74"/>
<circle cx="11.321" cy="8.62621" r="1.78247" fill="url(#paint2_radial)"/>
<path d="M5.08586 7.23098C5.08586 7.23098 7.14827 8.7256 10.4282 7.84039C10.4282 7.84039 7.47388 8.5121 5.08586 7.23098Z" fill="white"/>
<path d="M7.03972 3.32666C7.03972 3.32666 9.55434 3.80797 11.1122 6.78169C11.1122 6.78169 9.61497 4.18822 7.03972 3.32666Z" fill="white"/>
<path d="M18.711 7.01761C18.711 7.01761 16.6486 8.51222 13.3687 7.62702C13.3687 7.62702 16.323 8.29872 18.711 7.01761Z" fill="white"/>
<path d="M16.7572 3.11328C16.7572 3.11328 14.2425 3.59459 12.6847 6.56831C12.6847 6.56831 14.1819 3.97484 16.7572 3.11328Z" fill="white"/>
<defs>
<radialGradient id="paint0_radial" cx="0" cy="0" r="1" gradientUnits="userSpaceOnUse" gradientTransform="translate(11.5289 5.60842) scale(14.3663 13.9961)">
<stop stop-color="#FF7098"/>
<stop offset="1" stop-color="#FF7098"/>
</radialGradient>
<linearGradient id="paint1_linear" x1="11.6731" y1="7.99872" x2="11.6731" y2="10.1653" gradientUnits="userSpaceOnUse">
<stop stop-color="white"/>
<stop offset="0.21035" stop-color="#FFFCFC"/>
<stop offset="0.39491" stop-color="#FFF1F3"/>
<stop offset="0.56979" stop-color="#FFDFE4"/>
<stop offset="0.7387" stop-color="#FFC5CF"/>
<stop offset="0.90186" stop-color="#FFA5B5"/>
<stop offset="0.96309" stop-color="#FF97A9"/>
</linearGradient>
<radialGradient id="paint2_radial" cx="0" cy="0" r="1" gradientUnits="userSpaceOnUse" gradientTransform="translate(11.321 8.62622) rotate(90) scale(1.78247)">
<stop offset="0.859375" stop-color="#E20C74"/>
<stop offset="1" stop-color="white"/>
</radialGradient>
</defs>
</svg>
