<svg width="96" height="96" viewBox="0 0 96 96" fill="none" xmlns="http://www.w3.org/2000/svg">
<g style="mix-blend-mode:multiply" opacity="0.6">
<path d="M71.9348 38.9717H63.1372V41.9225H71.9348V38.9717Z" fill="#FF7098"/>
</g>
<g style="mix-blend-mode:multiply" opacity="0.6">
<path d="M31.7275 38.9717H22.9299V41.9225H31.7275V38.9717Z" fill="#FF7098"/>
</g>
<path d="M74.8383 44.4352C74.6525 44.0232 74.3622 43.6668 73.9962 43.4014C73.4539 43.0481 72.8423 42.8147 72.2025 42.7168H21.9638C21.3095 42.7729 20.6837 43.01 20.1564 43.4014C19.759 43.7053 19.4961 44.1525 19.4238 44.6475C19.4238 44.7228 19.4238 44.8186 19.4238 44.9145V54.4994C19.4238 91.2849 75.0232 92.2023 75.0232 54.4994V44.9076C74.9753 44.7451 74.9134 44.5871 74.8383 44.4352Z" fill="white"/>
<path d="M54.8768 56.6288C54.8768 52.7606 51.5563 49.625 47.4622 49.625C43.3681 49.625 40.0544 52.7606 40.0544 56.6288C40.0768 58.0635 40.5393 59.4567 41.3793 60.6199C42.2192 61.7832 43.3962 62.6604 44.7511 63.1329L39.4109 79.1328H54.8631L50.0365 63.1876C51.4252 62.7336 52.6378 61.8578 53.5053 60.6822C54.3729 59.5066 54.8524 58.0897 54.8768 56.6288Z" fill="#FF7098"/>
<path d="M31.7246 41.9306V38.5827C31.7246 29.2443 38.1122 18.3928 46.3484 18.3928H48.5119C56.7275 18.3928 63.1357 29.2443 63.1357 38.5827V41.9306H71.9401V33.715C71.8469 27.2836 69.4963 21.0896 65.2991 16.2156C60.7668 10.9029 54.8653 8 48.6899 8H46.1841C40.0224 8 34.1071 10.9234 29.5748 16.2156C25.3777 21.0896 23.0271 27.2836 22.9338 33.715V41.9306H31.7246Z" fill="#FF7098"/>
<g style="mix-blend-mode:multiply" opacity="0.6">
<path d="M65.2948 16.2017C64.9114 15.7498 64.5143 15.3117 64.1103 14.894C64.3303 15.3953 64.4646 15.9299 64.5074 16.4756C64.546 17.2018 64.4159 17.9271 64.1272 18.5947C63.8386 19.2622 63.3993 19.8538 62.8438 20.3232C62.3487 20.7003 61.7578 20.931 61.1381 20.9891C60.5185 21.0472 59.895 20.9304 59.3384 20.6518C58.5231 20.2578 57.7402 19.8 56.997 19.2826C56.1162 18.7386 55.1854 18.2801 54.2173 17.9133C52.3182 17.1907 50.3065 16.8083 48.2747 16.7836C44.5706 16.685 40.9303 17.7611 37.8751 19.8577C35.1519 21.8974 32.9781 24.5817 31.549 27.6694C30.5221 29.7986 30.125 32.2907 28.5503 34.1255C28.2572 34.5295 27.8593 34.8457 27.3996 35.0399C26.9399 35.2342 26.4358 35.2991 25.9419 35.2277C25.3989 35.1159 24.8929 34.8691 24.4705 34.5102C24.0482 34.1512 23.723 33.6916 23.5251 33.1738C23.2706 32.5156 23.1137 31.8236 23.0595 31.1199C22.9697 31.9705 22.924 32.8252 22.9226 33.6805V41.8961H31.7202V38.5825C31.7202 29.244 38.1078 18.3925 46.344 18.3925H48.5075C56.7231 18.3925 63.1313 29.244 63.1313 38.5825V41.9303H71.9426V33.7147C71.8507 27.2778 69.4974 21.0783 65.2948 16.2017Z" fill="#FF7098"/>
</g>
<path d="M78.699 42.9647C78.5012 42.4532 78.176 42.0007 77.7542 41.6502C77.1445 41.2159 76.4407 40.932 75.7003 40.8218H18.8755C18.118 40.8995 17.4018 41.205 16.8216 41.6981C16.3627 42.1093 16.0704 42.6744 16 43.2865C16 43.3823 16 43.4987 16 43.6219V55.7879C16 102.398 78.8359 103.562 78.8359 55.7879V43.5672C78.8077 43.3628 78.7619 43.1612 78.699 42.9647Z" fill="#E20C74"/>
<path d="M77.42 43.7032C77.2256 43.2278 76.912 42.8105 76.5095 42.4914C75.9272 42.093 75.2626 41.8309 74.5651 41.7246H19.9927C19.2717 41.7962 18.588 42.0797 18.0278 42.5393C17.5882 42.9104 17.3046 43.4336 17.2336 44.0044C17.2336 44.0935 17.2336 44.203 17.2336 44.3194V55.5406C17.2336 98.6727 77.5912 99.7612 77.5912 55.5406V44.2304C77.547 44.0507 77.4898 43.8745 77.42 43.7032Z" fill="#FF7098"/>
<path d="M42.0741 56.6288C42.1159 54.8927 42.7877 53.231 43.9642 51.9537C45.1408 50.6764 46.7418 49.8706 48.4686 49.6866C48.1348 49.6452 47.7986 49.6246 47.4622 49.625C43.3544 49.625 40.0544 52.7606 40.0544 56.6288C40.0768 58.0635 40.5393 59.4567 41.3792 60.6199C42.2192 61.7832 43.3962 62.6604 44.7511 63.1329L39.4109 79.1328H41.4648L46.7981 63.1329C45.4387 62.6641 44.2564 61.7886 43.4113 60.6252C42.5663 59.4617 42.0995 58.0666 42.0741 56.6288Z" fill="#EF58A0"/>
<path d="M54.875 56.6287C54.8314 54.8909 54.1572 53.2283 52.9781 51.951C51.799 50.6736 50.1955 49.8688 48.4668 49.6865C46.7399 49.8705 45.1389 50.6763 43.9624 51.9536C42.7858 53.2309 42.114 54.8926 42.0723 56.6287C42.0951 58.0623 42.5569 59.4545 43.3955 60.6174C44.2341 61.7804 45.409 62.6583 46.762 63.1328L41.4287 79.1327H54.8613L50.0346 63.1875C51.4233 62.7335 52.6359 61.8577 53.5035 60.6821C54.3711 59.5065 54.8505 58.0896 54.875 56.6287Z" fill="#E20C74"/>
<path d="M24.0176 30.4009C24.0176 30.4009 27.7694 8.10232 50.9649 8.93073C50.9649 8.93073 30.3642 10.4438 24.0176 30.4009Z" fill="white"/>
<g style="mix-blend-mode:screen">
<path d="M21.3261 45.4163C20.9148 46.5608 20.954 47.8187 21.4357 48.9354C22.2846 50.5716 31.7052 48.148 31.445 45.9161C31.1849 43.6842 22.7365 42.0205 21.3261 45.4163Z" fill="white"/>
</g>
<g style="mix-blend-mode:screen">
<path d="M21.0936 53.3496C20.8884 54.387 20.9094 55.4566 21.1552 56.4852C21.5728 57.9503 26.2421 55.8006 26.1257 53.7946C26.0093 51.7886 21.7988 50.3166 21.0936 53.3496Z" fill="white"/>
</g>
</svg>
