<svg width="10" height="14" viewBox="0 0 10 14" fill="none" xmlns="http://www.w3.org/2000/svg">
<path fill-rule="evenodd" clip-rule="evenodd" d="M8.06126 5.11067H8.21429C9.04271 5.11067 9.71429 5.78225 9.71429 6.61067V11.8636C9.71429 12.6921 9.04271 13.3636 8.21429 13.3636H1.5C0.671571 13.3636 0 12.6921 0 11.8636V6.61067C0 5.78225 0.671573 5.11067 1.5 5.11067H1.65303V3.07912C1.65303 1.37857 3.08756 0 4.85714 0C6.62673 0 8.06126 1.37857 8.06126 3.07912V5.11067ZM6.99322 5.11067V3.07912C6.99322 1.94542 6.03686 1.02637 4.85714 1.02637C3.67742 1.02637 2.72107 1.94542 2.72107 3.07912V5.11067H6.99322Z" fill="#535353"/>
</svg>
