<svg width="96" height="96" viewBox="0 0 96 96" fill="none" xmlns="http://www.w3.org/2000/svg">
<g style="mix-blend-mode:multiply" opacity="0.6">
<path d="M29.7283 38.9734H20.9301V41.9244H29.7283V38.9734Z" fill="#FF7098"/>
</g>
<path d="M72.8421 44.4376C72.6563 44.0255 72.366 43.6691 72 43.4037C71.4576 43.0504 70.846 42.817 70.2061 42.7191H19.9642C19.3099 42.7752 18.684 43.0122 18.1567 43.4037C17.7592 43.7076 17.4963 44.1548 17.4241 44.6499C17.4241 44.7252 17.4241 44.821 17.4241 44.9169V54.5024C17.4241 91.2903 73.027 92.2078 73.027 54.5024V44.91C72.9791 44.7475 72.9172 44.5895 72.8421 44.4376Z" fill="white"/>
<path d="M52.8793 56.632C52.8793 52.7635 49.5586 49.6277 45.4642 49.6277C41.3698 49.6277 38.056 52.7635 38.056 56.632C38.0783 58.0667 38.5408 59.46 39.3808 60.6233C40.2209 61.7867 41.398 62.6639 42.7529 63.1364L37.4124 79.1374H52.8656L48.0386 63.1912C49.4274 62.7371 50.6401 61.8613 51.5077 60.6856C52.3754 59.5099 52.8548 58.0929 52.8793 56.632Z" fill="#FF7098"/>
<path d="M29.7253 41.9328V38.5847C29.7253 29.2457 36.1134 18.3935 44.3501 18.3935H46.5137C49.04 18.3935 51.5713 19.6404 53.7229 21.4442C55.8284 23.2093 58.8177 23.9396 61.1895 22.5528L62.1693 21.9799C64.256 20.7597 64.8794 18.0479 63.3021 16.2162C58.7695 10.903 52.8675 8 46.6917 8H44.1858C38.0237 8 32.108 10.9236 27.5754 16.2162C23.378 21.0904 21.0272 27.2848 20.934 33.7166V41.9328H29.7253Z" fill="#FF7098"/>
<g style="mix-blend-mode:multiply" opacity="0.6">
<path d="M63.2979 16.2027C62.9144 15.7508 62.5173 15.3126 62.1134 14.895C62.3334 15.3962 62.4676 15.9309 62.5105 16.4766C62.549 17.2029 62.4189 17.9282 62.1302 18.5958C61.8416 19.2634 61.4023 19.8551 60.8467 20.3245C60.3516 20.7016 59.7606 20.9323 59.141 20.9904C58.5213 21.0485 57.8977 20.9317 57.3411 20.6531C56.5257 20.2591 55.7428 19.8012 54.9995 19.2838C54.1187 18.7398 53.1879 18.2812 52.2197 17.9144C50.3204 17.1917 48.3087 16.8093 46.2767 16.7847C42.5724 16.6861 38.9318 17.7622 35.8764 19.8589C33.1531 21.8988 30.9792 24.5832 29.55 27.6711C28.5229 29.8005 28.1258 32.2927 26.5511 34.1276C26.258 34.5317 25.86 34.8479 25.4003 35.0422C24.9405 35.2364 24.4364 35.3014 23.9424 35.23C23.3995 35.1182 22.8934 34.8714 22.471 34.5124C22.0486 34.1534 21.7234 33.6938 21.5255 33.1759C21.271 32.5176 21.1141 31.8256 21.0599 31.1219C20.9701 31.9725 20.9244 32.8272 20.923 33.6826V41.8988H29.7211V38.5849C29.7211 29.2459 36.1092 18.3937 44.3459 18.3937H46.5095C49.1325 18.3937 51.5712 19.4997 53.676 21.3094C55.7833 23.1213 58.7772 23.9414 61.1931 22.5677L62.0225 22.0961C64.1766 20.8713 64.9155 18.0798 63.2979 16.2027Z" fill="#FF7098"/>
</g>
<path d="M76.7031 42.9668C76.5053 42.4552 76.18 42.0027 75.7582 41.6522C75.1485 41.2179 74.4446 40.934 73.7042 40.8237H16.8757C16.1181 40.9015 15.4019 41.207 14.8216 41.7001C14.3627 42.1113 14.0704 42.6764 14 43.2886C14 43.3844 14 43.5008 14 43.6241V55.7909C14 102.404 76.84 103.568 76.84 55.7909V43.5693C76.8118 43.3649 76.7659 43.1633 76.7031 42.9668Z" fill="#E20C74"/>
<path d="M75.4241 43.7055C75.2297 43.2301 74.916 42.8127 74.5135 42.4936C73.9312 42.0952 73.2666 41.8331 72.569 41.7268H17.9931C17.272 41.7984 16.5883 42.0819 16.0281 42.5416C15.5884 42.9127 15.3048 43.4359 15.2338 44.0068C15.2338 44.0958 15.2338 44.2054 15.2338 44.3217V55.5437C15.2338 98.6786 75.5953 99.7672 75.5953 55.5437V44.2327C75.5511 44.0531 75.4939 43.8769 75.4241 43.7055Z" fill="#FF7098"/>
<path d="M40.0758 56.632C40.1175 54.8957 40.7894 53.234 41.966 51.9565C43.1426 50.6791 44.7437 49.8733 46.4707 49.6893C46.1368 49.6479 45.8007 49.6273 45.4642 49.6277C41.3561 49.6277 38.056 52.7635 38.056 56.632C38.0783 58.0667 38.5408 59.46 39.3808 60.6233C40.2209 61.7867 41.398 62.6639 42.7529 63.1364L37.4124 79.1374H39.4664L44.8001 63.1364C43.4406 62.6676 42.2582 61.7921 41.4131 60.6286C40.568 59.465 40.1011 58.0698 40.0758 56.632Z" fill="#EF58A0"/>
<path d="M52.8772 56.6322C52.8336 54.8943 52.1593 53.2316 50.9802 51.9542C49.801 50.6768 48.1975 49.8718 46.4686 49.6896C44.7416 49.8735 43.1405 50.6794 41.9639 51.9568C40.7872 53.2342 40.1154 54.896 40.0737 56.6322C40.0965 58.0659 40.5583 59.4581 41.397 60.6212C42.2356 61.7842 43.4106 62.6622 44.7637 63.1367L39.4301 79.1377H52.8635L48.0365 63.1915C49.4253 62.7374 50.638 61.8615 51.5056 60.6858C52.3732 59.5102 52.8527 58.0932 52.8772 56.6322Z" fill="#E20C74"/>
<path d="M22.0181 30.4024C22.0181 30.4024 25.7702 8.10232 48.9672 8.93079C48.9672 8.93079 28.3651 10.4439 22.0181 30.4024Z" fill="white"/>
<g style="mix-blend-mode:screen">
<path d="M19.3264 45.4191C18.9151 46.5636 18.9542 47.8216 19.4359 48.9383C20.2849 50.5747 29.7061 48.151 29.446 45.9189C29.1858 43.6868 20.7368 42.0231 19.3264 45.4191Z" fill="white"/>
</g>
<g style="mix-blend-mode:screen">
<path d="M19.0938 53.3525C18.8886 54.39 18.9097 55.4596 19.1555 56.4883C19.5731 57.9535 24.2426 55.8036 24.1263 53.7975C24.0099 51.7914 19.7991 50.3193 19.0938 53.3525Z" fill="white"/>
</g>
<line x1="63.686" y1="29.4299" x2="70.5459" y2="25.3139" stroke="#FDBD04" stroke-width="4" stroke-linecap="round" stroke-linejoin="round"/>
<line x1="65.5861" y1="35.9253" x2="73.4421" y2="34.4138" stroke="#FDBD04" stroke-width="4" stroke-linecap="round" stroke-linejoin="round"/>
</svg>
