<svg width="40" height="40" viewBox="0 0 40 40" fill="none" xmlns="http://www.w3.org/2000/svg">
<g style="mix-blend-mode:multiply" opacity="0.6">
<path d="M30.3058 15.905H26.6401V17.1345H30.3058V15.905Z" fill="#FF7098"/>
</g>
<g style="mix-blend-mode:multiply" opacity="0.6">
<path d="M13.5529 15.905H9.88721V17.1345H13.5529V15.905Z" fill="#FF7098"/>
</g>
<path d="M31.5156 18.1816C31.4382 18.0099 31.3172 17.8614 31.1648 17.7508C30.9388 17.6036 30.684 17.5064 30.4174 17.4656H9.4846C9.21197 17.489 8.95121 17.5877 8.7315 17.7508C8.56591 17.8774 8.45637 18.0638 8.42627 18.27C8.42627 18.3014 8.42627 18.3413 8.42627 18.3813V22.375C8.42627 37.7023 31.5927 38.0845 31.5927 22.375V18.3784C31.5727 18.3107 31.5469 18.2449 31.5156 18.1816Z" fill="white"/>
<path d="M23.1981 23.2619C23.1981 21.6501 21.8145 20.3436 20.1086 20.3436C18.4027 20.3436 17.0221 21.6501 17.0221 23.2619C17.0314 23.8597 17.2241 24.4402 17.5741 24.9248C17.9241 25.4095 18.4145 25.775 18.979 25.9719L16.7539 32.6386H23.1923L21.1812 25.9947C21.7599 25.8055 22.2651 25.4406 22.6266 24.9508C22.9881 24.461 23.1878 23.8706 23.1981 23.2619Z" fill="#FF7098"/>
<path d="M13.5515 17.1377V15.7428C13.5515 11.8518 16.213 7.33033 19.6447 7.33033H20.5462C23.9694 7.33033 26.6394 11.8518 26.6394 15.7428V17.1377H30.308V13.7146C30.2691 11.0348 29.2897 8.45399 27.5409 6.42318C25.6524 4.20952 23.1934 3 20.6203 3H19.5763C17.0089 3 14.5442 4.21808 12.6557 6.42318C10.9069 8.45399 9.92751 11.0348 9.88867 13.7146V17.1377H13.5515Z" fill="#FF7098"/>
<g style="mix-blend-mode:multiply" opacity="0.6">
<path d="M27.5389 6.41754C27.3791 6.22926 27.2137 6.04669 27.0453 5.87268C27.137 6.08152 27.1929 6.30427 27.2108 6.53164C27.2269 6.83425 27.1726 7.13646 27.0524 7.4146C26.9321 7.69274 26.7491 7.93926 26.5176 8.13483C26.3113 8.29197 26.0651 8.3881 25.8069 8.4123C25.5487 8.4365 25.2889 8.38781 25.057 8.27176C24.7173 8.10759 24.3911 7.91682 24.0814 7.70123C23.7144 7.47459 23.3266 7.28354 22.9233 7.1307C22.1319 6.82961 21.2938 6.67028 20.4472 6.66001C18.9038 6.61892 17.387 7.06727 16.114 7.94085C14.9793 8.79075 14.0736 9.9092 13.4781 11.1957C13.0502 12.0829 12.8848 13.1213 12.2287 13.8858C12.1066 14.0541 11.9408 14.1859 11.7492 14.2668C11.5577 14.3477 11.3476 14.3748 11.1418 14.3451C10.9156 14.2985 10.7048 14.1956 10.5288 14.0461C10.3528 13.8965 10.2173 13.705 10.1348 13.4893C10.0288 13.215 9.96342 12.9267 9.94084 12.6335C9.90342 12.9879 9.88438 13.344 9.88379 13.7004V17.1235H13.5494V15.7429C13.5494 11.8518 16.211 7.33039 19.6427 7.33039H20.5442C23.9673 7.33039 26.6374 11.8518 26.6374 15.7429V17.1378H30.3088V13.7146C30.2705 11.0326 29.2899 8.44944 27.5389 6.41754Z" fill="#FF7098"/>
</g>
<path d="M33.1241 17.5687C33.0417 17.3555 32.9062 17.167 32.7304 17.021C32.4764 16.84 32.1831 16.7217 31.8746 16.6758H8.19762C7.882 16.7082 7.58361 16.8355 7.34183 17.0409C7.15064 17.2122 7.02886 17.4477 6.99951 17.7027C6.99951 17.7427 6.99951 17.7912 6.99951 17.8425V22.9117C6.99951 42.3325 33.1812 42.8175 33.1812 22.9117V17.8197C33.1694 17.7345 33.1503 17.6505 33.1241 17.5687Z" fill="#E20C74"/>
<path d="M32.5913 17.8763C32.5103 17.6782 32.3797 17.5043 32.2119 17.3714C31.9693 17.2054 31.6924 17.0962 31.4018 17.0519H8.66329C8.36286 17.0817 8.07798 17.1998 7.84458 17.3913C7.66141 17.546 7.54326 17.7639 7.51367 18.0018C7.51367 18.0389 7.51367 18.0845 7.51367 18.133V22.8085C7.51367 40.7802 32.6627 41.2338 32.6627 22.8085V18.096C32.6443 18.0211 32.6204 17.9477 32.5913 17.8763Z" fill="#FF7098"/>
<path d="M17.8636 23.262C17.881 22.5386 18.1609 21.8463 18.6511 21.314C19.1414 20.7818 19.8084 20.4461 20.528 20.3694C20.3889 20.3522 20.2488 20.3436 20.1086 20.3438C18.397 20.3438 17.0221 21.6503 17.0221 23.262C17.0314 23.8598 17.2241 24.4403 17.5741 24.925C17.9241 25.4097 18.4145 25.7752 18.979 25.972L16.7539 32.6387H17.6097L19.8319 25.972C19.2655 25.7767 18.7729 25.4119 18.4208 24.9272C18.0687 24.4424 17.8742 23.8611 17.8636 23.262Z" fill="#EF58A0"/>
<path d="M23.1973 23.2621C23.1792 22.538 22.8982 21.8453 22.407 21.313C21.9157 20.7808 21.2476 20.4454 20.5273 20.3695C19.8077 20.4462 19.1407 20.7819 18.6504 21.3141C18.1602 21.8463 17.8803 22.5387 17.8629 23.2621C17.8724 23.8594 18.0648 24.4395 18.4142 24.9241C18.7636 25.4086 19.2532 25.7744 19.8169 25.9721L17.5947 32.6388H23.1916L21.1805 25.9949C21.7591 25.8057 22.2644 25.4408 22.6259 24.951C22.9874 24.4612 23.1871 23.8708 23.1973 23.2621Z" fill="#E20C74"/>
<path d="M10.3403 12.3338C10.3403 12.3338 11.9036 3.04275 21.5684 3.38792C21.5684 3.38792 12.9847 4.01836 10.3403 12.3338Z" fill="white"/>
<g style="mix-blend-mode:screen">
<path d="M9.21874 18.5901C9.04737 19.067 9.06369 19.5911 9.26439 20.0564C9.61812 20.7382 13.5434 19.7283 13.435 18.7984C13.3266 17.8684 9.80639 17.1752 9.21874 18.5901Z" fill="white"/>
</g>
<g style="mix-blend-mode:screen">
<path d="M9.1217 21.8955C9.0362 22.3278 9.04496 22.7735 9.14737 23.202C9.32138 23.8125 11.2669 22.9168 11.2184 22.081C11.1699 21.2451 9.41552 20.6318 9.1217 21.8955Z" fill="white"/>
</g>
</svg>
