<svg width="178" height="33" viewBox="0 0 178 33" fill="none" xmlns="http://www.w3.org/2000/svg">
<path d="M8.60801 11.405C8.60801 10.285 8.88801 9.48 9.44801 8.99C10.008 8.47667 10.6847 8.22 11.478 8.22C12.2247 8.22 12.843 8.45333 13.333 8.92C13.823 8.66333 14.3363 8.48833 14.873 8.395C15.4097 8.27833 15.9463 8.22 16.483 8.22C18.513 8.22 20.1813 8.69833 21.488 9.655C22.7947 8.69833 24.4747 8.22 26.528 8.22C29.0247 8.22 30.9613 8.89667 32.338 10.25C33.7147 11.6033 34.403 13.5283 34.403 16.025V22.78C34.403 23.9467 34.123 24.7983 33.563 25.335C33.0263 25.8483 32.3613 26.105 31.568 26.105C30.7513 26.105 30.063 25.8483 29.503 25.335C28.9663 24.7983 28.698 23.9467 28.698 22.78V16.095C28.698 15.4883 28.488 14.975 28.068 14.555C27.648 14.135 27.1347 13.925 26.528 13.925C25.9447 13.925 25.443 14.1233 25.023 14.52C24.6263 14.8933 24.4047 15.36 24.358 15.92V22.78C24.358 23.9467 24.078 24.7983 23.518 25.335C22.9813 25.8483 22.3163 26.105 21.523 26.105C20.7063 26.105 20.018 25.8483 19.458 25.335C18.9213 24.7983 18.653 23.9467 18.653 22.78V16.095C18.653 15.4883 18.443 14.975 18.023 14.555C17.603 14.135 17.0897 13.925 16.483 13.925C15.8997 13.925 15.398 14.1233 14.978 14.52C14.5813 14.8933 14.3597 15.36 14.313 15.92V22.78C14.313 23.9 14.033 24.74 13.473 25.3C12.913 25.86 12.2597 26.14 11.513 26.14C10.673 26.14 9.98467 25.895 9.44801 25.405C8.93467 24.915 8.65467 24.0517 8.60801 22.815V11.405ZM46.003 21.24C46.703 21.24 47.2514 21.1817 47.648 21.065C48.0447 20.9483 48.383 20.82 48.663 20.68C48.943 20.54 49.223 20.4117 49.503 20.295C49.783 20.1783 50.1564 20.12 50.623 20.12C51.323 20.12 51.8597 20.3067 52.233 20.68C52.6064 21.0533 52.793 21.5667 52.793 22.22C52.793 23.06 52.478 23.7717 51.848 24.355C50.9614 25.1717 50.0047 25.6967 48.978 25.93C47.9514 26.1633 46.878 26.28 45.758 26.28C44.498 26.28 43.3197 26.0467 42.223 25.58C41.1264 25.09 40.1697 24.4367 39.353 23.62C38.5364 22.8033 37.8947 21.8467 37.428 20.75C36.9614 19.63 36.728 18.44 36.728 17.18C36.728 15.9433 36.9614 14.7767 37.428 13.68C37.8947 12.5833 38.5364 11.6383 39.353 10.845C40.1697 10.0283 41.1264 9.38667 42.223 8.92C43.3197 8.45333 44.498 8.22 45.758 8.22C46.9247 8.22 48.0097 8.43 49.013 8.85C50.0397 9.24667 50.9497 9.80667 51.743 10.53C52.5364 11.23 53.178 12.07 53.668 13.05C54.158 14.03 54.4614 15.08 54.578 16.2V16.48C54.578 17.25 54.298 17.9033 53.738 18.44C53.178 18.9533 52.513 19.21 51.743 19.21H42.783C42.783 19.3967 42.8647 19.6067 43.028 19.84C43.1914 20.0733 43.413 20.295 43.693 20.505C43.973 20.715 44.3114 20.89 44.708 21.03C45.1047 21.17 45.5364 21.24 46.003 21.24ZM48.768 15.36C48.768 14.9867 48.488 14.6017 47.928 14.205C47.3914 13.785 46.6447 13.575 45.688 13.575C45.2214 13.575 44.8014 13.6567 44.428 13.82C44.0547 13.96 43.7397 14.135 43.483 14.345C43.2264 14.5317 43.028 14.73 42.888 14.94C42.748 15.1267 42.678 15.2667 42.678 15.36H48.768ZM56.5613 4.72C56.5613 3.55333 56.8413 2.70166 57.4013 2.165C57.9613 1.62833 58.6496 1.36 59.4663 1.36C60.2363 1.36 60.8896 1.62833 61.4263 2.165C61.9863 2.70166 62.2663 3.55333 62.2663 4.72V22.815C62.2663 23.9817 61.9863 24.8333 61.4263 25.37C60.8896 25.8833 60.2363 26.14 59.4663 26.14C58.6496 26.14 57.9613 25.8833 57.4013 25.37C56.8413 24.8333 56.5613 23.9817 56.5613 22.815V4.72ZM70.1536 17.215C70.1536 18.1483 70.4686 18.9417 71.0986 19.595C71.7286 20.225 72.5103 20.54 73.4436 20.54C73.8869 20.54 74.3069 20.4583 74.7036 20.295C75.1236 20.1083 75.4736 19.875 75.7536 19.595C76.0569 19.2917 76.2903 18.9417 76.4536 18.545C76.6403 18.125 76.7336 17.6817 76.7336 17.215C76.7336 16.7717 76.6403 16.3517 76.4536 15.955C76.2903 15.535 76.0569 15.185 75.7536 14.905C75.4736 14.6017 75.1236 14.3683 74.7036 14.205C74.3069 14.0183 73.8869 13.925 73.4436 13.925C72.5103 13.925 71.7286 14.2517 71.0986 14.905C70.4686 15.535 70.1536 16.305 70.1536 17.215ZM64.4136 17.215C64.4136 15.9783 64.6469 14.8117 65.1136 13.715C65.5803 12.6183 66.2219 11.6617 67.0386 10.845C67.8553 10.0283 68.8119 9.38667 69.9086 8.92C71.0053 8.45333 72.1836 8.22 73.4436 8.22C74.6803 8.22 75.8469 8.45333 76.9436 8.92C78.0403 9.38667 78.9969 10.0283 79.8136 10.845C80.6303 11.6617 81.2719 12.6183 81.7386 13.715C82.2053 14.8117 82.4386 15.9783 82.4386 17.215C82.4386 18.475 82.2053 19.6533 81.7386 20.75C81.2719 21.8467 80.6303 22.815 79.8136 23.655C78.9969 24.4717 78.0403 25.1133 76.9436 25.58C75.8469 26.0467 74.6803 26.28 73.4436 26.28C72.1836 26.28 71.0053 26.0467 69.9086 25.58C68.8119 25.1133 67.8553 24.4717 67.0386 23.655C66.2219 22.815 65.5803 21.8467 65.1136 20.75C64.6469 19.6533 64.4136 18.475 64.4136 17.215ZM96.741 17.285C96.741 16.305 96.4143 15.5 95.761 14.87C95.131 14.24 94.3493 13.925 93.416 13.925C92.436 13.925 91.631 14.24 91.001 14.87C90.371 15.5 90.056 16.305 90.056 17.285C90.056 18.265 90.371 19.07 91.001 19.7C91.631 20.33 92.436 20.645 93.416 20.645C94.3493 20.645 95.131 20.33 95.761 19.7C96.4143 19.07 96.741 18.265 96.741 17.285ZM84.316 4.72C84.316 3.67 84.5377 2.85333 84.981 2.27C85.4477 1.66333 86.1943 1.36 87.221 1.36C87.991 1.36 88.6443 1.62833 89.181 2.165C89.741 2.70166 90.021 3.55333 90.021 4.72V8.885C90.5577 8.65167 91.0943 8.48833 91.631 8.395C92.191 8.30167 92.786 8.255 93.416 8.255C94.6527 8.255 95.8077 8.5 96.881 8.99C97.9777 9.45667 98.9343 10.0983 99.751 10.915C100.568 11.7317 101.209 12.6883 101.676 13.785C102.166 14.8817 102.411 16.0483 102.411 17.285C102.411 18.5217 102.166 19.6883 101.676 20.785C101.209 21.8817 100.568 22.8383 99.751 23.655C98.9343 24.4717 97.9777 25.1133 96.881 25.58C95.8077 26.0467 94.6527 26.28 93.416 26.28C92.6227 26.28 91.876 26.1867 91.176 26C90.476 25.8367 89.8227 25.615 89.216 25.335C88.656 25.895 87.9793 26.175 87.186 26.175C86.3227 26.1517 85.6227 25.8483 85.086 25.265C84.5727 24.6583 84.316 23.8533 84.316 22.85V4.72ZM113.098 21.24C113.798 21.24 114.346 21.1817 114.743 21.065C115.139 20.9483 115.478 20.82 115.758 20.68C116.038 20.54 116.318 20.4117 116.598 20.295C116.878 20.1783 117.251 20.12 117.718 20.12C118.418 20.12 118.954 20.3067 119.328 20.68C119.701 21.0533 119.888 21.5667 119.888 22.22C119.888 23.06 119.573 23.7717 118.943 24.355C118.056 25.1717 117.099 25.6967 116.073 25.93C115.046 26.1633 113.973 26.28 112.853 26.28C111.593 26.28 110.414 26.0467 109.318 25.58C108.221 25.09 107.264 24.4367 106.448 23.62C105.631 22.8033 104.989 21.8467 104.523 20.75C104.056 19.63 103.823 18.44 103.823 17.18C103.823 15.9433 104.056 14.7767 104.523 13.68C104.989 12.5833 105.631 11.6383 106.448 10.845C107.264 10.0283 108.221 9.38667 109.318 8.92C110.414 8.45333 111.593 8.22 112.853 8.22C114.019 8.22 115.104 8.43 116.108 8.85C117.134 9.24667 118.044 9.80667 118.838 10.53C119.631 11.23 120.273 12.07 120.763 13.05C121.253 14.03 121.556 15.08 121.673 16.2V16.48C121.673 17.25 121.393 17.9033 120.833 18.44C120.273 18.9533 119.608 19.21 118.838 19.21H109.878C109.878 19.3967 109.959 19.6067 110.123 19.84C110.286 20.0733 110.508 20.295 110.788 20.505C111.068 20.715 111.406 20.89 111.803 21.03C112.199 21.17 112.631 21.24 113.098 21.24ZM115.863 15.36C115.863 14.9867 115.583 14.6017 115.023 14.205C114.486 13.785 113.739 13.575 112.783 13.575C112.316 13.575 111.896 13.6567 111.523 13.82C111.149 13.96 110.834 14.135 110.578 14.345C110.321 14.5317 110.123 14.73 109.983 14.94C109.843 15.1267 109.773 15.2667 109.773 15.36H115.863ZM132.888 21.24C133.588 21.24 134.136 21.1817 134.533 21.065C134.929 20.9483 135.268 20.82 135.548 20.68C135.828 20.54 136.108 20.4117 136.388 20.295C136.668 20.1783 137.041 20.12 137.508 20.12C138.208 20.12 138.744 20.3067 139.118 20.68C139.491 21.0533 139.678 21.5667 139.678 22.22C139.678 23.06 139.363 23.7717 138.733 24.355C137.846 25.1717 136.889 25.6967 135.863 25.93C134.836 26.1633 133.763 26.28 132.643 26.28C131.383 26.28 130.204 26.0467 129.108 25.58C128.011 25.09 127.054 24.4367 126.238 23.62C125.421 22.8033 124.779 21.8467 124.313 20.75C123.846 19.63 123.613 18.44 123.613 17.18C123.613 15.9433 123.846 14.7767 124.313 13.68C124.779 12.5833 125.421 11.6383 126.238 10.845C127.054 10.0283 128.011 9.38667 129.108 8.92C130.204 8.45333 131.383 8.22 132.643 8.22C133.809 8.22 134.894 8.43 135.898 8.85C136.924 9.24667 137.834 9.80667 138.628 10.53C139.421 11.23 140.063 12.07 140.553 13.05C141.043 14.03 141.346 15.08 141.463 16.2V16.48C141.463 17.25 141.183 17.9033 140.623 18.44C140.063 18.9533 139.398 19.21 138.628 19.21H129.668C129.668 19.3967 129.749 19.6067 129.913 19.84C130.076 20.0733 130.298 20.295 130.578 20.505C130.858 20.715 131.196 20.89 131.593 21.03C131.989 21.17 132.421 21.24 132.888 21.24ZM135.653 15.36C135.653 14.9867 135.373 14.6017 134.813 14.205C134.276 13.785 133.529 13.575 132.573 13.575C132.106 13.575 131.686 13.6567 131.313 13.82C130.939 13.96 130.624 14.135 130.368 14.345C130.111 14.5317 129.913 14.73 129.773 14.94C129.633 15.1267 129.563 15.2667 129.563 15.36H135.653ZM143.652 11.405C143.652 10.285 143.932 9.48 144.492 8.99C145.052 8.47667 145.729 8.22 146.522 8.22C147.269 8.22 147.887 8.45333 148.377 8.92C148.867 8.66333 149.38 8.48833 149.917 8.395C150.454 8.27833 150.99 8.22 151.527 8.22C153.557 8.22 155.225 8.69833 156.532 9.655C157.839 8.69833 159.519 8.22 161.572 8.22C164.069 8.22 166.005 8.89667 167.382 10.25C168.759 11.6033 169.447 13.5283 169.447 16.025V22.78C169.447 23.9467 169.167 24.7983 168.607 25.335C168.07 25.8483 167.405 26.105 166.612 26.105C165.795 26.105 165.107 25.8483 164.547 25.335C164.01 24.7983 163.742 23.9467 163.742 22.78V16.095C163.742 15.4883 163.532 14.975 163.112 14.555C162.692 14.135 162.179 13.925 161.572 13.925C160.989 13.925 160.487 14.1233 160.067 14.52C159.67 14.8933 159.449 15.36 159.402 15.92V22.78C159.402 23.9467 159.122 24.7983 158.562 25.335C158.025 25.8483 157.36 26.105 156.567 26.105C155.75 26.105 155.062 25.8483 154.502 25.335C153.965 24.7983 153.697 23.9467 153.697 22.78V16.095C153.697 15.4883 153.487 14.975 153.067 14.555C152.647 14.135 152.134 13.925 151.527 13.925C150.944 13.925 150.442 14.1233 150.022 14.52C149.625 14.8933 149.404 15.36 149.357 15.92V22.78C149.357 23.9 149.077 24.74 148.517 25.3C147.957 25.86 147.304 26.14 146.557 26.14C145.717 26.14 145.029 25.895 144.492 25.405C143.979 24.915 143.699 24.0517 143.652 22.815V11.405Z" fill="#FF7098"/>
</svg>
