<svg width="40" height="40" viewBox="0 0 40 40" fill="none" xmlns="http://www.w3.org/2000/svg">
<rect width="40" height="40" rx="20" fill="url(#paint0_linear)"/>
<path d="M10 14.0215C10 12.959 10.2279 12.1953 10.6838 11.7305C11.1398 11.2435 11.6906 11 12.3365 11C12.9444 11 13.4478 11.2213 13.8467 11.6641C14.2456 11.4206 14.6635 11.2546 15.1004 11.166C15.5373 11.0553 15.9742 11 16.4111 11C18.0638 11 19.4219 11.4538 20.4858 12.3613C21.5495 11.4538 22.9172 11 24.5889 11C26.6214 11 28.198 11.6419 29.3189 12.9258C30.4396 14.2096 31 16.0358 31 18.4043V24.8125C31 25.9193 30.772 26.7272 30.3161 27.2363C29.8792 27.7233 29.3378 27.9668 28.692 27.9668C28.0271 27.9668 27.4668 27.7233 27.0109 27.2363C26.5739 26.7272 26.3555 25.9193 26.3555 24.8125V18.4707C26.3555 17.8952 26.1845 17.4082 25.8426 17.0097C25.5007 16.6113 25.0827 16.4121 24.5889 16.4121C24.114 16.4121 23.7056 16.6003 23.3636 16.9765C23.0407 17.3307 22.8602 17.7734 22.8223 18.3047V24.8125C22.8223 25.9193 22.5943 26.7272 22.1384 27.2363C21.7014 27.7233 21.1601 27.9668 20.5143 27.9668C19.8493 27.9668 19.289 27.7233 18.8331 27.2363C18.3962 26.7272 18.1777 25.9193 18.1777 24.8125V18.4707C18.1777 17.8952 18.0068 17.4082 17.6648 17.0097C17.3229 16.6113 16.905 16.4121 16.4111 16.4121C15.9362 16.4121 15.5278 16.6003 15.1859 16.9765C14.8629 17.3307 14.6825 17.7734 14.6445 18.3047V24.8125C14.6445 25.875 14.4165 26.6719 13.9606 27.2031C13.5047 27.7344 12.9729 28 12.365 28C11.6811 28 11.1208 27.7676 10.6838 27.3027C10.2659 26.8379 10.038 26.0189 10 24.8457V14.0215Z" fill="white"/>
<defs>
<linearGradient id="paint0_linear" x1="20" y1="0" x2="20" y2="40" gradientUnits="userSpaceOnUse">
<stop stop-color="#FF7098"/>
<stop offset="1" stop-color="#EF58A0"/>
</linearGradient>
</defs>
</svg>
