<svg width="33" height="33" viewBox="0 0 33 33" fill="none" xmlns="http://www.w3.org/2000/svg">
<path d="M16.5 31.4235C17.0774 31.4102 17.6316 31.1931 18.0644 30.8106C18.4972 30.4281 18.7808 29.9049 18.865 29.3335H14.0433C14.1299 29.9204 14.4268 30.456 14.8787 30.8404C15.3306 31.2249 15.9068 31.4321 16.5 31.4235Z" fill="#D7AFBB"/>
<path d="M30.1124 25.7857L29.8008 25.5107C28.9166 24.7229 28.1427 23.8195 27.4999 22.8249C26.798 21.4522 26.3773 19.9532 26.2624 18.4157V13.8874C26.2587 13.3373 26.2097 12.7885 26.1158 12.2465C24.563 11.9274 23.1683 11.0815 22.1677 9.852C21.1671 8.62253 20.6221 7.08506 20.6249 5.49987V4.92237C19.6679 4.45138 18.6396 4.14165 17.5816 4.0057V2.8507C17.5816 2.52614 17.4527 2.21488 17.2232 1.98538C16.9937 1.75588 16.6824 1.62695 16.3579 1.62695C16.0333 1.62695 15.722 1.75588 15.4925 1.98538C15.263 2.21488 15.1341 2.52614 15.1341 2.8507V4.05154C12.7652 4.38571 10.5971 5.56563 9.03023 7.37347C7.46332 9.18131 6.60336 11.495 6.60911 13.8874V18.4157C6.4943 19.9532 6.07357 21.4522 5.37161 22.8249C4.73992 23.817 3.97845 24.7203 3.10744 25.5107L2.79578 25.7857V28.3707H30.1124V25.7857Z" fill="#D7AFBB"/>
<path d="M27.5 10.0832C30.0313 10.0832 32.0833 8.03114 32.0833 5.49984C32.0833 2.96853 30.0313 0.916504 27.5 0.916504C24.9687 0.916504 22.9166 2.96853 22.9166 5.49984C22.9166 8.03114 24.9687 10.0832 27.5 10.0832Z" fill="#FF0000"/>
</svg>
