<svg width="112" height="129" viewBox="0 0 112 129" fill="none" xmlns="http://www.w3.org/2000/svg">
<circle cx="56" cy="73" r="55.5" fill="#56CCF2" stroke="#56CCF2"/>
<path d="M109.814 73C109.814 102.438 85.7218 126.304 56 126.304C26.2782 126.304 2.18635 102.438 2.18635 73C2.18635 43.562 26.2782 19.6954 56 19.6954C85.7218 19.6954 109.814 43.562 109.814 73Z" fill="#FFEDF6" stroke="#56CCF2" stroke-width="0.3"/>
<path d="M105.218 73C105.218 99.9217 83.1852 121.75 56.0013 121.75C28.8175 121.75 6.78467 99.9217 6.78467 73C6.78467 46.0784 28.8175 24.25 56.0013 24.25C83.1852 24.25 105.218 46.0784 105.218 73Z" fill="#FFEDF6" stroke="#56CCF2" stroke-width="0.5"/>
<path d="M56.0885 29.4506H55.9093V32.9696H56.0885V29.4506Z" fill="#037499"/>
<path d="M56.0907 111.863H55.9116V115.382H56.0907V111.863Z" fill="#037499"/>
<path d="M34.5957 35.1668L34.4405 35.2563L36.1995 38.3043L36.3547 38.2147L34.5957 35.1668Z" fill="#037499"/>
<path d="M75.797 106.532L75.6418 106.621L77.4013 109.669L77.5565 109.579L75.797 106.532Z" fill="#037499"/>
<path d="M18.842 50.8623L18.7523 51.0175L21.7997 52.7775L21.8893 52.6224L18.842 50.8623Z" fill="#037499"/>
<path d="M90.2007 92.0649L90.1111 92.2201L93.1587 93.9796L93.2483 93.8244L90.2007 92.0649Z" fill="#037499"/>
<path d="M16.5621 72.3276H13.043V72.5068H16.5621V72.3276Z" fill="#037499"/>
<path d="M98.9572 72.3257H95.4381V72.5049H98.9572V72.3257Z" fill="#037499"/>
<path d="M18.8413 93.9778L18.7517 93.8215L21.7999 92.063L21.8895 92.2172L18.8413 93.9778Z" fill="#037499"/>
<path d="M93.1582 50.8486L90.1097 52.6066L90.1992 52.7618L93.2477 51.0038L93.1582 50.8486Z" fill="#037499"/>
<path d="M36.2017 106.529L34.4443 109.578L34.5995 109.667L36.3569 106.619L36.2017 106.529Z" fill="#037499"/>
<path d="M77.397 35.1587L75.6396 38.2075L75.7948 38.297L77.5522 35.2482L77.397 35.1587Z" fill="#037499"/>
<path d="M34.8329 35.0201L34.2122 35.3784L38.0354 42.0005L38.6561 41.6422L34.8329 35.0201Z" fill="#037499"/>
<path d="M55.5 116C67.0369 116 78.1013 111.417 86.2591 103.259C94.417 95.1013 99 84.0369 99 72.5C99 60.9631 94.417 49.8987 86.2591 41.7409C78.1013 33.583 67.0369 29 55.5 29L55.5 72.5V116Z" fill="#56CCF2"/>
<path d="M73.9598 102.84L73.3408 103.197L77.1629 109.82L77.7819 109.463L73.9598 102.84Z" fill="#037499"/>
<path d="M18.9775 50.6176L18.6191 51.2383L25.2412 55.0615L25.5996 54.4408L18.9775 50.6176Z" fill="#037499"/>
<path d="M86.7548 89.7541L86.3975 90.373L93.0196 94.1963L93.3769 93.5774L86.7548 89.7541Z" fill="#037499"/>
<path d="M20.6874 72.0586H13.043V72.7753H20.6874V72.0586Z" fill="#037499"/>
<path d="M98.955 72.0586H91.3105V72.7753H98.955V72.0586Z" fill="#037499"/>
<circle cx="55.1663" cy="72.211" r="3" transform="rotate(119.591 55.1663 72.211)" fill="#FFEDF6"/>
<path d="M55.4736 102.536L57.8921 75.0925C58.4625 74.563 58.8596 73.8735 59.0315 73.1144C59.2033 72.3554 59.1418 71.5621 58.8551 70.8385C58.5684 70.115 58.0698 69.4949 57.4247 69.0595C56.7795 68.6242 56.0179 68.3939 55.2396 68.3988C54.4613 68.4037 53.7027 68.6436 53.0631 69.087C52.4235 69.5304 51.9327 70.1567 51.6551 70.8838C51.3775 71.6109 51.3261 72.4049 51.5074 73.1618C51.6888 73.9187 52.0946 74.6031 52.6716 75.1254L55.4736 102.536ZM52.9701 70.9628C53.2271 70.5102 53.6125 70.144 54.0776 69.9105C54.5428 69.677 55.0667 69.5867 55.5832 69.6509C56.0997 69.7152 56.5855 69.9311 56.9792 70.2715C57.373 70.6119 57.657 71.0613 57.7952 71.5631C57.9335 72.0648 57.9199 72.5963 57.7562 73.0904C57.5924 73.5844 57.2858 74.0187 56.8751 74.3385C56.4645 74.6583 55.9683 74.8491 55.4492 74.8869C54.9301 74.9246 54.4115 74.8076 53.9589 74.5506C53.3524 74.2055 52.9077 73.6339 52.7223 72.9613C52.5369 72.2886 52.626 71.5698 52.9701 70.9628Z" fill="#037499"/>
<path d="M38.0354 102.817L34.2122 109.439L34.8329 109.798L38.6561 103.176L38.0354 102.817Z" fill="#037499"/>
<path d="M77.1762 35.037L73.3495 41.6571L73.9682 42.0148L77.7949 35.3947L77.1762 35.037Z" fill="#037499"/>
<path d="M25.2449 89.7565L18.6242 93.582L18.9817 94.2008L25.6025 90.3752L25.2449 89.7565Z" fill="#037499"/>
<path d="M93.0232 50.6299L86.4005 54.452L86.7587 55.0728L93.3815 51.2507L93.0232 50.6299Z" fill="#037499"/>
<path d="M56.3573 29.453H55.6405V37.0995H56.3573V29.453Z" fill="#037499"/>
<path d="M56.3595 107.733H55.6428V115.38H56.3595V107.733Z" fill="#037499"/>
</svg>
