<svg width="112" height="129" viewBox="0 0 112 129" fill="none" xmlns="http://www.w3.org/2000/svg">
<circle cx="56" cy="73" r="55.5" fill="#47D580" stroke="#47D580"/>
<path d="M109.814 73C109.814 102.438 85.7218 126.304 56 126.304C26.2782 126.304 2.18636 102.438 2.18636 73C2.18636 43.562 26.2782 19.6954 56 19.6954C85.7218 19.6954 109.814 43.562 109.814 73Z" fill="#FFEDF6" stroke="#47D580" stroke-width="0.3"/>
<path d="M105.218 73C105.218 99.9217 83.1852 121.75 56.0013 121.75C28.8175 121.75 6.78467 99.9217 6.78467 73C6.78467 46.0784 28.8175 24.25 56.0013 24.25C83.1852 24.25 105.218 46.0784 105.218 73Z" fill="#FFEDF6" stroke="#47D580" stroke-width="0.5"/>
<path d="M56.0885 29.4506H55.9093V32.9696H56.0885V29.4506Z" fill="#219653"/>
<path d="M56.0907 111.863H55.9116V115.382H56.0907V111.863Z" fill="#219653"/>
<path d="M34.5957 35.1668L34.4405 35.2563L36.1995 38.3043L36.3547 38.2147L34.5957 35.1668Z" fill="#219653"/>
<path d="M75.797 106.532L75.6418 106.621L77.4013 109.669L77.5565 109.579L75.797 106.532Z" fill="#219653"/>
<path d="M18.842 50.8623L18.7523 51.0175L21.7997 52.7775L21.8893 52.6224L18.842 50.8623Z" fill="#219653"/>
<path d="M90.2007 92.0649L90.1111 92.2201L93.1587 93.9796L93.2483 93.8244L90.2007 92.0649Z" fill="#219653"/>
<path d="M16.5621 72.3276H13.043V72.5068H16.5621V72.3276Z" fill="#219653"/>
<path d="M98.9572 72.3257H95.4381V72.5049H98.9572V72.3257Z" fill="#219653"/>
<path d="M18.8413 93.9778L18.7517 93.8215L21.7999 92.063L21.8895 92.2172L18.8413 93.9778Z" fill="#219653"/>
<path d="M93.1582 50.8486L90.1097 52.6066L90.1992 52.7618L93.2477 51.0038L93.1582 50.8486Z" fill="#219653"/>
<path d="M36.2017 106.529L34.4443 109.578L34.5996 109.667L36.357 106.619L36.2017 106.529Z" fill="#219653"/>
<path d="M77.397 35.1587L75.6396 38.2075L75.7948 38.297L77.5522 35.2482L77.397 35.1587Z" fill="#219653"/>
<path d="M34.8329 35.0201L34.2122 35.3784L38.0354 42.0005L38.6561 41.6422L34.8329 35.0201Z" fill="#219653"/>
<path d="M73.9593 102.839L73.3403 103.196L77.1625 109.819L77.7814 109.462L73.9593 102.839Z" fill="#219653"/>
<path d="M18.977 50.6178L18.6187 51.2385L25.2408 55.0618L25.5991 54.4411L18.977 50.6178Z" fill="#219653"/>
<path d="M86.7547 89.7549L86.3974 90.3738L93.0195 94.197L93.3768 93.5781L86.7547 89.7549Z" fill="#219653"/>
<path d="M20.6875 72.0587H13.043V72.7754H20.6875V72.0587Z" fill="#219653"/>
<path d="M98.955 72.0587H91.3105V72.7754H98.955V72.0587Z" fill="#219653"/>
<path d="M55.6428 29.4506V69.5627C57.6951 69.771 58.4222 71.592 60.6432 70.3023L93.3817 51.2443C93.3817 51.2443 81.9681 29.2026 55.6428 29.4506Z" fill="#47D580"/>
<path d="M82.2181 57.7577L57.1595 69.2067C56.4174 68.9722 55.6217 68.9673 54.8768 69.1927C54.1319 69.4181 53.4724 69.8633 52.9848 70.4699C52.4972 71.0766 52.2042 71.8163 52.1442 72.5923C52.0842 73.3683 52.2601 74.1443 52.6486 74.8186C53.0372 75.493 53.6204 76.0342 54.3219 76.3715C55.0233 76.7087 55.8103 76.8261 56.5796 76.7085C57.349 76.5908 58.0648 76.2435 58.6334 75.712C59.202 75.1805 59.5968 74.4897 59.766 73.73L82.2181 57.7577ZM55.999 75.526C55.4785 75.526 54.9698 75.3717 54.537 75.0825C54.1043 74.7934 53.767 74.3824 53.5678 73.9016C53.3686 73.4207 53.3165 72.8916 53.4181 72.3811C53.5196 71.8707 53.7702 71.4018 54.1382 71.0338C54.5063 70.6658 54.9751 70.4151 55.4856 70.3136C55.9961 70.2121 56.5252 70.2642 57.006 70.4633C57.4869 70.6625 57.8978 70.9998 58.187 71.4325C58.4761 71.8653 58.6305 72.3741 58.6305 72.8945C58.6299 73.5923 58.3525 74.2613 57.8591 74.7547C57.3657 75.248 56.6967 75.5255 55.999 75.526Z" fill="#219653"/>
<path d="M38.0354 102.817L34.2122 109.439L34.8329 109.798L38.6561 103.176L38.0354 102.817Z" fill="#219653"/>
<path d="M77.1762 35.037L73.3495 41.6571L73.9682 42.0148L77.7949 35.3947L77.1762 35.037Z" fill="#219653"/>
<path d="M25.2449 89.7565L18.6242 93.582L18.9817 94.2008L25.6025 90.3752L25.2449 89.7565Z" fill="#219653"/>
<path d="M93.0232 50.6299L86.4004 54.452L86.7587 55.0728L93.3815 51.2507L93.0232 50.6299Z" fill="#219653"/>
<path d="M56.3573 29.453H55.6405V37.0995H56.3573V29.453Z" fill="#219653"/>
<path d="M56.3595 107.733H55.6428V115.38H56.3595V107.733Z" fill="#219653"/>
</svg>
