<svg width="112" height="112" viewBox="0 0 112 112" fill="none" xmlns="http://www.w3.org/2000/svg">
<circle cx="56" cy="56" r="55.5" fill="#CA91FC" stroke="#CA91FC"/>
<path d="M109.814 56C109.814 85.4379 85.7218 109.304 56 109.304C26.2782 109.304 2.18638 85.4379 2.18638 56C2.18638 26.562 26.2782 2.69541 56 2.69541C85.7218 2.69541 109.814 26.562 109.814 56Z" fill="#FFEDF6" stroke="#CA91FC" stroke-width="0.3"/>
<path d="M105.218 56C105.218 82.9217 83.1852 104.75 56.0013 104.75C28.8175 104.75 6.78467 82.9217 6.78467 56C6.78467 29.0784 28.8175 7.25 56.0013 7.25C83.1852 7.25 105.218 29.0784 105.218 56Z" fill="#FFEDF6" stroke="#CA91FC" stroke-width="0.5"/>
<path d="M25.5574 94.6209C31.3234 99.0807 38.0161 102.218 45.1535 103.807C52.291 105.396 59.6953 105.398 66.8333 103.811L56.0013 56L25.5574 94.6209Z" fill="#CA91FC"/>
<path d="M15.8549 27.3726C12.0596 32.595 9.34002 38.5067 7.85126 44.7702C6.3625 51.0337 6.13375 57.5264 7.17809 63.8774L56.0013 56L15.8549 27.3726Z" fill="#CA91FC"/>
<path d="M46.0752 7.99664C53.7228 6.44497 61.6325 6.70822 69.1577 8.76484C76.6829 10.8215 83.6099 14.6131 89.3723 19.8297L56.0013 56L46.0752 7.99664Z" fill="#CA91FC"/>
<path d="M104.908 48.6474C106.877 61.4959 103.612 74.5928 95.8321 85.0569L56.0013 56L104.908 48.6474Z" fill="#CA91FC"/>
<path d="M60.3959 56C60.3959 58.404 58.4282 60.3545 55.9989 60.3545C53.5696 60.3545 51.602 58.404 51.602 56C51.602 53.5959 53.5696 51.6454 55.9989 51.6454C58.4282 51.6454 60.3959 53.5959 60.3959 56Z" fill="#FFEDF6" stroke="#CA91FC" stroke-width="0.2"/>
</svg>
