<svg width="112" height="129" viewBox="0 0 112 129" fill="none" xmlns="http://www.w3.org/2000/svg">
<circle cx="56" cy="73" r="55.5" fill="#FDBD04" stroke="#FDBD04"/>
<path d="M109.814 73C109.814 102.438 85.7218 126.304 56 126.304C26.2782 126.304 2.18635 102.438 2.18635 73C2.18635 43.562 26.2782 19.6954 56 19.6954C85.7218 19.6954 109.814 43.562 109.814 73Z" fill="#FFEDF6" stroke="#FDBD04" stroke-width="0.3"/>
<path d="M105.218 73C105.218 99.9217 83.1852 121.75 56.0013 121.75C28.8175 121.75 6.78467 99.9217 6.78467 73C6.78467 46.0784 28.8175 24.25 56.0013 24.25C83.1852 24.25 105.218 46.0784 105.218 73Z" fill="#FFEDF6" stroke="#FDBD04" stroke-width="0.5"/>
<path d="M56.0885 29.4506H55.9093V32.9696H56.0885V29.4506Z" fill="#E97810"/>
<path d="M56.0907 111.863H55.9116V115.382H56.0907V111.863Z" fill="#E97810"/>
<path d="M34.5956 35.1668L34.4405 35.2563L36.1994 38.3043L36.3546 38.2147L34.5956 35.1668Z" fill="#E97810"/>
<path d="M75.797 106.532L75.6418 106.621L77.4013 109.669L77.5565 109.579L75.797 106.532Z" fill="#E97810"/>
<path d="M18.842 50.8623L18.7523 51.0175L21.7997 52.7775L21.8893 52.6224L18.842 50.8623Z" fill="#E97810"/>
<path d="M90.2007 92.0649L90.1111 92.2201L93.1587 93.9796L93.2483 93.8244L90.2007 92.0649Z" fill="#E97810"/>
<path d="M16.5621 72.3276H13.043V72.5068H16.5621V72.3276Z" fill="#E97810"/>
<path d="M98.9572 72.3257H95.4381V72.5049H98.9572V72.3257Z" fill="#E97810"/>
<path d="M18.8413 93.9778L18.7517 93.8215L21.7999 92.063L21.8895 92.2172L18.8413 93.9778Z" fill="#E97810"/>
<path d="M93.1582 50.8486L90.1097 52.6066L90.1992 52.7618L93.2477 51.0038L93.1582 50.8486Z" fill="#E97810"/>
<path d="M36.2017 106.529L34.4443 109.578L34.5996 109.667L36.357 106.619L36.2017 106.529Z" fill="#E97810"/>
<path d="M77.397 35.1587L75.6396 38.2075L75.7948 38.297L77.5522 35.2482L77.397 35.1587Z" fill="#E97810"/>
<path d="M34.8329 35.0201L34.2122 35.3784L38.0354 42.0005L38.6561 41.6422L34.8329 35.0201Z" fill="#E97810"/>
<path d="M73.9593 102.839L73.3403 103.196L77.1625 109.819L77.7814 109.462L73.9593 102.839Z" fill="#E97810"/>
<path d="M18.977 50.6178L18.6187 51.2385L25.2408 55.0618L25.5991 54.4411L18.977 50.6178Z" fill="#E97810"/>
<path d="M86.7547 89.7549L86.3974 90.3738L93.0195 94.197L93.3768 93.5781L86.7547 89.7549Z" fill="#E97810"/>
<path d="M20.6875 72.0587H13.043V72.7754H20.6875V72.0587Z" fill="#E97810"/>
<path d="M93.3539 93.932C97.0847 87.3426 99.0307 79.8936 98.9996 72.3214C98.9686 64.7493 96.9614 57.3164 93.1767 50.7579C89.392 44.1994 83.9608 38.7425 77.4203 34.9267C70.8798 31.111 63.4565 29.0687 55.8846 29.0017L55.5 72.5L93.3539 93.932Z" fill="#FDBD04"/>
<path d="M98.955 72.0586H91.3105V72.7753H98.955V72.0586Z" fill="#E97810"/>
<circle cx="55.9732" cy="73.0569" r="3" transform="rotate(59.4509 55.9732 73.0569)" fill="#FFEDF6"/>
<path d="M82.4258 87.8886L59.8293 72.1275C59.6541 71.3692 59.2538 70.6815 58.6811 70.1546C58.1083 69.6276 57.3897 69.286 56.6195 69.1744C55.8492 69.0628 55.0632 69.1865 54.3645 69.5292C53.6657 69.872 53.0868 70.4178 52.7035 71.0952C52.3203 71.7726 52.1506 72.55 52.2167 73.3255C52.2829 74.101 52.5817 74.8384 53.0741 75.4411C53.5664 76.0439 54.2294 76.4838 54.9761 76.7034C55.7228 76.9229 56.5184 76.9117 57.2586 76.6714L82.4258 87.8886ZM53.7973 74.3401C53.5327 73.8919 53.407 73.3753 53.4361 72.8556C53.4652 72.336 53.6477 71.8366 53.9605 71.4207C54.2734 71.0048 54.7026 70.6909 55.1938 70.5189C55.685 70.3469 56.2162 70.3244 56.7202 70.4543C57.2242 70.5842 57.6783 70.8606 58.0252 71.2486C58.3721 71.6366 58.5962 72.1188 58.6691 72.6341C58.7419 73.1494 58.6604 73.6748 58.4346 74.1438C58.2089 74.6127 57.8492 75.0042 57.401 75.2688C56.7998 75.623 56.0827 75.7241 55.407 75.55C54.7313 75.3758 54.1524 74.9407 53.7973 74.3401Z" fill="#E97810"/>
<path d="M38.0354 102.817L34.2122 109.439L34.8329 109.798L38.6561 103.176L38.0354 102.817Z" fill="#E97810"/>
<path d="M77.1762 35.037L73.3495 41.6571L73.9682 42.0148L77.7949 35.3947L77.1762 35.037Z" fill="#E97810"/>
<path d="M25.2449 89.7565L18.6242 93.582L18.9817 94.2008L25.6025 90.3752L25.2449 89.7565Z" fill="#E97810"/>
<path d="M93.0232 50.6299L86.4004 54.452L86.7587 55.0728L93.3815 51.2507L93.0232 50.6299Z" fill="#E97810"/>
<path d="M56.3573 29.453H55.6405V37.0995H56.3573V29.453Z" fill="#E97810"/>
<path d="M56.3595 107.733H55.6428V115.38H56.3595V107.733Z" fill="#E97810"/>
</svg>
