<svg width="118" height="118" viewBox="0 0 118 118" fill="none" xmlns="http://www.w3.org/2000/svg">
<g filter="url(#filter0_d)">
<rect x="3" y="3" width="112" height="112" rx="56" fill="url(#paint0_linear)"/>
</g>
<rect x="3" y="3" width="112" height="112" rx="56" fill="url(#paint1_linear)"/>
<path d="M16.7269 61.9631L16.7269 61.9631C13.6339 52.5315 16.6377 42.3534 22.9593 35.7239C29.2663 29.1098 38.8414 26.0582 48.9313 30.804C49.4001 31.025 49.8669 31.26 50.3317 31.5107L50.3319 31.5108L58.7629 36.0524L59 36.1801L59.2371 36.0524L67.668 31.5108L67.6683 31.5107C68.133 31.26 68.5998 31.025 69.0686 30.804C79.159 26.0582 88.7341 29.1098 95.041 35.7239C101.363 42.3534 104.366 52.5314 101.273 61.9631C99.7707 66.5454 96.7958 70.4597 93.0728 73.3889L62.4004 97.5165C60.4051 99.0861 57.5948 99.0861 55.5995 97.5165L24.9272 73.3889C24.9272 73.3889 24.9272 73.3889 24.9272 73.3889C21.2042 70.4597 18.2292 66.5454 16.7269 61.9631Z" fill="#FF7098" stroke="#FF7098"/>
<g style="mix-blend-mode:screen" opacity="0.8">
<path d="M26.1285 50.074C25.9398 51.028 25.9591 52.0114 26.1851 52.9573C26.5692 54.3045 30.8627 52.3277 30.7557 50.4832C30.6487 48.6386 26.7769 47.285 26.1285 50.074Z" fill="white"/>
</g>
<g style="mix-blend-mode:screen" opacity="0.8">
<path d="M26.3417 42.7792C25.9635 43.8315 25.9995 44.9883 26.4424 46.0151C27.2231 47.5197 35.8857 45.2911 35.6465 43.2388C35.4073 41.1864 27.6386 39.6566 26.3417 42.7792Z" fill="white"/>
</g>
<defs>
<filter id="filter0_d" x="0" y="0" width="118" height="118" filterUnits="userSpaceOnUse" color-interpolation-filters="sRGB">
<feFlood flood-opacity="0" result="BackgroundImageFix"/>
<feColorMatrix in="SourceAlpha" type="matrix" values="0 0 0 0 0 0 0 0 0 0 0 0 0 0 0 0 0 0 127 0"/>
<feOffset/>
<feGaussianBlur stdDeviation="1.5"/>
<feColorMatrix type="matrix" values="0 0 0 0 0.591667 0 0 0 0 0.591667 0 0 0 0 0.591667 0 0 0 0.25 0"/>
<feBlend mode="normal" in2="BackgroundImageFix" result="effect1_dropShadow"/>
<feBlend mode="normal" in="SourceGraphic" in2="effect1_dropShadow" result="shape"/>
</filter>
<linearGradient id="paint0_linear" x1="59" y1="3" x2="59" y2="115" gradientUnits="userSpaceOnUse">
<stop stop-color="white"/>
<stop offset="0.927083" stop-color="#F1F1F1"/>
</linearGradient>
<linearGradient id="paint1_linear" x1="59" y1="3" x2="59" y2="115" gradientUnits="userSpaceOnUse">
<stop stop-color="white"/>
<stop offset="0.927083" stop-color="#F1F1F1"/>
</linearGradient>
</defs>
</svg>
