<svg width="18" height="19" viewBox="0 0 18 19" fill="none" xmlns="http://www.w3.org/2000/svg">
<path fill-rule="evenodd" clip-rule="evenodd" d="M17.6699 16.2303L12.7417 11.3002C13.6251 10.0953 14.0983 8.63867 14.0917 7.14468C14.0748 3.24489 10.9206 0.0860725 7.02083 0.0635482C5.15457 0.0551045 3.36245 0.793399 2.0437 2.11396C0.724951 3.43452 -0.0108836 5.22766 0.000121694 7.0939C0.0169772 10.994 3.1715 14.1532 7.07162 14.1757C8.57169 14.1822 10.0336 13.7034 11.2393 12.8109L11.2444 12.807L16.1681 17.7333C16.4343 18.0126 16.831 18.1256 17.2044 18.0286C17.5779 17.9316 17.8694 17.6399 17.9661 17.2663C18.0627 16.8928 17.9494 16.4962 17.6699 16.2303ZM7.06606 12.7641C3.94613 12.7462 1.42256 10.2192 1.40886 7.09922C1.40044 5.60642 1.98916 4.1722 3.04396 3.11583C4.09876 2.05946 5.5321 1.46861 7.02492 1.47481C10.1448 1.49276 12.6684 4.01977 12.6821 7.13972C12.6905 8.63252 12.1018 10.0667 11.047 11.1231C9.99221 12.1795 8.55887 12.7703 7.06606 12.7641Z" fill="#FF7098"/>
</svg>
