<svg width="30" height="28" viewBox="0 0 30 28" fill="none" xmlns="http://www.w3.org/2000/svg">
<path fill-rule="evenodd" clip-rule="evenodd" d="M16.3077 6.96345L16.3353 3.29885C16.3371 3.06157 16.4093 2.83015 16.5426 2.63387C16.676 2.43759 16.8645 2.28525 17.0844 2.19611C17.3043 2.10697 17.5457 2.08503 17.7781 2.13307C18.0105 2.18111 18.2234 2.29697 18.39 2.466L26.7263 10.9291C26.837 11.0413 26.9245 11.1742 26.9837 11.3202C27.043 11.4663 27.0729 11.6225 27.0717 11.7801C27.0705 11.9377 27.0383 12.0935 26.9768 12.2386C26.9153 12.3838 26.8259 12.5153 26.7135 12.6258L18.2506 20.9618C18.0818 21.1289 17.8671 21.242 17.6338 21.2869C17.4005 21.3317 17.1592 21.3062 16.9404 21.2137C16.7216 21.1211 16.5353 20.9657 16.405 20.767C16.2747 20.5683 16.2064 20.3355 16.2087 20.0979L16.2367 16.3829C15.8961 16.3564 15.559 16.343 15.2254 16.3405C8.71455 16.2912 5.30683 20.5518 5.15781 20.7403C5.00503 20.9392 4.79354 21.085 4.55329 21.1571C4.31304 21.2291 4.05621 21.2238 3.81917 21.1418C3.58138 21.06 3.37528 20.9056 3.22998 20.7004C3.08468 20.4952 3.00751 20.2495 3.00938 19.998C3.09187 9.04984 12.8087 7.25497 16.3077 6.96345ZM17.6122 14.1181C16.8174 14.0065 16.0199 13.9465 15.2435 13.9406C10.9513 13.9081 7.78704 15.4826 5.79132 16.9291C7.7255 9.47491 16.3717 9.29914 17.4636 9.30741C18.1248 9.31241 18.694 8.77912 18.699 8.11675L18.7134 6.21366L24.1748 11.7582L18.6304 17.2195L18.6448 15.3164C18.6469 15.0255 18.5434 14.7437 18.3535 14.5233C18.1636 14.3029 17.9002 14.159 17.6122 14.1181Z" fill="white"/>
<path d="M15.2435 13.9406C16.0199 13.9465 16.8174 14.0065 17.6122 14.1181C17.9002 14.159 18.1636 14.3029 18.3535 14.5233C18.5434 14.7437 18.6469 15.0255 18.6448 15.3164L18.6304 17.2195L24.1748 11.7582L18.7134 6.21366L18.699 8.11675C18.694 8.77912 18.1248 9.31241 17.4636 9.30741C16.3717 9.29914 7.7255 9.47491 5.79132 16.9291C7.78704 15.4826 10.9513 13.9081 15.2435 13.9406Z" fill="white"/>
</svg>
