<svg width="275" height="283" viewBox="0 0 275 283" fill="none" xmlns="http://www.w3.org/2000/svg">
<path d="M203.371 230.46C211.268 225.206 214.49 215.276 216.105 205.947C218.942 189.507 218.718 170.003 214.875 153.773C211.506 139.524 204.992 125.163 192.832 116.957C187.073 113.085 179.441 110.838 173.2 113.866C166.959 116.895 164.016 124.263 162.716 131.123C160.263 143.913 161.318 157.094 160.27 170.073C159.222 183.052 155.378 196.68 145.517 205.186C136.85 212.631 124.983 214.955 113.647 216.434C97.0623 218.639 84.3285 217.725 67.5971 217.732C55.674 217.732 22.9379 221.696 29.9827 228.443C66.2692 238.54 131.364 237.996 182.341 235.379C189.61 235.031 197.297 234.5 203.371 230.46Z" fill="#D3ED8C"/>
<path d="M169.146 100.964C168.258 100.029 166.287 101.396 166.651 102.541C167.35 104.725 168.978 106.428 170.061 108.423C171.836 111.71 170.131 115.401 169.81 118.792C169.656 120.418 171.906 119.734 172.437 118.841C176.344 112.129 174.115 106.218 169.146 100.964Z" fill="#D3ED8C"/>
<path d="M184.438 98.089C184.345 98.0782 184.251 98.095 184.168 98.1371C184.084 98.1793 184.015 98.2451 183.969 98.3262C182.851 100.503 184.354 103.755 184.305 106.232C184.214 110.419 182.208 114.026 179.678 117.236C178.574 118.632 180.517 119.092 181.509 118.36C185.039 115.75 186.898 111.787 187.506 107.509C187.897 104.802 187.82 98.7519 184.438 98.089Z" fill="#D3ED8C"/>
<path d="M39.6687 164.861C41.5137 150.975 50.7391 137.047 61.9633 128.632C84.1461 111.99 119.545 109.701 140.77 129.574C150.31 138.513 155.447 151.115 159.249 163.612C159.199 163.26 159.227 162.9 159.33 162.559C159.434 162.219 159.61 161.904 159.848 161.639C160.085 161.373 160.378 161.162 160.706 161.021C161.033 160.88 161.388 160.812 161.744 160.821C164.379 169.683 162.778 183.737 158.32 192.696C146.543 216.379 127.114 214.851 127.114 214.851C127.114 214.851 117.945 227.188 94.2242 227.125C75.4799 227.076 47.8387 220.922 46.2522 219.708C44.6657 218.493 51.9761 211.837 53.1433 213.462C37.4951 204.559 37.6349 180.199 39.6687 164.861Z" fill="#57DDCD"/>
<path d="M171.822 87.6083C170.616 86.2509 169.109 85.1934 167.421 84.5198C165.734 83.8463 163.912 83.5754 162.101 83.7286C160.02 83.8508 158.026 84.6029 156.384 85.8848C153.392 88.348 152.456 92.758 153.525 96.4842C153.944 97.9852 154.666 99.3847 155.647 100.597C156.628 101.809 157.846 102.808 159.228 103.532C161.362 104.598 163.799 104.896 166.127 104.378C168.456 103.859 170.534 102.554 172.012 100.684C173.489 98.8137 174.276 96.4919 174.239 94.11C174.202 91.7281 173.343 89.4319 171.808 87.6083H171.822Z" fill="#D3ED8C"/>
<path d="M190.469 98.7036C193.174 96.4149 194.746 92.1025 193.299 88.6694C192.153 85.941 189.476 84.4199 186.849 83.7849C184.43 83.1987 181.768 83.2267 179.629 84.6222C177.022 86.3179 175.617 89.9743 176.135 93.2958C176.381 94.8893 177.042 96.3903 178.051 97.649C179.061 98.9077 180.383 99.8801 181.886 100.469C183.347 100.945 184.907 101.032 186.412 100.723C187.917 100.413 189.315 99.7172 190.469 98.7036V98.7036Z" fill="#D3ED8C"/>
<path d="M158.459 98.961C156.363 96.8676 154.839 93.8462 155.391 90.9155C160.905 90.289 166.459 90.0907 172.004 90.3223C172.459 91.7231 172.577 93.211 172.348 94.6657C172.12 96.1205 171.552 97.5011 170.69 98.6958C169.793 99.8705 168.581 100.767 167.194 101.282C165.808 101.797 164.303 101.909 162.855 101.606C161.179 101.133 159.661 100.22 158.459 98.961V98.961Z" fill="white"/>
<path d="M191.665 90.7338C187.054 89.7155 182.303 89.4913 177.617 90.0709C177.31 91.1197 177.246 92.2242 177.429 93.3014C177.612 94.3786 178.037 95.4003 178.673 96.2896C179.308 97.179 180.138 97.9127 181.098 98.4357C182.059 98.9586 183.126 99.2571 184.219 99.3087C185.312 99.3603 186.403 99.1636 187.409 98.7334C188.414 98.3033 189.31 97.6509 190.026 96.8254C190.743 95.9999 191.263 95.0228 191.547 93.9676C191.831 92.9125 191.871 91.8068 191.665 90.7338V90.7338Z" fill="white"/>
<path d="M165.623 90.0854L158.635 90.5529C158.435 92.3414 158.75 94.1496 159.543 95.7654C159.82 96.4059 160.267 96.9584 160.836 97.3634C161.375 97.6637 161.994 97.7894 162.607 97.7231C163.221 97.6569 163.799 97.4019 164.261 96.9935C165.173 96.1511 165.73 94.9935 165.819 93.7558C165.915 92.5291 165.849 91.2951 165.623 90.0854V90.0854Z" fill="#703523"/>
<path d="M181.209 94.6695C181.464 95.3212 181.939 95.864 182.551 96.2047C183.019 96.3779 183.529 96.4039 184.013 96.2792C184.496 96.1544 184.93 95.8849 185.256 95.5069C185.892 94.7334 186.275 93.7834 186.353 92.7855C186.483 91.7995 186.56 90.8072 186.584 89.8129C184.617 89.6768 182.644 89.6768 180.678 89.8129C180.305 91.4455 180.492 93.1559 181.209 94.6695V94.6695Z" fill="#703523"/>
<path d="M181.656 91.0763C181.334 90.9557 180.987 90.9187 180.648 90.9687C180.308 91.0187 179.986 91.1542 179.713 91.3624C179.573 91.4531 179.459 91.5772 179.379 91.7235C179.3 91.8697 179.259 92.0334 179.259 92.1998C179.294 92.6114 179.748 92.7789 180.111 92.737C180.213 92.7787 180.318 92.8092 180.426 92.8278C180.679 92.8534 180.935 92.8172 181.171 92.7224C181.407 92.6276 181.617 92.477 181.782 92.2835C182.103 91.9137 182.166 91.2857 181.656 91.0763Z" fill="white"/>
<path d="M160.537 92.4439C160.201 91.788 159.216 91.8857 158.67 92.1787C158.104 92.2095 157.573 92.4599 157.189 92.8765C156.658 93.4836 156.804 94.2721 157.65 94.4466C158.329 94.5282 159.016 94.4093 159.628 94.1046C160.201 93.8744 160.872 93.0928 160.537 92.4439Z" fill="white"/>
<path d="M131.944 158.972C128.059 150.403 118.917 146.125 110.37 143.537C102.242 141.052 93.4904 141.578 85.7197 145.016C70.973 151.373 59.3295 170.234 62.0272 186.332C64.5153 201.209 81.1489 211.801 95.4552 205.598C103.8 201.976 107.721 193.882 107.099 185.013C106.749 179.961 104.806 174.993 102.808 170.401C101.41 167.122 98.8868 163.919 94.98 163.905C86.0062 163.905 81.1 174.728 81.2957 182.494C81.3373 183.356 81.5612 184.2 81.9526 184.97C82.344 185.739 82.8941 186.418 83.5667 186.96C84.2393 187.502 85.0192 187.897 85.8552 188.117C86.6912 188.337 87.5644 188.378 88.4174 188.237C92.6736 187.504 93.1978 183.171 95.5601 180.387C96.7971 178.921 94.5746 178.189 93.5123 179.131C92.4645 180.079 91.5521 181.166 90.8006 182.362C90.2695 183.171 89.8012 183.967 89.2001 184.727C87.9981 186.234 86.125 183.625 85.7057 182.941C84.3498 180.673 85.7057 177.233 86.4046 174.965C87.3131 172.055 88.5781 169.055 91.3318 167.45C96.8251 164.247 99.4389 172.879 100.704 176.388C102.549 181.475 103.499 186.855 102.584 192.249C100.865 202.158 90.6119 205.724 81.7639 203.212C73.2654 200.797 67.0872 192.745 65.4308 184.287C63.6067 174.832 68.0447 164.135 73.6917 156.725C79.9818 148.442 90.0179 143.467 100.466 144.004C110.251 144.513 122.439 150.11 127.416 158.79C132.133 167.031 132.923 178.287 132.559 187.567C132.217 196.52 129.407 204.572 127.017 213.092C126.647 214.397 128.722 213.72 129.114 213.127C134.237 205.368 136.166 195.522 136.676 186.367C137.186 177.212 135.781 167.394 131.944 158.972Z" fill="#18AA91"/>
<path d="M99.4387 222.911C91.2337 222.785 83.0916 222.436 74.9775 220.992C71.3521 220.32 67.791 219.34 64.3333 218.061C60.741 216.756 57.5401 214.502 53.9408 213.309C53.6822 213.225 52.9134 213.525 53.179 213.895C56.967 219.149 65.7591 221.145 71.7556 222.401C80.7293 224.285 90.0526 223.978 99.1731 223.922C99.844 223.915 100.305 222.924 99.4387 222.911Z" fill="#18AA91"/>
<path d="M159.278 163.528C159.187 163.019 158.327 163.326 158.271 163.717C157.391 169.766 158.048 175.935 157.146 182.013C156.255 187.968 153.833 193.592 150.115 198.334C149.633 198.962 150.591 199.101 150.961 198.69C154.707 194.594 156.776 189.332 158.097 184.036C159.662 177.714 160.417 169.934 159.278 163.528Z" fill="#18AA91"/>
<path d="M111.69 135.357C115.185 134.36 119.259 132.315 119.378 128.68C119.462 125.693 116.708 123.418 114.003 122.127C107.811 119.169 100.669 118.743 93.8544 119.566C81.2772 121.077 69.5187 126.581 60.3118 135.269C51.105 143.956 44.9368 155.367 42.7165 167.819C41.8918 172.466 41.7031 177.588 44.1981 181.586C45.3443 183.435 47.3012 185.075 49.4747 184.845C52.2284 184.587 53.8568 181.698 54.8981 179.137C58.9727 169.117 61.7543 158.022 69.491 150.458C74.9004 145.161 82.1969 142.217 89.5282 140.312C96.8596 138.407 104.401 137.423 111.69 135.357Z" fill="#73F9E5"/>
<path d="M82.1054 157.848C81.0665 158.242 80.1386 158.881 79.4006 159.711C78.7018 160.59 78.5829 161.972 79.4006 162.746C80.3791 163.702 81.9865 163.221 83.2725 162.746C90.2605 160.309 97.9073 160.558 104.722 163.444C106.727 164.303 108.67 165.398 110.816 165.803C112.961 166.207 115.45 165.803 116.791 164.058C118.343 162.077 117.812 159.055 116.239 157.08C114.667 155.106 112.311 153.975 110.012 152.949C106.238 151.268 102.324 149.705 98.1799 149.544C94.0354 149.384 89.6394 150.877 87.2632 154.254L82.1054 157.848Z" fill="#73F9E5"/>
<path d="M116.058 191.768C114.018 191.447 111.991 192.585 110.6 194.099C109.209 195.613 108.28 197.49 107.162 199.221C104.858 202.73 101.76 205.65 98.1177 207.745C94.4757 209.839 90.3916 211.05 86.1948 211.278C84.6642 211.348 83.0917 211.278 81.666 211.865C80.2403 212.451 79.0242 213.846 79.2688 215.354C79.5134 216.861 81.2257 217.866 82.7633 218.403C89.522 220.768 96.9117 220.597 103.554 217.923C110.196 215.248 115.637 210.253 118.861 203.868C119.958 201.705 120.797 199.297 120.489 196.89C120.182 194.483 118.449 192.166 116.058 191.768Z" fill="#73F9E5"/>
<path d="M133.349 149.405C137.71 156.911 140.057 165.415 140.163 174.093C140.065 175.738 140.237 177.388 140.673 178.977C141.225 180.519 142.56 181.922 144.167 181.985C146.362 182.061 147.914 179.891 148.787 177.875C153.582 166.822 150.346 152.824 141.183 144.988C140.462 144.271 139.55 143.774 138.555 143.557C138.059 143.468 137.548 143.559 137.114 143.815C136.68 144.072 136.353 144.476 136.193 144.953L133.349 149.405Z" fill="#73F9E5"/>
<path d="M75.6624 179.319C75.1796 179.118 74.6493 179.059 74.1341 179.15C73.6189 179.24 73.1403 179.476 72.755 179.829C71.9906 180.545 71.4433 181.461 71.1755 182.473C70.5618 184.394 70.4199 186.433 70.7619 188.419C71.1039 190.406 71.9197 192.281 73.1403 193.886C74.361 195.492 75.9507 196.78 77.7752 197.643C79.5997 198.506 81.6054 198.918 83.6228 198.843C84.6992 198.85 85.7596 198.583 86.7049 198.069C87.176 197.81 87.5764 197.44 87.8713 196.992C88.1661 196.543 88.3463 196.029 88.3962 195.494C88.3711 194.885 88.1999 194.291 87.8971 193.761C87.5943 193.232 87.1687 192.783 86.656 192.452C85.6254 191.8 84.5539 191.215 83.4481 190.7C82.02 189.89 80.7695 188.802 79.7706 187.5C78.7718 186.199 78.045 184.71 77.6333 183.122C77.2419 181.692 76.9833 179.975 75.6624 179.319Z" fill="#73F9E5"/>
<path d="M88.5848 177.812C88.2178 179.157 88.2178 180.576 88.5848 181.922C89.5445 181.53 90.4236 180.965 91.1777 180.254C91.5513 179.894 91.8211 179.441 91.9588 178.941C92.0965 178.442 92.0971 177.914 91.9604 177.414C91.611 176.444 90.318 175.837 89.4654 176.423C89.0173 176.768 88.7055 177.26 88.5848 177.812V177.812Z" fill="#73F9E5"/>
<path d="M96.2029 141.052C92.5477 138.958 91.5133 133.718 91.1988 129.887C90.8354 125.393 92.0165 120.753 93.1907 116.455C93.3165 116.008 92.5407 116.203 92.4289 116.517C90.8144 121.367 89.7102 126.168 90.0806 131.297C90.3462 135.016 91.7719 140.207 95.3782 141.994C95.8814 142.259 96.8459 141.429 96.2029 141.052Z" fill="#18AA91"/>
<path d="M70.8818 154.429C60.692 155.825 55.8487 143.732 55.9605 135.407C55.9605 135.009 55.2197 135.282 55.2057 135.63C54.7794 144.395 59.7904 157.506 70.805 155.406C71.3781 155.294 71.6506 154.324 70.8818 154.429Z" fill="#18AA91"/>
<path d="M62.9012 180.973C56.2338 185.858 48.0707 188.363 40.6275 183.485C40.2222 183.213 39.2298 183.827 39.733 184.183C47.1552 189.71 57.0585 187.33 63.684 181.671C64.4178 181.029 63.5372 180.513 62.9012 180.973Z" fill="#18AA91"/>
<path d="M73.3562 200.35C72.1751 208.207 66.9683 216.036 58.0505 215.311C57.6241 215.311 57.0371 216.008 57.6451 216.057C67.2549 217.041 73.3562 208.842 74.8099 200.224C74.9497 199.366 73.461 199.68 73.3562 200.35Z" fill="#18AA91"/>
<path d="M94.532 203.762C94.0987 203.476 93.0643 204.097 93.5675 204.509C96.4679 206.895 96.1534 210.154 95.6642 213.531C95.3637 215.673 94.3992 222.505 91.5757 222.798C91.1564 222.84 90.8139 223.496 91.4149 223.496C94.7906 223.44 95.8879 218.178 96.5239 215.499C97.4394 211.689 98.334 206.253 94.532 203.762Z" fill="#18AA91"/>
<path d="M123.277 194.998C118.385 191.774 110.788 187.323 104.841 190.372C104.533 190.525 104.463 190.958 104.897 190.951C108.279 190.846 111.061 190.714 114.353 191.886C117.365 192.954 120.209 194.782 122.865 196.526C127.932 199.848 127.981 205.863 127.757 211.299C127.757 211.78 128.687 211.501 128.729 211.117C129.442 204.621 129.176 198.864 123.277 194.998Z" fill="#18AA91"/>
<path d="M125.661 151.708C124.549 150.145 121.516 150.773 119.888 150.926C116.615 151.303 113.437 152.267 110.509 153.773C104.694 156.62 100.249 161.882 97.7818 167.778C97.4184 168.643 98.8092 168.573 99.0748 167.952C100.914 163.655 103.834 159.905 107.552 157.067C109.869 155.379 112.454 154.094 115.198 153.264C115.653 153.117 124.619 151.212 124.64 152.385C124.64 152.838 125.339 152.503 125.451 152.315L125.64 152.022C125.669 151.975 125.686 151.922 125.689 151.867C125.693 151.813 125.683 151.758 125.661 151.708V151.708Z" fill="#18AA91"/>
<path d="M85.754 169.069C81.945 168.762 79.6527 164.75 78.4506 161.533C77.0528 157.862 77.4931 153.613 78.8978 150.033C79.0097 149.747 78.5833 149.796 78.4855 149.977C76.263 153.808 76.0743 157.904 77.3323 162.098C78.3597 165.51 81.4348 170.171 85.4255 169.92C85.8378 169.892 86.4179 169.125 85.754 169.069Z" fill="#18AA91"/>
<path d="M85.0203 185.348C82.3714 193.254 74.9422 195.452 67.2614 195.382C66.898 195.382 66.4437 196.08 66.9818 196.08C74.6697 196.778 84.6289 193.917 86.2922 185.215C86.418 184.455 85.181 184.832 85.0203 185.348Z" fill="#18AA91"/>
<path d="M100.081 182.291C97.6352 181.216 92.6172 180.379 90.5904 182.591C90.2689 182.94 90.7511 183.212 91.0726 183.017C93.4489 181.565 97.6841 182.5 100.074 183.54C102.87 184.747 104.799 187.51 105.596 190.336C105.742 190.86 106.721 190.497 106.609 190.043C106.22 188.325 105.425 186.724 104.289 185.375C103.153 184.026 101.71 182.969 100.081 182.291V182.291Z" fill="#18AA91"/>
<path d="M119.769 148.595C119.685 148.497 119.594 148.4 119.51 148.295C119.4 148.206 119.284 148.127 119.161 148.058C119.028 147.96 118.741 148.135 118.867 148.288C118.93 148.405 119.003 148.517 119.084 148.623L119.391 148.888C119.552 149.028 119.964 148.783 119.769 148.595Z" fill="#18AA91"/>
<path d="M144.489 133.216C141.246 129.824 133.307 133.285 130.127 135.309C127.972 136.727 126.081 138.507 124.536 140.57C122.831 142.747 121.782 147.297 119.085 148.379C118.805 148.49 118.882 148.867 119.196 148.769C122.39 147.771 123.823 143.466 125.738 141.094C127.642 138.72 130.023 136.771 132.727 135.372C135.397 133.976 140.324 132.581 143.112 134.353C143.727 134.702 145.167 133.92 144.489 133.216Z" fill="#18AA91"/>
<path d="M157.852 176.584C156.685 174.567 156.084 172.739 154.203 171.245C152.255 169.682 149.997 168.55 147.578 167.924C142.763 166.933 137.423 168.824 133.558 171.657C133.139 171.964 133.558 172.355 133.95 172.153C138.513 169.745 143.671 167.798 148.717 169.906C150.492 170.647 152.162 171.616 153.686 172.788C155.154 173.932 155.573 175.893 156.74 177.281C157.076 177.686 158.131 177.072 157.852 176.584Z" fill="#18AA91"/>
<path d="M133.943 200.538C133.51 200.538 132.825 201.285 133.503 201.348C135.404 201.536 137.619 203.022 139.094 204.188C140.799 205.583 141.281 207.404 141.002 209.477C140.911 210.175 141.896 209.868 142.106 209.477C144.587 205.116 137.598 200.622 133.943 200.538Z" fill="#18AA91"/>
<path d="M63.907 137.912C64.6059 138.533 65.6962 138.331 66.5978 138.073C71.398 136.688 75.9789 134.635 80.2052 131.974C81.1837 131.36 82.3019 130.327 81.8546 129.253C81.5541 128.492 80.6315 128.199 79.8208 128.066C76.9073 127.63 73.9301 127.983 71.1997 129.088C68.4694 130.192 66.086 132.008 64.2984 134.346C63.8738 134.855 63.566 135.451 63.3968 136.091C63.3164 136.413 63.3212 136.75 63.4106 137.069C63.5001 137.388 63.6711 137.679 63.907 137.912Z" fill="#B8FFF5"/>
<path d="M100.766 125.632C105.717 126.959 110.888 127.263 115.96 126.525C116.659 126.42 117.61 126.05 117.54 125.325C117.496 125.137 117.416 124.961 117.303 124.805C117.19 124.649 117.047 124.517 116.883 124.418C114.647 122.705 112.066 121.498 109.317 120.88C106.568 120.262 103.717 120.248 100.962 120.838C100.253 120.956 99.5765 121.223 98.9773 121.619C98.6783 121.819 98.4358 122.092 98.273 122.412C98.1102 122.732 98.0326 123.089 98.0477 123.448C98.1666 124.683 99.5713 125.311 100.766 125.632Z" fill="#B8FFF5"/>
<path d="M98.1734 152.74C98.3388 152.656 98.4858 152.539 98.6058 152.398C98.7258 152.257 98.8164 152.093 98.8723 151.916C98.9562 151.386 98.432 150.96 97.9498 150.716C96.1732 149.865 94.185 149.554 92.2328 149.823C90.2826 150.083 88.3915 150.676 86.6417 151.574C85.8248 151.914 85.0941 152.431 84.5031 153.088C84.2115 153.42 84.0189 153.827 83.9473 154.262C83.8756 154.698 83.9277 155.144 84.0977 155.552C84.6918 156.731 86.3132 156.877 87.6271 156.738C91.4284 156.333 95.0608 154.956 98.1734 152.74V152.74Z" fill="#B8FFF5"/>
<path d="M91.8418 170.834C90.8886 171.184 90.0422 171.774 89.3846 172.547C88.727 173.319 88.2806 174.249 88.0888 175.244C88.0087 175.517 87.9941 175.804 88.0463 176.083C88.0986 176.362 88.2161 176.624 88.3893 176.849C89.0113 177.477 90.0736 177.121 90.8145 176.654C92.06 175.876 93.1676 174.898 94.0923 173.758C94.3521 173.503 94.55 173.191 94.6711 172.848C94.7923 172.504 94.8333 172.138 94.7912 171.776C94.7011 171.496 94.5377 171.245 94.3177 171.048C94.0978 170.852 93.8294 170.718 93.5401 170.66C92.9688 170.559 92.3806 170.619 91.8418 170.834V170.834Z" fill="#B8FFF5"/>
<path d="M90.7651 143.209C82.6789 144.395 75.8088 149.028 70.1198 154.701C64.0465 160.765 61.9568 169.292 60.7197 177.498C60.587 178.363 61.9987 178.007 62.1175 177.372C63.7529 170.157 65.0948 162.865 69.7634 156.878C74.9562 150.221 82.616 145.874 90.6882 143.858C91.0796 143.767 91.3102 143.132 90.7651 143.209Z" fill="#B8FFF5"/>
<path d="M94.434 162.823C86.9419 165.559 81.6932 169.627 81.3367 178.126C81.2948 178.977 82.9232 178.447 83.0281 177.798C83.6361 174.1 84.4258 170.624 87.2634 167.952C89.36 166.005 92.0927 164.707 94.6017 163.409C94.9861 163.207 94.9162 162.642 94.434 162.823Z" fill="#B8FFF5"/>
<path d="M102.353 182.278C102.004 181.322 100.082 182.278 100.2 183.129C100.815 187.56 100.669 191.461 98.5091 195.494C95.8394 200.469 90.416 202.521 85.1463 203.232C84.748 203.281 84.105 204.014 84.8039 204.105C96.091 205.577 106.19 192.926 102.353 182.278Z" fill="#B8FFF5"/>
<path d="M132.734 171.707C132.098 167.736 130.98 162.859 127.932 160.033C127.751 159.865 127.233 160.081 127.317 160.347C128.338 164.394 129.98 168.127 130.637 172.314C131.275 176.772 131.593 181.27 131.588 185.774C131.713 195.25 129.91 203.861 126.814 212.709C126.66 213.134 127.352 212.925 127.513 212.799C130.406 210.057 131.238 205.48 132.154 201.76C133.29 196.722 133.855 191.573 133.838 186.409C133.897 181.485 133.528 176.566 132.734 171.707Z" fill="#B8FFF5"/>
<path d="M126.954 212.512C125.647 212.512 124.717 214.543 126.472 214.543C127.764 214.543 128.694 212.512 126.954 212.512Z" fill="#B8FFF5"/>
<path d="M47.189 223.168C42.4436 222.981 37.8116 224.645 34.2734 227.808C53.3746 231.488 72.8634 232.756 92.2815 231.583C76.2071 226.104 59.3307 223.338 42.3456 223.398L47.189 223.168Z" fill="#E6F9A2"/>
<path d="M195.914 128.129C192.559 124.012 188.261 120.398 183.089 119.17C177.917 117.942 171.83 119.616 169.013 124.117C166.917 127.467 166.917 131.674 167.035 135.624C167.476 149.51 168.699 163.424 167.699 177.282C166.7 191.14 163.303 205.193 155.35 216.574C154.211 218.207 152.918 220.119 153.498 222.024C154.281 224.592 157.691 225.025 160.368 224.955C166.469 224.787 172.613 224.515 178.539 223.196C184.466 221.878 190.323 219.435 194.886 215.388C199.569 211.201 202.728 205.57 204.671 199.611C206.614 193.652 207.348 187.393 207.816 181.155C208.515 171.902 208.592 162.531 206.928 153.396C205.265 144.262 201.777 135.331 195.914 128.129Z" fill="#E6F9A2"/>
<path d="M181.866 125.394C179.528 125.287 177.231 126.031 175.401 127.487C174.27 128.386 173.268 129.436 172.424 130.606C172.046 131.067 171.669 131.521 171.278 131.967L170.285 132.965C165.701 133.695 164.864 132.844 167.776 130.411C168.07 130.795 168.839 130.411 168.692 129.944C167.378 125.554 163.198 130.641 164.904 133.942C165.938 135.938 168.601 135.338 170.215 134.709C173.71 133.391 176.387 127.913 180.37 128.213C181.992 128.332 184.102 125.478 181.866 125.394Z" fill="#A0D15A"/>
<path d="M197.158 124.082C197.339 124.849 198.555 124.305 198.555 123.67L200.708 123.481C201.44 125.119 200.766 126.44 198.688 127.445C196.696 128.143 194.991 127.166 193.468 126.049C191.881 124.973 190.004 124.403 188.086 124.417C187.31 124.417 185.29 125.91 186.73 126.349C191.364 127.745 199.31 132.113 202.518 125.861C205.139 120.711 196.074 119.406 197.158 124.082Z" fill="#A0D15A"/>
<path d="M186.444 137.242C185.745 135.617 183.32 136.28 182.579 137.543C182.089 137.978 181.691 138.508 181.41 139.1C181.129 139.692 180.97 140.335 180.943 140.99C180.943 142.267 181.195 143.823 182.663 144.046C183.473 144.165 184.759 143.557 184.927 142.65C185.13 142.483 185.325 142.301 185.514 142.113C185.875 141.721 186.153 141.261 186.332 140.759C186.796 139.639 186.835 138.389 186.444 137.242V137.242ZM184.046 140.069C184.03 140.137 184.009 140.205 183.984 140.271C183.953 139.911 183.953 139.549 183.984 139.189C184.013 139.018 184.06 138.849 184.123 138.687C184.156 139.149 184.13 139.613 184.046 140.069V140.069Z" fill="#A0D15A"/>
<g style="mix-blend-mode:screen" opacity="0.4">
<path d="M172.843 91.4041C172.843 92.2135 172.207 92.8625 171.606 93.4068C167.841 96.7736 163.873 99.9079 159.725 102.792C157.768 102.057 155.975 100.945 154.448 99.5194C158.287 94.2131 162.714 89.356 167.643 85.0402C169.353 86.4784 170.88 88.1186 172.193 89.9248C172.551 90.3431 172.777 90.8578 172.843 91.4041Z" fill="white"/>
</g>
<path d="M169.384 84.1196C165.128 81.8239 157.447 83.1217 154.588 87.4341C149.151 91.4743 152.338 100.294 156.979 103.574C162.157 107.23 170.523 105.667 174.213 100.643C178.441 94.8865 175.115 87.2038 169.384 84.1196ZM169.824 101.871C165.274 104.663 159.292 102.82 156.301 98.7662C154.941 96.7381 154.372 94.2834 154.7 91.865C154.729 91.5901 154.775 91.3174 154.84 91.0486C155.037 90.9761 155.217 90.8637 155.369 90.7184C155.52 90.5731 155.64 90.3981 155.721 90.2043C157.531 84.0219 165.547 84.3847 169.698 87.7341C173.85 91.0835 174.828 98.829 169.824 101.871Z" fill="#7C6966"/>
<path d="M154.134 95.6324C153.88 95.5578 153.612 95.5411 153.351 95.5835C153.351 95.5835 153.351 95.5417 153.351 95.4858C153.379 95.3433 153.393 95.1984 153.393 95.0532C153.39 95.0717 153.39 95.0905 153.393 95.1091C153.436 95.0439 153.465 94.97 153.477 94.8927C153.488 94.8154 153.483 94.7364 153.461 94.6613C153.439 94.5862 153.401 94.5168 153.349 94.4579C153.298 94.3991 153.234 94.3522 153.162 94.3205C152.282 93.9298 151.331 94.809 151.003 95.5556C150.799 95.8982 150.708 96.2961 150.743 96.6932C150.778 97.0902 150.937 97.4661 151.198 97.7676C151.528 98.0221 151.925 98.1753 152.341 98.2088C152.757 98.2422 153.173 98.1544 153.54 97.956C153.986 97.7446 154.357 97.4011 154.602 96.9721C154.676 96.8571 154.723 96.7268 154.739 96.5909C154.755 96.4551 154.74 96.3174 154.695 96.1882C154.65 96.0591 154.576 95.9419 154.479 95.8456C154.381 95.7492 154.263 95.6764 154.134 95.6324V95.6324Z" fill="#7C6966"/>
<path d="M153.407 95.0475C153.407 95.1111 153.492 94.9203 153.407 95.0475V95.0475Z" fill="#DDDDDD"/>
<path d="M161.898 142.225C159.569 143.918 157.892 143.723 156.866 141.639C156.49 141.026 156.149 140.393 155.846 139.741C154.87 137.654 154.145 135.459 153.687 133.202C152.942 129.605 152.445 125.961 152.198 122.296C151.827 118.381 151.646 114.453 151.555 110.524C151.457 106.337 152.198 101.669 151.338 97.5661C151.338 97.4196 151.094 97.5173 151.066 97.615C149.465 102.932 150.164 109.352 150.367 114.836C150.485 121.137 151.135 127.416 152.31 133.607C153.134 137.598 154.588 143.153 158.649 144.946C160.745 145.86 163.031 143.976 163.156 141.994C163.149 141.38 161.954 141.778 161.898 142.225Z" fill="#DDDDDD"/>
<path d="M139.729 22.1082C139.734 20.4038 139.349 18.7209 138.601 17.1891C137.854 15.6574 136.765 14.3176 135.418 13.2731C134.072 12.2286 132.503 11.5072 130.833 11.1646C129.164 10.822 127.438 10.8672 125.789 11.2969C125.334 8.54608 124.039 6.00355 122.08 4.01867C120.122 2.03378 117.598 0.703949 114.853 0.211885C112.109 -0.28018 109.28 0.0896741 106.754 1.27063C104.228 2.45158 102.13 4.38567 100.748 6.80717C99.6948 5.69289 98.3317 4.91987 96.8348 4.58789C95.3379 4.25591 93.7758 4.38021 92.3502 4.94473C90.9246 5.50926 89.7009 6.48811 88.837 7.75494C87.9732 9.02177 87.5089 10.5184 87.504 12.0517C87.504 12.1343 87.504 12.2159 87.504 12.2985C84.6956 11.6852 81.7589 12.1822 79.3088 13.6856C76.8586 15.189 75.0853 17.5821 74.36 20.3637C73.6348 23.1453 74.014 26.0996 75.4182 28.6079C76.8223 31.1162 79.1426 32.984 81.8929 33.8199C81.242 36.7836 81.6087 39.8802 82.9337 42.6099C84.2588 45.3396 86.4649 47.5433 89.1962 48.8652C91.9274 50.1872 95.0244 50.5503 97.9874 49.896C100.95 49.2417 103.606 47.6082 105.527 45.259C106.639 47.086 108.253 48.554 110.177 49.4876C112.102 50.4211 114.254 50.7805 116.377 50.5229C118.5 50.2653 120.504 49.4015 122.149 48.0349C123.794 46.6683 125.011 44.8568 125.653 42.8169C127.23 43.6727 129.057 43.949 130.816 43.5976C132.575 43.2463 134.156 42.2895 135.283 40.8937C136.41 39.4979 137.012 37.7513 136.985 35.9575C136.957 34.1637 136.302 32.4362 135.134 31.0752C136.552 30.0482 137.707 28.7006 138.506 27.1423C139.304 25.584 139.723 23.8591 139.729 22.1082V22.1082ZM123.013 31.6907L123.002 31.7062L122.956 31.6587L123.013 31.6907Z" fill="#B3D6E4"/>
<path d="M96.1411 6.73637C94.2991 6.72979 92.5298 7.45479 91.2221 8.75207C89.9144 10.0493 89.1752 11.8128 89.167 13.6548C89.167 13.8768 89.1763 14.0957 89.1959 14.3125C87.3048 13.7026 85.2775 13.6532 83.3589 14.1703C81.4403 14.6874 79.7124 15.7489 78.384 17.2266C77.0555 18.7043 76.1833 20.5351 75.8726 22.4977C75.562 24.4603 75.8262 26.4709 76.6333 28.2867C76.5008 27.6129 76.4351 26.9277 76.4371 26.2411C76.4445 24.6362 76.827 23.0553 77.5541 21.6245C78.2813 20.1938 79.3329 18.9529 80.6249 18.0009C81.917 17.0489 83.4138 16.4123 84.9957 16.1417C86.5776 15.8712 88.2009 15.9743 89.7359 16.4428C90.0395 16.5357 90.3369 16.6431 90.6281 16.7629C90.5523 16.3236 90.5147 15.8786 90.5155 15.4329C90.5155 15.2419 90.5269 15.0519 90.5414 14.8629C90.6271 13.7463 90.9552 12.6617 91.503 11.6849C92.0507 10.708 92.8048 9.86229 93.7127 9.20665C94.6207 8.55102 95.6607 8.10122 96.7602 7.88859C97.8598 7.67596 98.9925 7.70562 100.079 7.97549C98.9234 7.17124 97.5494 6.73895 96.1411 6.73637V6.73637Z" fill="#C3DFE9"/>
<path d="M139.725 22.1079C139.738 19.3055 138.69 16.602 136.791 14.541L136.639 14.6525C136.639 14.6525 128.944 49.9673 83.3203 43.335C84.3982 45.2474 85.9264 46.8681 87.7723 48.0564C89.6181 49.2448 91.726 49.9649 93.9132 50.1544C96.1003 50.3439 98.3006 49.9971 100.323 49.144C102.346 48.2909 104.13 46.9572 105.521 45.2587C106.633 47.0854 108.247 48.5531 110.171 49.4864C112.096 50.4197 114.248 50.7791 116.371 50.5215C118.493 50.2639 120.497 49.4003 122.142 48.0339C123.787 46.6675 125.004 44.8562 125.646 42.8166C127.223 43.6766 129.052 43.9562 130.814 43.6065C132.576 43.2568 134.159 42.3001 135.288 40.903C136.417 39.5059 137.019 37.7571 136.991 35.9611C136.963 34.1652 136.306 32.436 135.134 31.075C136.551 30.0474 137.706 28.6997 138.504 27.1414C139.301 25.5831 139.72 23.8585 139.725 22.1079V22.1079Z" fill="#A6C8DE"/>
<path d="M140.059 45.909C139.921 46.7727 140.026 47.6579 140.363 48.465C140.7 49.2722 141.256 49.9693 141.968 50.478C142.679 50.9867 143.519 51.2869 144.391 51.3448C145.264 51.4026 146.136 51.2159 146.908 50.8055C147.14 51.6117 147.639 52.3148 148.324 52.7992C149.008 53.2835 149.838 53.52 150.675 53.4697C151.512 53.4195 152.307 53.0854 152.929 52.5226C153.551 51.9598 153.962 51.2019 154.095 50.3739C154.141 50.0848 154.153 49.7912 154.13 49.4993C154.61 49.5465 155.094 49.4904 155.55 49.335C156.006 49.1796 156.424 48.9284 156.775 48.5982C157.125 48.268 157.402 47.8666 157.585 47.4208C157.767 46.9751 157.853 46.4954 157.835 46.0139C157.817 45.5324 157.697 45.0603 157.481 44.6293C157.266 44.1983 156.961 43.8184 156.586 43.5151C156.212 43.2119 155.777 42.9922 155.31 42.871C154.844 42.7497 154.357 42.7297 153.883 42.8122C153.69 41.8145 153.18 40.9059 152.428 40.2225C151.676 39.539 150.723 39.1176 149.711 39.0212C148.7 38.9248 147.684 39.1587 146.817 39.6878C145.949 40.2169 145.276 41.0127 144.899 41.9562C143.748 41.9078 142.619 42.2835 141.727 43.0122C140.835 43.7408 140.242 44.7716 140.059 45.909Z" fill="#B3D6E4"/>
<path d="M145.732 43.617C146.148 42.5474 146.907 41.646 147.89 41.0543C148.873 40.4626 150.025 40.2141 151.165 40.3478C150.64 40.0532 150.058 39.8749 149.458 39.825C148.858 39.7751 148.254 39.8547 147.688 40.0585C147.122 40.2623 146.606 40.5855 146.175 41.0062C145.744 41.4268 145.409 41.9351 145.192 42.4966C144.635 42.4786 144.079 42.5719 143.557 42.7711C143.036 42.9703 142.559 43.2714 142.156 43.6568C141.752 44.0422 141.429 44.5041 141.206 45.0157C140.982 45.5273 140.863 46.0782 140.855 46.6363C141.281 45.7088 141.971 44.9276 142.838 44.3904C143.706 43.8533 144.713 43.5843 145.732 43.617V43.617Z" fill="#C3DFE9"/>
<path d="M157.791 46.6748C157.88 46.1184 157.828 45.5484 157.64 45.017C157.453 44.4856 157.135 44.0097 156.716 43.6328C155.593 46.0429 151.672 52.1001 141.278 49.88C141.985 50.6302 142.918 51.1276 143.935 51.2955C144.951 51.4634 145.995 51.2926 146.905 50.8094C147.136 51.6155 147.636 52.3187 148.32 52.803C149.005 53.2873 149.834 53.5238 150.671 53.4736C151.508 53.4233 152.304 53.0892 152.925 52.5264C153.547 51.9636 153.959 51.2057 154.092 50.3777C154.138 50.0886 154.15 49.795 154.127 49.5031C154.983 49.587 155.839 49.341 156.52 48.8154C157.2 48.2898 157.655 47.5242 157.791 46.6748V46.6748Z" fill="#A6C8DE"/>
<path d="M173.732 54.315C173.512 53.6842 173.065 53.1576 172.479 52.837C171.893 52.5163 171.208 52.4245 170.558 52.5793C170.542 52.5111 170.523 52.4438 170.499 52.3779C170.343 51.9312 170.038 51.552 169.635 51.3043C169.232 51.0566 168.756 50.9555 168.287 51.0181C167.818 51.0807 167.385 51.3032 167.061 51.648C166.737 51.9928 166.542 52.4388 166.509 52.9107C166.126 52.9375 165.753 53.0459 165.414 53.2287C165.076 53.4115 164.781 53.6645 164.549 53.9707C164.316 54.2769 164.152 54.6292 164.067 55.004C163.982 55.3788 163.978 55.7676 164.055 56.1441C164.133 56.5206 164.289 56.8762 164.515 57.1871C164.741 57.4981 165.031 57.7571 165.366 57.9468C165.7 58.1366 166.071 58.2527 166.454 58.2874C166.836 58.3221 167.222 58.2746 167.585 58.148C167.613 58.1387 167.638 58.1264 167.665 58.116C167.808 58.366 168.023 58.5677 168.281 58.6954C168.539 58.8231 168.83 58.8711 169.116 58.8332C169.401 58.7954 169.669 58.6734 169.886 58.4828C170.102 58.2922 170.256 58.0416 170.33 57.7629C170.808 57.9229 171.322 57.9455 171.812 57.8281C172.303 57.7108 172.75 57.4581 173.104 57.0989C173.458 56.7397 173.705 56.2884 173.815 55.7963C173.925 55.3041 173.895 54.791 173.728 54.315H173.732Z" fill="#B3D6E4"/>
<path d="M166.642 53.9743C166.867 53.8967 167.1 53.8495 167.337 53.8338C167.357 53.544 167.439 53.2618 167.577 53.0063C167.716 52.7508 167.907 52.5278 168.138 52.3524C168.37 52.1769 168.636 52.0532 168.92 51.9893C169.203 51.9255 169.497 51.9232 169.781 51.9824C169.517 51.7732 169.2 51.64 168.865 51.5971C168.531 51.5542 168.191 51.6032 167.882 51.7388C167.573 51.8744 167.307 52.0916 167.112 52.367C166.917 52.6424 166.801 52.9656 166.776 53.3021C166.56 53.3172 166.348 53.3602 166.144 53.4301C165.841 53.5358 165.562 53.7001 165.323 53.9136C165.084 54.1271 164.89 54.3857 164.751 54.6745C164.612 54.9632 164.531 55.2766 164.514 55.5965C164.496 55.9165 164.541 56.2369 164.647 56.5392C164.713 56.7252 164.801 56.9025 164.91 57.0669C164.772 56.4288 164.872 55.7622 165.191 55.1926C165.51 54.623 166.026 54.1897 166.642 53.9743V53.9743Z" fill="#C3DFE9"/>
<path d="M173.732 54.315C173.653 54.0884 173.543 53.8734 173.407 53.6758C172.148 55.8484 170.1 57.4516 167.688 58.1511C167.837 58.3938 168.054 58.5875 168.311 58.7081C168.569 58.8288 168.856 58.8711 169.138 58.8297C169.419 58.7883 169.683 58.6652 169.895 58.4755C170.107 58.2858 170.258 58.038 170.331 57.7628C170.809 57.9228 171.323 57.9454 171.813 57.828C172.304 57.7107 172.751 57.458 173.105 57.0988C173.459 56.7396 173.706 56.2883 173.816 55.7962C173.926 55.3041 173.896 54.7909 173.729 54.315H173.732Z" fill="#A6C8DE"/>
</svg>
