<svg width="144" height="88" viewBox="0 0 144 88" fill="none" xmlns="http://www.w3.org/2000/svg">
<circle cx="21" cy="74" r="3" fill="#FF7098"/>
<circle cx="132.5" cy="55.5" r="5.5" fill="#FF7098"/>
<circle cx="113" cy="73" r="2" fill="#FDBD04"/>
<path d="M7 56L8.35045 59.6495L12 61L8.35045 62.3505L7 66L5.64955 62.3505L2 61L5.64955 59.6495L7 56Z" fill="#47D580"/>
<circle cx="127" cy="27" r="3" fill="#FDBD04"/>
<circle cx="16" cy="40" r="4" fill="#FDBD04"/>
<path d="M119.152 6L120.493 9.64955L124.117 11L120.493 12.3505L119.152 16L117.811 12.3505L114.186 11L117.811 9.64955L119.152 6Z" fill="#47D580"/>
<ellipse cx="18.3517" cy="10.5" rx="5.46207" ry="5.5" fill="#CA91FC"/>
<circle cx="72" cy="44" r="43.5" fill="#CA91FC" stroke="#CA91FC"/>
<path d="M114.25 44C114.25 67.1118 95.3355 85.85 72.0001 85.85C48.6647 85.85 29.7501 67.1118 29.7501 44C29.7501 20.8882 48.6647 2.15 72.0001 2.15C95.3355 2.15 114.25 20.8882 114.25 44Z" fill="#FFEDF6" stroke="#CA91FC" stroke-width="0.3"/>
<path d="M110.618 44C110.618 65.1227 93.3306 82.25 72.0009 82.25C50.6713 82.25 33.3843 65.1227 33.3843 44C33.3843 22.8773 50.6713 5.75 72.0009 5.75C93.3306 5.75 110.618 22.8773 110.618 44Z" fill="#FFEDF6" stroke="#CA91FC" stroke-width="0.5"/>
<path d="M48.0807 74.345C52.6111 77.8491 57.8697 80.3143 63.4777 81.5629C69.0856 82.8115 74.9034 82.8124 80.5118 81.5656L72.0009 44L48.0807 74.345Z" fill="#CA91FC"/>
<path d="M40.4573 21.5071C37.4753 25.6104 35.3385 30.2553 34.1687 35.1766C32.999 40.0979 32.8193 45.1993 33.6398 50.1894L72.0009 44L40.4573 21.5071Z" fill="#CA91FC"/>
<path d="M64.2019 6.28308C70.2107 5.06391 76.4255 5.27074 82.3381 6.88666C88.2508 8.50258 93.6934 11.4817 98.221 15.5805L72.0009 44L64.2019 6.28308Z" fill="#CA91FC"/>
<path d="M110.428 38.223C111.974 48.3182 109.409 58.6086 103.297 66.8304L72.0009 44L110.428 38.223Z" fill="#CA91FC"/>
<path d="M75.4325 44C75.4325 45.8769 73.8962 47.4 71.9991 47.4C70.1021 47.4 68.5658 45.8769 68.5658 44C68.5658 42.1231 70.1021 40.6 71.9991 40.6C73.8962 40.6 75.4325 42.1231 75.4325 44Z" fill="#FFEDF6" stroke="#CA91FC" stroke-width="0.2"/>
</svg>
