<svg width="298" height="298" viewBox="0 0 298 298" fill="none" xmlns="http://www.w3.org/2000/svg">
<g filter="url(#filter0_ddd)">
<path d="M149 19.0282C149 12.4008 154.382 6.97517 160.985 7.53853C175.395 8.76783 189.553 12.2088 202.958 17.7612C216.363 23.3136 228.808 30.8923 239.866 40.2119C244.934 44.4829 244.903 52.1251 240.217 56.8114L149 148.028L149 19.0282Z" fill="#F8ECF0"/>
</g>
<path fill-rule="evenodd" clip-rule="evenodd" d="M183.854 62.8223L177.143 50.6298C176.404 49.2857 176.01 47.7386 176.142 46.1745C176.684 39.7517 184.886 35.553 189.72 40.9554C189.832 41.0805 189.942 41.2095 190.048 41.343L191.954 43.7205L194.987 43.4375C195.157 43.4215 195.326 43.4105 195.493 43.4039C202.738 43.1245 205.421 51.9398 201.181 56.7943C200.149 57.9765 198.763 58.7686 197.282 59.1712L183.854 62.8223Z" fill="#FF7098"/>
<path fill-rule="evenodd" clip-rule="evenodd" d="M171.253 94.248L166.939 86.4101C166.464 85.5461 166.21 84.5515 166.295 83.546C166.643 79.417 171.916 76.7178 175.024 80.1908C175.096 80.2712 175.166 80.3541 175.235 80.4399L176.46 81.9683L178.41 81.7863C178.519 81.7761 178.628 81.769 178.735 81.7647C183.392 81.5851 185.118 87.252 182.392 90.3728C181.728 91.1328 180.837 91.642 179.886 91.9008L171.253 94.248Z" fill="#FF7098"/>
<path fill-rule="evenodd" clip-rule="evenodd" d="M177.093 80.0779L171.821 70.4981C171.24 69.4421 170.93 68.2265 171.034 66.9976C171.459 61.951 177.904 58.652 181.703 62.8967C181.79 62.995 181.876 63.0964 181.96 63.2013L183.457 65.0693L185.84 64.8469C185.974 64.8343 186.107 64.8257 186.238 64.8205C191.93 64.6009 194.039 71.5271 190.707 75.3414C189.896 76.2704 188.807 76.8927 187.644 77.209L177.093 80.0779Z" fill="#FF7098"/>
<g filter="url(#filter1_ddd)">
<path d="M278 147.767C284.628 147.769 290.055 142.388 289.493 135.784C288.268 121.375 284.831 107.215 279.282 93.8087C273.734 80.4024 266.159 67.9553 256.842 56.8946C252.573 51.8257 244.93 51.8542 240.243 56.5392L149 147.73L278 147.767Z" fill="#FF7098"/>
</g>
<path fill-rule="evenodd" clip-rule="evenodd" d="M233.351 112.867L237.074 99.4575C237.485 97.9794 238.284 96.5974 239.472 95.5713C244.349 91.3574 253.149 94.0892 252.83 101.332C252.822 101.5 252.81 101.669 252.794 101.839L252.494 104.871L254.861 106.789C254.994 106.897 255.122 107.007 255.247 107.119C260.622 111.984 256.379 120.164 249.954 120.671C248.39 120.794 246.845 120.392 245.505 119.645L233.351 112.867Z" fill="white"/>
<path fill-rule="evenodd" clip-rule="evenodd" d="M216.198 120.185L219.124 109.649C219.446 108.487 220.074 107.401 221.008 106.595C224.839 103.284 231.753 105.43 231.503 111.122C231.497 111.253 231.488 111.386 231.475 111.519L231.239 113.902L233.099 115.409C233.203 115.493 233.304 115.58 233.402 115.668C237.626 119.491 234.292 125.917 229.244 126.316C228.015 126.413 226.801 126.097 225.748 125.51L216.198 120.185Z" fill="white"/>
<g filter="url(#filter2_ddd)">
<path d="M278 148.065C284.627 148.066 290.051 153.45 289.486 160.053C288.253 174.462 284.808 188.62 279.252 202.023C273.695 215.426 266.113 227.869 256.79 238.925C252.518 243.991 244.876 243.958 240.191 239.271L149 148.028L278 148.065Z" fill="#F8ECF0"/>
</g>
<path d="M149 277.028C149 283.656 154.382 289.081 160.986 288.518C175.395 287.289 189.554 283.848 202.958 278.295C216.363 272.743 228.808 265.164 239.866 255.844C244.934 251.574 244.903 243.931 240.217 239.245L149 148.028V277.028Z" fill="#FF7098"/>
<path fill-rule="evenodd" clip-rule="evenodd" d="M184.036 232.536L197.425 236.33C198.9 236.749 200.278 237.555 201.298 238.748C205.486 243.648 202.709 252.434 195.468 252.078C195.301 252.069 195.132 252.056 194.962 252.039L191.932 251.723L190.001 254.08C189.893 254.213 189.782 254.341 189.669 254.464C184.777 259.815 176.621 255.53 176.147 249.101C176.031 247.536 176.442 245.993 177.196 244.657L184.036 232.536Z" fill="white"/>
<g filter="url(#filter3_ddd)">
<path d="M149 277.028C149 283.656 143.618 289.081 137.014 288.518C122.605 287.289 108.446 283.848 95.0415 278.295C81.6368 272.743 69.1919 265.164 58.1338 255.844C53.0661 251.574 53.0968 243.931 57.7831 239.245L149 148.028V277.028Z" fill="#F8ECF0"/>
</g>
<path fill-rule="evenodd" clip-rule="evenodd" d="M113.925 232.482L120.628 244.679C121.366 246.023 121.759 247.57 121.626 249.134C121.08 255.557 112.875 259.75 108.044 254.344C107.932 254.219 107.823 254.09 107.716 253.957L105.813 251.578L102.779 251.859C102.609 251.875 102.44 251.886 102.273 251.892C95.0282 252.167 92.3508 243.35 96.5939 238.498C97.6271 237.316 99.0138 236.525 100.494 236.124L113.925 232.482Z" fill="#FF7098"/>
<path fill-rule="evenodd" clip-rule="evenodd" d="M127.085 200.53L131.393 208.37C131.868 209.235 132.121 210.23 132.035 211.235C131.684 215.364 126.409 218.059 123.304 214.584C123.232 214.504 123.162 214.421 123.093 214.335L121.869 212.806L119.919 212.986C119.81 212.996 119.701 213.003 119.594 213.008C114.936 213.184 113.215 207.516 115.943 204.397C116.607 203.637 117.499 203.129 118.45 202.871L127.085 200.53Z" fill="#FF7098"/>
<path fill-rule="evenodd" clip-rule="evenodd" d="M121.221 215.31L126.487 224.894C127.068 225.95 127.376 227.166 127.272 228.395C126.842 233.441 120.396 236.735 116.6 232.488C116.512 232.39 116.426 232.288 116.342 232.183L114.847 230.314L112.463 230.535C112.33 230.548 112.197 230.556 112.065 230.561C106.373 230.777 104.27 223.849 107.604 220.037C108.416 219.109 109.505 218.487 110.668 218.172L121.221 215.31Z" fill="#FF7098"/>
<path fill-rule="evenodd" clip-rule="evenodd" d="M131.381 190.357L134.253 195.585C134.57 196.161 134.738 196.824 134.681 197.494C134.447 200.247 130.931 202.044 128.86 199.727C128.812 199.673 128.766 199.618 128.72 199.561L127.904 198.541L126.604 198.662C126.531 198.669 126.459 198.673 126.387 198.676C123.282 198.794 122.135 195.015 123.953 192.936C124.396 192.429 124.99 192.09 125.625 191.918L131.381 190.357Z" fill="#FF7098"/>
<path d="M19.9999 148.025C13.3725 148.027 7.94839 153.41 8.51361 160.014C9.74698 174.423 13.1919 188.58 18.7481 201.983C24.3043 215.387 31.8865 227.829 41.2093 238.885C45.4817 243.951 53.1239 243.918 57.8089 239.231L149 147.988L19.9999 148.025Z" fill="#FF7098"/>
<path fill-rule="evenodd" clip-rule="evenodd" d="M63.7352 182.971L59.9079 196.352C59.4858 197.827 58.6757 199.203 57.48 200.22C52.5706 204.396 43.7923 201.596 44.1672 194.355C44.176 194.188 44.1892 194.019 44.2075 193.849L44.5304 190.82L42.1785 188.883C42.0464 188.775 41.9189 188.663 41.7953 188.55C36.4575 183.644 40.7635 175.497 47.1923 175.04C48.7578 174.928 50.2994 175.343 51.6335 176.1L63.7352 182.971Z" fill="white"/>
<g filter="url(#filter4_ddd)">
<path d="M20.0001 148.025C13.3727 148.027 7.94555 142.646 8.50705 136.042C9.73227 121.633 13.1692 107.473 18.7178 94.0667C24.2665 80.6604 31.8416 68.2134 41.1581 57.1526C45.4277 52.0837 53.0699 52.1123 57.7575 56.7973L149 147.988L20.0001 148.025Z" fill="#F8ECF0"/>
</g>
<path fill-rule="evenodd" clip-rule="evenodd" d="M63.9039 112.952L51.7495 119.73C50.4096 120.477 48.8648 120.879 47.3002 120.756C40.8752 120.249 36.6324 112.069 42.0078 107.204C42.1322 107.092 42.2606 106.982 42.3936 106.874L44.7604 104.956L44.4609 101.924C44.444 101.754 44.432 101.585 44.4245 101.417C44.1057 94.1738 52.9053 91.4423 57.7823 95.6561C58.97 96.6822 59.7695 98.0642 60.1801 99.5423L63.9039 112.952Z" fill="#FF7098"/>
<path fill-rule="evenodd" clip-rule="evenodd" d="M81.0252 120.185L71.4751 125.51C70.4224 126.097 69.2086 126.413 67.9792 126.316C62.931 125.917 59.5976 119.49 63.8212 115.668C63.919 115.58 64.0199 115.493 64.1243 115.409L65.984 113.902L65.7487 111.519C65.7354 111.386 65.726 111.253 65.7201 111.122C65.4698 105.43 72.3838 103.284 76.2156 106.595C77.1489 107.401 77.777 108.487 78.0996 109.649L81.0252 120.185Z" fill="#FF7098"/>
<path d="M149 19.0282C149 12.4008 143.618 6.97517 137.014 7.53853C122.605 8.76783 108.446 12.2088 95.0415 17.7612C81.6368 23.3136 69.1919 30.8923 58.1338 40.2119C53.0661 44.4829 53.0968 52.1251 57.7831 56.8114L149 148.028V19.0282Z" fill="#FF7098"/>
<path fill-rule="evenodd" clip-rule="evenodd" d="M113.64 62.7526L100.276 58.8722C98.8027 58.4443 97.4304 57.6287 96.4183 56.4289C92.2621 51.5026 95.0961 42.7344 102.334 43.1379C102.502 43.1473 102.67 43.1613 102.84 43.1801L105.868 43.515L107.814 41.1705C107.923 41.0388 108.035 40.9117 108.148 40.7886C113.075 35.4696 121.204 39.8081 121.636 46.2393C121.741 47.8055 121.32 49.3456 120.558 50.6768L113.64 62.7526Z" fill="white"/>
<path opacity="0.7" d="M149 69.0282L160.548 120.15L204.861 92.1668L176.878 136.481L228 148.028L176.878 159.576L204.861 203.89L160.548 175.907L149 227.028L137.452 175.907L93.1386 203.89L121.122 159.576L70 148.028L121.122 136.481L93.1386 92.1668L137.452 120.15L149 69.0282Z" fill="#F5B7C9"/>
<defs>
<filter id="filter0_ddd" x="141" y="0.498291" width="110.7" height="156.53" filterUnits="userSpaceOnUse" color-interpolation-filters="sRGB">
<feFlood flood-opacity="0" result="BackgroundImageFix"/>
<feColorMatrix in="SourceAlpha" type="matrix" values="0 0 0 0 0 0 0 0 0 0 0 0 0 0 0 0 0 0 127 0"/>
<feOffset dy="1"/>
<feGaussianBlur stdDeviation="4"/>
<feColorMatrix type="matrix" values="0 0 0 0 0.639216 0 0 0 0 0.639216 0 0 0 0 0.639216 0 0 0 0.08 0"/>
<feBlend mode="normal" in2="BackgroundImageFix" result="effect1_dropShadow"/>
<feColorMatrix in="SourceAlpha" type="matrix" values="0 0 0 0 0 0 0 0 0 0 0 0 0 0 0 0 0 0 127 0"/>
<feOffset dy="4"/>
<feGaussianBlur stdDeviation="2"/>
<feColorMatrix type="matrix" values="0 0 0 0 0.820833 0 0 0 0 0.820833 0 0 0 0 0.820833 0 0 0 0.12 0"/>
<feBlend mode="normal" in2="effect1_dropShadow" result="effect2_dropShadow"/>
<feColorMatrix in="SourceAlpha" type="matrix" values="0 0 0 0 0 0 0 0 0 0 0 0 0 0 0 0 0 0 127 0"/>
<feOffset dy="2"/>
<feGaussianBlur stdDeviation="2"/>
<feColorMatrix type="matrix" values="0 0 0 0 0.937255 0 0 0 0 0.345098 0 0 0 0 0.627451 0 0 0 0.06 0"/>
<feBlend mode="normal" in2="effect2_dropShadow" result="effect3_dropShadow"/>
<feBlend mode="normal" in="SourceGraphic" in2="effect3_dropShadow" result="shape"/>
</filter>
<filter id="filter1_ddd" x="141" y="46.0582" width="156.533" height="110.708" filterUnits="userSpaceOnUse" color-interpolation-filters="sRGB">
<feFlood flood-opacity="0" result="BackgroundImageFix"/>
<feColorMatrix in="SourceAlpha" type="matrix" values="0 0 0 0 0 0 0 0 0 0 0 0 0 0 0 0 0 0 127 0"/>
<feOffset dy="1"/>
<feGaussianBlur stdDeviation="4"/>
<feColorMatrix type="matrix" values="0 0 0 0 0.639216 0 0 0 0 0.639216 0 0 0 0 0.639216 0 0 0 0.08 0"/>
<feBlend mode="normal" in2="BackgroundImageFix" result="effect1_dropShadow"/>
<feColorMatrix in="SourceAlpha" type="matrix" values="0 0 0 0 0 0 0 0 0 0 0 0 0 0 0 0 0 0 127 0"/>
<feOffset dy="4"/>
<feGaussianBlur stdDeviation="2"/>
<feColorMatrix type="matrix" values="0 0 0 0 0.820833 0 0 0 0 0.820833 0 0 0 0 0.820833 0 0 0 0.12 0"/>
<feBlend mode="normal" in2="effect1_dropShadow" result="effect2_dropShadow"/>
<feColorMatrix in="SourceAlpha" type="matrix" values="0 0 0 0 0 0 0 0 0 0 0 0 0 0 0 0 0 0 127 0"/>
<feOffset dy="2"/>
<feGaussianBlur stdDeviation="2"/>
<feColorMatrix type="matrix" values="0 0 0 0 0.937255 0 0 0 0 0.345098 0 0 0 0 0.627451 0 0 0 0.06 0"/>
<feBlend mode="normal" in2="effect2_dropShadow" result="effect3_dropShadow"/>
<feBlend mode="normal" in="SourceGraphic" in2="effect3_dropShadow" result="shape"/>
</filter>
<filter id="filter2_ddd" x="141" y="141.028" width="156.527" height="110.728" filterUnits="userSpaceOnUse" color-interpolation-filters="sRGB">
<feFlood flood-opacity="0" result="BackgroundImageFix"/>
<feColorMatrix in="SourceAlpha" type="matrix" values="0 0 0 0 0 0 0 0 0 0 0 0 0 0 0 0 0 0 127 0"/>
<feOffset dy="1"/>
<feGaussianBlur stdDeviation="4"/>
<feColorMatrix type="matrix" values="0 0 0 0 0.639216 0 0 0 0 0.639216 0 0 0 0 0.639216 0 0 0 0.08 0"/>
<feBlend mode="normal" in2="BackgroundImageFix" result="effect1_dropShadow"/>
<feColorMatrix in="SourceAlpha" type="matrix" values="0 0 0 0 0 0 0 0 0 0 0 0 0 0 0 0 0 0 127 0"/>
<feOffset dy="4"/>
<feGaussianBlur stdDeviation="2"/>
<feColorMatrix type="matrix" values="0 0 0 0 0.820833 0 0 0 0 0.820833 0 0 0 0 0.820833 0 0 0 0.12 0"/>
<feBlend mode="normal" in2="effect1_dropShadow" result="effect2_dropShadow"/>
<feColorMatrix in="SourceAlpha" type="matrix" values="0 0 0 0 0 0 0 0 0 0 0 0 0 0 0 0 0 0 127 0"/>
<feOffset dy="2"/>
<feGaussianBlur stdDeviation="2"/>
<feColorMatrix type="matrix" values="0 0 0 0 0.937255 0 0 0 0 0.345098 0 0 0 0 0.627451 0 0 0 0.06 0"/>
<feBlend mode="normal" in2="effect2_dropShadow" result="effect3_dropShadow"/>
<feBlend mode="normal" in="SourceGraphic" in2="effect3_dropShadow" result="shape"/>
</filter>
<filter id="filter3_ddd" x="46.2998" y="141.028" width="110.7" height="156.53" filterUnits="userSpaceOnUse" color-interpolation-filters="sRGB">
<feFlood flood-opacity="0" result="BackgroundImageFix"/>
<feColorMatrix in="SourceAlpha" type="matrix" values="0 0 0 0 0 0 0 0 0 0 0 0 0 0 0 0 0 0 127 0"/>
<feOffset dy="1"/>
<feGaussianBlur stdDeviation="4"/>
<feColorMatrix type="matrix" values="0 0 0 0 0.639216 0 0 0 0 0.639216 0 0 0 0 0.639216 0 0 0 0.08 0"/>
<feBlend mode="normal" in2="BackgroundImageFix" result="effect1_dropShadow"/>
<feColorMatrix in="SourceAlpha" type="matrix" values="0 0 0 0 0 0 0 0 0 0 0 0 0 0 0 0 0 0 127 0"/>
<feOffset dy="4"/>
<feGaussianBlur stdDeviation="2"/>
<feColorMatrix type="matrix" values="0 0 0 0 0.820833 0 0 0 0 0.820833 0 0 0 0 0.820833 0 0 0 0.12 0"/>
<feBlend mode="normal" in2="effect1_dropShadow" result="effect2_dropShadow"/>
<feColorMatrix in="SourceAlpha" type="matrix" values="0 0 0 0 0 0 0 0 0 0 0 0 0 0 0 0 0 0 127 0"/>
<feOffset dy="2"/>
<feGaussianBlur stdDeviation="2"/>
<feColorMatrix type="matrix" values="0 0 0 0 0.937255 0 0 0 0 0.345098 0 0 0 0 0.627451 0 0 0 0.06 0"/>
<feBlend mode="normal" in2="effect2_dropShadow" result="effect3_dropShadow"/>
<feBlend mode="normal" in="SourceGraphic" in2="effect3_dropShadow" result="shape"/>
</filter>
<filter id="filter4_ddd" x="0.467041" y="46.3163" width="156.533" height="110.708" filterUnits="userSpaceOnUse" color-interpolation-filters="sRGB">
<feFlood flood-opacity="0" result="BackgroundImageFix"/>
<feColorMatrix in="SourceAlpha" type="matrix" values="0 0 0 0 0 0 0 0 0 0 0 0 0 0 0 0 0 0 127 0"/>
<feOffset dy="1"/>
<feGaussianBlur stdDeviation="4"/>
<feColorMatrix type="matrix" values="0 0 0 0 0.639216 0 0 0 0 0.639216 0 0 0 0 0.639216 0 0 0 0.08 0"/>
<feBlend mode="normal" in2="BackgroundImageFix" result="effect1_dropShadow"/>
<feColorMatrix in="SourceAlpha" type="matrix" values="0 0 0 0 0 0 0 0 0 0 0 0 0 0 0 0 0 0 127 0"/>
<feOffset dy="4"/>
<feGaussianBlur stdDeviation="2"/>
<feColorMatrix type="matrix" values="0 0 0 0 0.820833 0 0 0 0 0.820833 0 0 0 0 0.820833 0 0 0 0.12 0"/>
<feBlend mode="normal" in2="effect1_dropShadow" result="effect2_dropShadow"/>
<feColorMatrix in="SourceAlpha" type="matrix" values="0 0 0 0 0 0 0 0 0 0 0 0 0 0 0 0 0 0 127 0"/>
<feOffset dy="2"/>
<feGaussianBlur stdDeviation="2"/>
<feColorMatrix type="matrix" values="0 0 0 0 0.937255 0 0 0 0 0.345098 0 0 0 0 0.627451 0 0 0 0.06 0"/>
<feBlend mode="normal" in2="effect2_dropShadow" result="effect3_dropShadow"/>
<feBlend mode="normal" in="SourceGraphic" in2="effect3_dropShadow" result="shape"/>
</filter>
</defs>
</svg>
