<svg width="340" height="340" viewBox="0 0 340 340" fill="none" xmlns="http://www.w3.org/2000/svg">
<g filter="url(#filter0_ddd)">
<g filter="url(#filter1_ddd)">
<path d="M170 41C170 34.3726 175.382 28.947 181.985 29.5103C196.395 30.7396 210.553 34.1806 223.958 39.733C237.363 45.2854 249.808 52.8641 260.866 62.1837C265.934 66.4547 265.903 74.0969 261.217 78.7832L170 170L170 41Z" fill="#F8ECF0"/>
</g>
<path fill-rule="evenodd" clip-rule="evenodd" d="M204.889 84.7991L198.177 72.6056C197.438 71.2613 197.043 69.7141 197.176 68.1498C197.718 61.7264 205.921 57.5274 210.757 62.9303C210.869 63.0553 210.978 63.1844 211.085 63.3179L212.991 65.6956L216.024 65.4126C216.195 65.3966 216.364 65.3856 216.531 65.3789C223.777 65.0995 226.461 73.9156 222.22 78.7706C221.187 79.953 219.801 80.7451 218.32 81.1477L204.889 84.7991Z" fill="#CA91FC"/>
<path fill-rule="evenodd" clip-rule="evenodd" d="M192.286 116.228L187.971 108.389C187.495 107.525 187.242 106.53 187.327 105.525C187.675 101.396 192.949 98.6961 196.058 102.169C196.13 102.25 196.2 102.333 196.269 102.419L197.494 103.947L199.444 103.765C199.553 103.755 199.662 103.748 199.77 103.743C204.428 103.564 206.153 109.231 203.427 112.352C202.763 113.112 201.872 113.622 200.92 113.881L192.286 116.228Z" fill="#CA91FC"/>
<path fill-rule="evenodd" clip-rule="evenodd" d="M198.127 102.057L192.853 92.4759C192.272 91.4198 191.962 90.2041 192.066 88.975C192.492 83.928 198.938 80.6287 202.737 84.8738C202.825 84.9721 202.911 85.0734 202.995 85.1784L204.492 87.0465L206.876 86.8241C207.01 86.8116 207.142 86.8029 207.274 86.7977C212.967 86.5781 215.076 93.505 211.744 97.3196C210.933 98.2487 209.843 98.8711 208.68 99.1874L198.127 102.057Z" fill="#CA91FC"/>
<g filter="url(#filter2_ddd)">
<path d="M299 169.738C305.628 169.74 311.055 164.36 310.493 157.756C309.268 143.347 305.831 129.187 300.282 115.78C294.734 102.374 287.159 89.9271 277.842 78.8664C273.573 73.7975 265.93 73.826 261.243 78.511L170 169.702L299 169.738Z" fill="#CA91FC"/>
</g>
<path fill-rule="evenodd" clip-rule="evenodd" d="M254.396 134.849L258.12 121.438C258.531 119.96 259.331 118.578 260.519 117.552C265.397 113.337 274.198 116.069 273.879 123.313C273.872 123.481 273.86 123.649 273.843 123.82L273.543 126.852L275.91 128.77C276.043 128.878 276.172 128.988 276.296 129.101C281.673 133.966 277.429 142.146 271.003 142.653C269.438 142.777 267.893 142.374 266.553 141.627L254.396 134.849Z" fill="white"/>
<path fill-rule="evenodd" clip-rule="evenodd" d="M237.24 142.167L240.166 131.63C240.489 130.469 241.117 129.383 242.05 128.576C245.883 125.265 252.798 127.411 252.548 133.103C252.542 133.235 252.533 133.367 252.519 133.501L252.284 135.884L254.144 137.391C254.249 137.475 254.349 137.562 254.447 137.65C258.672 141.473 255.338 147.9 250.288 148.299C249.059 148.396 247.845 148.08 246.792 147.493L237.24 142.167Z" fill="white"/>
<g filter="url(#filter3_ddd)">
<path d="M299 170.036C305.627 170.038 311.051 175.422 310.486 182.025C309.253 196.434 305.808 210.592 300.252 223.995C294.695 237.398 287.113 249.841 277.79 260.896C273.518 265.963 265.876 265.93 261.191 261.242L170 170L299 170.036Z" fill="#F8ECF0"/>
</g>
<path fill-rule="evenodd" clip-rule="evenodd" d="M218.188 189.587L219.912 195.297C220.102 195.927 220.458 196.511 220.977 196.939C223.108 198.698 226.852 197.443 226.646 194.343C226.642 194.271 226.635 194.199 226.626 194.126L226.468 192.83L227.464 191.985C227.52 191.937 227.574 191.889 227.627 191.84C229.884 189.704 227.987 186.239 225.228 186.084C224.557 186.046 223.899 186.233 223.332 186.566L218.188 189.587Z" fill="#CA91FC"/>
<path fill-rule="evenodd" clip-rule="evenodd" d="M243.126 199.789L246.287 210.258C246.636 211.412 247.288 212.484 248.24 213.269C252.145 216.494 259.011 214.193 258.633 208.508C258.624 208.377 258.612 208.244 258.596 208.111L258.307 205.734L260.133 204.186C260.235 204.099 260.334 204.01 260.43 203.92C264.568 200.003 261.091 193.652 256.034 193.367C254.802 193.297 253.596 193.641 252.556 194.251L243.126 199.789Z" fill="#CA91FC"/>
<path fill-rule="evenodd" clip-rule="evenodd" d="M228.462 193.635L231.049 202.201C231.334 203.145 231.868 204.022 232.646 204.664C235.842 207.302 241.459 205.42 241.15 200.769C241.142 200.661 241.132 200.553 241.119 200.444L240.883 198.499L242.377 197.232C242.461 197.161 242.542 197.088 242.62 197.014C246.005 193.81 243.16 188.614 239.023 188.38C238.015 188.323 237.028 188.604 236.178 189.104L228.462 193.635Z" fill="#CA91FC"/>
<path fill-rule="evenodd" clip-rule="evenodd" d="M260.5 206.593L264.524 219.917C264.968 221.386 265.798 222.75 267.009 223.749C271.979 227.853 280.718 224.925 280.237 217.69C280.226 217.523 280.21 217.355 280.189 217.185L279.822 214.16L282.146 212.189C282.276 212.079 282.402 211.966 282.524 211.85C287.791 206.866 283.365 198.783 276.929 198.419C275.362 198.331 273.826 198.768 272.503 199.545L260.5 206.593Z" fill="#CA91FC"/>
<path d="M170 299C170 305.627 175.382 311.053 181.986 310.49C196.395 309.26 210.554 305.819 223.958 300.267C237.363 294.715 249.808 287.136 260.866 277.816C265.934 273.545 265.903 265.903 261.217 261.217L170 170V299Z" fill="#CA91FC"/>
<path fill-rule="evenodd" clip-rule="evenodd" d="M205.071 254.529L218.463 258.324C219.939 258.742 221.317 259.549 222.337 260.742C226.526 265.642 223.748 274.429 216.506 274.072C216.338 274.064 216.169 274.051 215.999 274.033L212.969 273.718L211.038 276.075C210.93 276.208 210.819 276.336 210.706 276.46C205.813 281.811 197.654 277.525 197.181 271.096C197.065 269.53 197.476 267.987 198.23 266.651L205.071 254.529Z" fill="white"/>
<g filter="url(#filter4_ddd)">
<path d="M170 299C170 305.627 164.618 311.053 158.014 310.49C143.605 309.26 129.446 305.819 116.042 300.267C102.637 294.715 90.1919 287.136 79.1338 277.816C74.0661 273.545 74.0968 265.903 78.7831 261.217L170 170V299Z" fill="#F8ECF0"/>
</g>
<path fill-rule="evenodd" clip-rule="evenodd" d="M134.946 254.475L141.65 266.673C142.389 268.017 142.782 269.565 142.649 271.129C142.103 277.552 133.896 281.746 129.064 276.339C128.952 276.214 128.843 276.085 128.736 275.952L126.832 273.573L123.798 273.854C123.628 273.87 123.459 273.88 123.292 273.887C116.046 274.162 113.368 265.344 117.612 260.492C118.645 259.31 120.032 258.519 121.513 258.117L134.946 254.475Z" fill="#CA91FC"/>
<path fill-rule="evenodd" clip-rule="evenodd" d="M148.109 222.519L152.418 230.361C152.893 231.226 153.146 232.22 153.06 233.226C152.709 237.355 147.433 240.051 144.327 236.575C144.255 236.495 144.185 236.412 144.116 236.326L142.892 234.797L140.942 234.977C140.832 234.988 140.724 234.995 140.616 234.999C135.958 235.175 134.236 229.507 136.965 226.387C137.629 225.628 138.521 225.119 139.473 224.861L148.109 222.519Z" fill="#CA91FC"/>
<path fill-rule="evenodd" clip-rule="evenodd" d="M142.244 237.302L147.511 246.886C148.091 247.942 148.4 249.158 148.296 250.387C147.866 255.434 141.418 258.729 137.622 254.481C137.534 254.383 137.448 254.281 137.364 254.176L135.868 252.307L133.484 252.528C133.35 252.54 133.218 252.549 133.086 252.554C127.393 252.77 125.289 245.841 128.624 242.029C129.436 241.101 130.525 240.479 131.689 240.163L142.244 237.302Z" fill="#CA91FC"/>
<path fill-rule="evenodd" clip-rule="evenodd" d="M152.406 212.346L155.279 217.574C155.595 218.15 155.764 218.814 155.707 219.484C155.472 222.237 151.955 224.034 149.884 221.717C149.837 221.663 149.79 221.608 149.744 221.551L148.928 220.531L147.628 220.652C147.555 220.658 147.482 220.663 147.411 220.666C144.305 220.783 143.158 217.004 144.976 214.925C145.419 214.418 146.014 214.079 146.648 213.907L152.406 212.346Z" fill="#CA91FC"/>
<path d="M41 169.997C34.3726 169.998 28.9485 175.382 29.5137 181.985C30.7471 196.394 34.192 210.552 39.7482 223.955C45.3044 237.358 52.8866 249.801 62.2094 260.857C66.4818 265.923 74.124 265.89 78.809 261.203L170 169.96L41 169.997Z" fill="#CA91FC"/>
<path fill-rule="evenodd" clip-rule="evenodd" d="M84.7464 204.96L80.9183 218.342C80.4961 219.817 79.6858 221.193 78.4899 222.21C73.5795 226.386 64.7995 223.586 65.1744 216.345C65.1833 216.177 65.1965 216.009 65.2147 215.839L65.5377 212.809L63.1853 210.872C63.0532 210.763 62.9257 210.652 62.8021 210.539C57.4632 205.632 61.7701 197.485 68.2001 197.027C69.766 196.916 71.3079 197.331 72.6423 198.088L84.7464 204.96Z" fill="white"/>
<g filter="url(#filter5_ddd)">
<path d="M41.0001 169.997C34.3727 169.998 28.9456 164.618 29.507 158.014C30.7323 143.605 34.1692 129.445 39.7178 116.039C45.2665 102.632 52.8416 90.1852 62.1581 79.1244C66.4277 74.0555 74.0699 74.0841 78.7575 78.7691L170 169.96L41.0001 169.997Z" fill="#F8ECF0"/>
</g>
<path fill-rule="evenodd" clip-rule="evenodd" d="M84.9151 134.934L72.7583 141.712C71.4181 142.459 69.8731 142.862 68.3081 142.738C61.8818 142.231 57.6381 134.051 63.0146 129.185C63.1391 129.073 63.2675 128.963 63.4005 128.855L65.7677 126.937L65.4682 123.905C65.4513 123.734 65.4393 123.566 65.4318 123.398C65.1129 116.154 73.9143 113.422 78.7923 117.636C79.9803 118.663 80.7799 120.045 81.1906 121.523L84.9151 134.934Z" fill="#CA91FC"/>
<path fill-rule="evenodd" clip-rule="evenodd" d="M102.04 142.168L92.4879 147.493C91.4349 148.08 90.2209 148.396 88.9913 148.299C83.9421 147.9 80.608 141.473 84.8325 137.65C84.9302 137.562 85.0312 137.475 85.1356 137.391L86.9957 135.884L86.7604 133.501C86.7471 133.367 86.7377 133.235 86.7318 133.103C86.4814 127.411 93.3968 125.265 97.2294 128.576C98.1628 129.383 98.7911 130.469 99.1137 131.63L102.04 142.168Z" fill="#CA91FC"/>
<path d="M170 41C170 34.3726 164.618 28.947 158.014 29.5103C143.605 30.7396 129.446 34.1806 116.042 39.733C102.637 45.2854 90.1919 52.8641 79.1338 62.1837C74.0661 66.4547 74.0968 74.0969 78.7831 78.7832L170 170V41Z" fill="#CA91FC"/>
<path fill-rule="evenodd" clip-rule="evenodd" d="M134.661 84.7296L121.294 80.8489C119.821 80.4209 118.448 79.6052 117.436 78.4053C113.279 73.4785 116.114 64.7095 123.353 65.113C123.521 65.1225 123.689 65.1364 123.859 65.1553L126.888 65.4902L128.834 63.1455C128.943 63.0138 129.055 62.8867 129.168 62.7635C134.096 57.4441 142.226 61.783 142.659 68.2148C142.764 69.7811 142.343 71.3213 141.581 72.6527L134.661 84.7296Z" fill="white"/>
<path opacity="0.7" d="M170 91L181.548 142.122L225.861 114.139L197.878 158.452L249 170L197.878 181.548L225.861 225.861L181.548 197.878L170 249L158.452 197.878L114.139 225.861L142.122 181.548L91 170L142.122 158.452L114.139 114.139L158.452 142.122L170 91Z" fill="#D5ACF9"/>
</g>
<defs>
<filter id="filter0_ddd" x="-8" y="-7" width="356" height="356" filterUnits="userSpaceOnUse" color-interpolation-filters="sRGB">
<feFlood flood-opacity="0" result="BackgroundImageFix"/>
<feColorMatrix in="SourceAlpha" type="matrix" values="0 0 0 0 0 0 0 0 0 0 0 0 0 0 0 0 0 0 127 0"/>
<feOffset dy="1"/>
<feGaussianBlur stdDeviation="4"/>
<feColorMatrix type="matrix" values="0 0 0 0 0.639216 0 0 0 0 0.639216 0 0 0 0 0.639216 0 0 0 0.08 0"/>
<feBlend mode="normal" in2="BackgroundImageFix" result="effect1_dropShadow"/>
<feColorMatrix in="SourceAlpha" type="matrix" values="0 0 0 0 0 0 0 0 0 0 0 0 0 0 0 0 0 0 127 0"/>
<feOffset dy="4"/>
<feGaussianBlur stdDeviation="2"/>
<feColorMatrix type="matrix" values="0 0 0 0 0.820833 0 0 0 0 0.820833 0 0 0 0 0.820833 0 0 0 0.12 0"/>
<feBlend mode="normal" in2="effect1_dropShadow" result="effect2_dropShadow"/>
<feColorMatrix in="SourceAlpha" type="matrix" values="0 0 0 0 0 0 0 0 0 0 0 0 0 0 0 0 0 0 127 0"/>
<feOffset dy="2"/>
<feGaussianBlur stdDeviation="2"/>
<feColorMatrix type="matrix" values="0 0 0 0 0.937255 0 0 0 0 0.345098 0 0 0 0 0.627451 0 0 0 0.06 0"/>
<feBlend mode="normal" in2="effect2_dropShadow" result="effect3_dropShadow"/>
<feBlend mode="normal" in="SourceGraphic" in2="effect3_dropShadow" result="shape"/>
</filter>
<filter id="filter1_ddd" x="162" y="22.4701" width="110.7" height="156.53" filterUnits="userSpaceOnUse" color-interpolation-filters="sRGB">
<feFlood flood-opacity="0" result="BackgroundImageFix"/>
<feColorMatrix in="SourceAlpha" type="matrix" values="0 0 0 0 0 0 0 0 0 0 0 0 0 0 0 0 0 0 127 0"/>
<feOffset dy="1"/>
<feGaussianBlur stdDeviation="4"/>
<feColorMatrix type="matrix" values="0 0 0 0 0.639216 0 0 0 0 0.639216 0 0 0 0 0.639216 0 0 0 0.08 0"/>
<feBlend mode="normal" in2="BackgroundImageFix" result="effect1_dropShadow"/>
<feColorMatrix in="SourceAlpha" type="matrix" values="0 0 0 0 0 0 0 0 0 0 0 0 0 0 0 0 0 0 127 0"/>
<feOffset dy="4"/>
<feGaussianBlur stdDeviation="2"/>
<feColorMatrix type="matrix" values="0 0 0 0 0.820833 0 0 0 0 0.820833 0 0 0 0 0.820833 0 0 0 0.12 0"/>
<feBlend mode="normal" in2="effect1_dropShadow" result="effect2_dropShadow"/>
<feColorMatrix in="SourceAlpha" type="matrix" values="0 0 0 0 0 0 0 0 0 0 0 0 0 0 0 0 0 0 127 0"/>
<feOffset dy="2"/>
<feGaussianBlur stdDeviation="2"/>
<feColorMatrix type="matrix" values="0 0 0 0 0.937255 0 0 0 0 0.345098 0 0 0 0 0.627451 0 0 0 0.06 0"/>
<feBlend mode="normal" in2="effect2_dropShadow" result="effect3_dropShadow"/>
<feBlend mode="normal" in="SourceGraphic" in2="effect3_dropShadow" result="shape"/>
</filter>
<filter id="filter2_ddd" x="162" y="68.03" width="156.533" height="110.708" filterUnits="userSpaceOnUse" color-interpolation-filters="sRGB">
<feFlood flood-opacity="0" result="BackgroundImageFix"/>
<feColorMatrix in="SourceAlpha" type="matrix" values="0 0 0 0 0 0 0 0 0 0 0 0 0 0 0 0 0 0 127 0"/>
<feOffset dy="1"/>
<feGaussianBlur stdDeviation="4"/>
<feColorMatrix type="matrix" values="0 0 0 0 0.639216 0 0 0 0 0.639216 0 0 0 0 0.639216 0 0 0 0.08 0"/>
<feBlend mode="normal" in2="BackgroundImageFix" result="effect1_dropShadow"/>
<feColorMatrix in="SourceAlpha" type="matrix" values="0 0 0 0 0 0 0 0 0 0 0 0 0 0 0 0 0 0 127 0"/>
<feOffset dy="4"/>
<feGaussianBlur stdDeviation="2"/>
<feColorMatrix type="matrix" values="0 0 0 0 0.820833 0 0 0 0 0.820833 0 0 0 0 0.820833 0 0 0 0.12 0"/>
<feBlend mode="normal" in2="effect1_dropShadow" result="effect2_dropShadow"/>
<feColorMatrix in="SourceAlpha" type="matrix" values="0 0 0 0 0 0 0 0 0 0 0 0 0 0 0 0 0 0 127 0"/>
<feOffset dy="2"/>
<feGaussianBlur stdDeviation="2"/>
<feColorMatrix type="matrix" values="0 0 0 0 0.937255 0 0 0 0 0.345098 0 0 0 0 0.627451 0 0 0 0.06 0"/>
<feBlend mode="normal" in2="effect2_dropShadow" result="effect3_dropShadow"/>
<feBlend mode="normal" in="SourceGraphic" in2="effect3_dropShadow" result="shape"/>
</filter>
<filter id="filter3_ddd" x="162" y="163" width="156.527" height="110.728" filterUnits="userSpaceOnUse" color-interpolation-filters="sRGB">
<feFlood flood-opacity="0" result="BackgroundImageFix"/>
<feColorMatrix in="SourceAlpha" type="matrix" values="0 0 0 0 0 0 0 0 0 0 0 0 0 0 0 0 0 0 127 0"/>
<feOffset dy="1"/>
<feGaussianBlur stdDeviation="4"/>
<feColorMatrix type="matrix" values="0 0 0 0 0.639216 0 0 0 0 0.639216 0 0 0 0 0.639216 0 0 0 0.08 0"/>
<feBlend mode="normal" in2="BackgroundImageFix" result="effect1_dropShadow"/>
<feColorMatrix in="SourceAlpha" type="matrix" values="0 0 0 0 0 0 0 0 0 0 0 0 0 0 0 0 0 0 127 0"/>
<feOffset dy="4"/>
<feGaussianBlur stdDeviation="2"/>
<feColorMatrix type="matrix" values="0 0 0 0 0.820833 0 0 0 0 0.820833 0 0 0 0 0.820833 0 0 0 0.12 0"/>
<feBlend mode="normal" in2="effect1_dropShadow" result="effect2_dropShadow"/>
<feColorMatrix in="SourceAlpha" type="matrix" values="0 0 0 0 0 0 0 0 0 0 0 0 0 0 0 0 0 0 127 0"/>
<feOffset dy="2"/>
<feGaussianBlur stdDeviation="2"/>
<feColorMatrix type="matrix" values="0 0 0 0 0.937255 0 0 0 0 0.345098 0 0 0 0 0.627451 0 0 0 0.06 0"/>
<feBlend mode="normal" in2="effect2_dropShadow" result="effect3_dropShadow"/>
<feBlend mode="normal" in="SourceGraphic" in2="effect3_dropShadow" result="shape"/>
</filter>
<filter id="filter4_ddd" x="67.2997" y="163" width="110.7" height="156.53" filterUnits="userSpaceOnUse" color-interpolation-filters="sRGB">
<feFlood flood-opacity="0" result="BackgroundImageFix"/>
<feColorMatrix in="SourceAlpha" type="matrix" values="0 0 0 0 0 0 0 0 0 0 0 0 0 0 0 0 0 0 127 0"/>
<feOffset dy="1"/>
<feGaussianBlur stdDeviation="4"/>
<feColorMatrix type="matrix" values="0 0 0 0 0.639216 0 0 0 0 0.639216 0 0 0 0 0.639216 0 0 0 0.08 0"/>
<feBlend mode="normal" in2="BackgroundImageFix" result="effect1_dropShadow"/>
<feColorMatrix in="SourceAlpha" type="matrix" values="0 0 0 0 0 0 0 0 0 0 0 0 0 0 0 0 0 0 127 0"/>
<feOffset dy="4"/>
<feGaussianBlur stdDeviation="2"/>
<feColorMatrix type="matrix" values="0 0 0 0 0.820833 0 0 0 0 0.820833 0 0 0 0 0.820833 0 0 0 0.12 0"/>
<feBlend mode="normal" in2="effect1_dropShadow" result="effect2_dropShadow"/>
<feColorMatrix in="SourceAlpha" type="matrix" values="0 0 0 0 0 0 0 0 0 0 0 0 0 0 0 0 0 0 127 0"/>
<feOffset dy="2"/>
<feGaussianBlur stdDeviation="2"/>
<feColorMatrix type="matrix" values="0 0 0 0 0.937255 0 0 0 0 0.345098 0 0 0 0 0.627451 0 0 0 0.06 0"/>
<feBlend mode="normal" in2="effect2_dropShadow" result="effect3_dropShadow"/>
<feBlend mode="normal" in="SourceGraphic" in2="effect3_dropShadow" result="shape"/>
</filter>
<filter id="filter5_ddd" x="21.467" y="68.2881" width="156.533" height="110.708" filterUnits="userSpaceOnUse" color-interpolation-filters="sRGB">
<feFlood flood-opacity="0" result="BackgroundImageFix"/>
<feColorMatrix in="SourceAlpha" type="matrix" values="0 0 0 0 0 0 0 0 0 0 0 0 0 0 0 0 0 0 127 0"/>
<feOffset dy="1"/>
<feGaussianBlur stdDeviation="4"/>
<feColorMatrix type="matrix" values="0 0 0 0 0.639216 0 0 0 0 0.639216 0 0 0 0 0.639216 0 0 0 0.08 0"/>
<feBlend mode="normal" in2="BackgroundImageFix" result="effect1_dropShadow"/>
<feColorMatrix in="SourceAlpha" type="matrix" values="0 0 0 0 0 0 0 0 0 0 0 0 0 0 0 0 0 0 127 0"/>
<feOffset dy="4"/>
<feGaussianBlur stdDeviation="2"/>
<feColorMatrix type="matrix" values="0 0 0 0 0.820833 0 0 0 0 0.820833 0 0 0 0 0.820833 0 0 0 0.12 0"/>
<feBlend mode="normal" in2="effect1_dropShadow" result="effect2_dropShadow"/>
<feColorMatrix in="SourceAlpha" type="matrix" values="0 0 0 0 0 0 0 0 0 0 0 0 0 0 0 0 0 0 127 0"/>
<feOffset dy="2"/>
<feGaussianBlur stdDeviation="2"/>
<feColorMatrix type="matrix" values="0 0 0 0 0.937255 0 0 0 0 0.345098 0 0 0 0 0.627451 0 0 0 0.06 0"/>
<feBlend mode="normal" in2="effect2_dropShadow" result="effect3_dropShadow"/>
<feBlend mode="normal" in="SourceGraphic" in2="effect3_dropShadow" result="shape"/>
</filter>
</defs>
</svg>
