<svg width="67" height="68" viewBox="0 0 67 68" fill="none" xmlns="http://www.w3.org/2000/svg">
<g filter="url(#filter0_d)">
<g filter="url(#filter1_i)">
<circle cx="34" cy="33" r="33" fill="url(#paint0_linear)"/>
</g>
<circle cx="34" cy="33" r="32.5" stroke="white"/>
<g filter="url(#filter2_i)">
<circle cx="34" cy="33" r="32" fill="url(#paint1_radial)" fill-opacity="0.71"/>
</g>
<path d="M23.5156 34.7578C23.5156 34.3672 23.3672 34.0651 23.0703 33.8516C22.7786 33.6328 22.2656 33.4453 21.5312 33.2891C20.8021 33.1328 20.2214 32.9453 19.7891 32.7266C19.362 32.5078 19.0443 32.2474 18.8359 31.9453C18.6328 31.6432 18.5312 31.2839 18.5312 30.8672C18.5312 30.1745 18.8229 29.5885 19.4062 29.1094C19.9948 28.6302 20.7448 28.3906 21.6562 28.3906C22.6146 28.3906 23.3906 28.638 23.9844 29.1328C24.5833 29.6276 24.8828 30.2604 24.8828 31.0312H23.4297C23.4297 30.6354 23.2604 30.2943 22.9219 30.0078C22.5885 29.7214 22.1667 29.5781 21.6562 29.5781C21.1302 29.5781 20.7188 29.6927 20.4219 29.9219C20.125 30.151 19.9766 30.4505 19.9766 30.8203C19.9766 31.1693 20.1146 31.4323 20.3906 31.6094C20.6667 31.7865 21.1641 31.9557 21.8828 32.1172C22.6068 32.2786 23.1927 32.4714 23.6406 32.6953C24.0885 32.9193 24.4193 33.1901 24.6328 33.5078C24.8516 33.8203 24.9609 34.2031 24.9609 34.6562C24.9609 35.4115 24.6589 36.0182 24.0547 36.4766C23.4505 36.9297 22.6667 37.1562 21.7031 37.1562C21.026 37.1562 20.4271 37.0365 19.9062 36.7969C19.3854 36.5573 18.9766 36.224 18.6797 35.7969C18.388 35.3646 18.2422 34.8984 18.2422 34.3984H19.6875C19.7135 34.8828 19.9062 35.2682 20.2656 35.5547C20.6302 35.8359 21.1094 35.9766 21.7031 35.9766C22.25 35.9766 22.6875 35.8672 23.0156 35.6484C23.349 35.4245 23.5156 35.1276 23.5156 34.7578ZM34.1344 32.8672C34.1344 34.1536 33.8401 35.1901 33.2516 35.9766C32.663 36.763 31.8661 37.1562 30.8609 37.1562C29.8349 37.1562 29.0276 36.8307 28.4391 36.1797V40.25H26.9937V28.5469H28.3141L28.3844 29.4844C28.9729 28.7552 29.7906 28.3906 30.8375 28.3906C31.8531 28.3906 32.6552 28.7734 33.2437 29.5391C33.8375 30.3047 34.1344 31.3698 34.1344 32.7344V32.8672ZM32.6891 32.7031C32.6891 31.75 32.4859 30.9974 32.0797 30.4453C31.6734 29.8932 31.1161 29.6172 30.4078 29.6172C29.5328 29.6172 28.8766 30.0052 28.4391 30.7812V34.8203C28.8714 35.5911 29.5328 35.9766 30.4234 35.9766C31.1161 35.9766 31.6656 35.7031 32.0719 35.1562C32.4833 34.6042 32.6891 33.7865 32.6891 32.7031ZM37.6984 37H36.2531V28.5469H37.6984V37ZM36.1359 26.3047C36.1359 26.0703 36.2062 25.8724 36.3469 25.7109C36.4927 25.5495 36.7062 25.4688 36.9875 25.4688C37.2687 25.4688 37.4823 25.5495 37.6281 25.7109C37.774 25.8724 37.8469 26.0703 37.8469 26.3047C37.8469 26.5391 37.774 26.7344 37.6281 26.8906C37.4823 27.0469 37.2687 27.125 36.9875 27.125C36.7062 27.125 36.4927 27.0469 36.3469 26.8906C36.2062 26.7344 36.1359 26.5391 36.1359 26.3047ZM41.5359 28.5469L41.5828 29.6094C42.2286 28.7969 43.0724 28.3906 44.1141 28.3906C45.9005 28.3906 46.8016 29.3984 46.8172 31.4141V37H45.3719V31.4062C45.3667 30.7969 45.226 30.3464 44.95 30.0547C44.6792 29.763 44.2547 29.6172 43.6766 29.6172C43.2078 29.6172 42.7964 29.7422 42.4422 29.9922C42.088 30.2422 41.812 30.5703 41.6141 30.9766V37H40.1688V28.5469H41.5359Z" fill="white"/>
</g>
<defs>
<filter id="filter0_d" x="0" y="0" width="67" height="68" filterUnits="userSpaceOnUse" color-interpolation-filters="sRGB">
<feFlood flood-opacity="0" result="BackgroundImageFix"/>
<feColorMatrix in="SourceAlpha" type="matrix" values="0 0 0 0 0 0 0 0 0 0 0 0 0 0 0 0 0 0 127 0"/>
<feOffset dx="-1" dy="2"/>
<feColorMatrix type="matrix" values="0 0 0 0 0.02875 0 0 0 0 0.383333 0 0 0 0 0.170583 0 0 0 1 0"/>
<feBlend mode="normal" in2="BackgroundImageFix" result="effect1_dropShadow"/>
<feBlend mode="normal" in="SourceGraphic" in2="effect1_dropShadow" result="shape"/>
</filter>
<filter id="filter1_i" x="1" y="0" width="70" height="70" filterUnits="userSpaceOnUse" color-interpolation-filters="sRGB">
<feFlood flood-opacity="0" result="BackgroundImageFix"/>
<feBlend mode="normal" in="SourceGraphic" in2="BackgroundImageFix" result="shape"/>
<feColorMatrix in="SourceAlpha" type="matrix" values="0 0 0 0 0 0 0 0 0 0 0 0 0 0 0 0 0 0 127 0" result="hardAlpha"/>
<feOffset dx="4" dy="4"/>
<feGaussianBlur stdDeviation="4.5"/>
<feComposite in2="hardAlpha" operator="arithmetic" k2="-1" k3="1"/>
<feColorMatrix type="matrix" values="0 0 0 0 0.0930556 0 0 0 0 0.558333 0 0 0 0 0.279167 0 0 0 1 0"/>
<feBlend mode="normal" in2="shape" result="effect1_innerShadow"/>
</filter>
<filter id="filter2_i" x="2" y="1" width="64" height="65" filterUnits="userSpaceOnUse" color-interpolation-filters="sRGB">
<feFlood flood-opacity="0" result="BackgroundImageFix"/>
<feBlend mode="normal" in="SourceGraphic" in2="BackgroundImageFix" result="shape"/>
<feColorMatrix in="SourceAlpha" type="matrix" values="0 0 0 0 0 0 0 0 0 0 0 0 0 0 0 0 0 0 127 0" result="hardAlpha"/>
<feOffset dy="1"/>
<feGaussianBlur stdDeviation="1"/>
<feComposite in2="hardAlpha" operator="arithmetic" k2="-1" k3="1"/>
<feColorMatrix type="matrix" values="0 0 0 0 0.920833 0 0 0 0 0.920833 0 0 0 0 0.920833 0 0 0 1 0"/>
<feBlend mode="normal" in2="shape" result="effect1_innerShadow"/>
</filter>
<linearGradient id="paint0_linear" x1="34" y1="0" x2="34" y2="66" gradientUnits="userSpaceOnUse">
<stop stop-color="#47D580"/>
<stop offset="1" stop-color="#107839"/>
</linearGradient>
<radialGradient id="paint1_radial" cx="0" cy="0" r="1" gradientUnits="userSpaceOnUse" gradientTransform="translate(33.9848 37.5292) rotate(92.234) scale(99.8379 98.9884)">
<stop stop-color="#4CD964"/>
<stop offset="1" stop-color="#0F9544"/>
</radialGradient>
</defs>
</svg>
