<svg width="298" height="298" viewBox="0 0 298 298" fill="none" xmlns="http://www.w3.org/2000/svg">
<path d="M149 19.0282C149 12.4008 154.382 6.97519 160.985 7.53855C175.395 8.76785 189.553 12.2088 202.958 17.7612C216.363 23.3136 228.808 30.8923 239.866 40.2119C244.934 44.4829 244.903 52.1251 240.217 56.8114L149 148.028V19.0282Z" fill="#F8ECF0"/>
<path fill-rule="evenodd" clip-rule="evenodd" d="M183.854 62.8223L177.143 50.6298C176.404 49.2857 176.01 47.7386 176.142 46.1745C176.684 39.7517 184.886 35.553 189.72 40.9554C189.832 41.0805 189.942 41.2095 190.048 41.343L191.954 43.7205L194.987 43.4375C195.157 43.4215 195.326 43.4105 195.493 43.4039C202.738 43.1245 205.421 51.9398 201.181 56.7943C200.149 57.9765 198.763 58.7686 197.282 59.1712L183.854 62.8223Z" fill="#FA9E67"/>
<path fill-rule="evenodd" clip-rule="evenodd" d="M171.253 94.248L166.939 86.4101C166.464 85.5461 166.21 84.5515 166.295 83.546C166.643 79.417 171.916 76.7178 175.024 80.1908C175.096 80.2712 175.166 80.3541 175.235 80.4399L176.46 81.9683L178.41 81.7863C178.519 81.7761 178.628 81.769 178.735 81.7647C183.392 81.5851 185.118 87.252 182.392 90.3728C181.728 91.1328 180.837 91.642 179.886 91.9008L171.253 94.248Z" fill="#FA9E67"/>
<path fill-rule="evenodd" clip-rule="evenodd" d="M177.093 80.078L171.821 70.498C171.24 69.442 170.93 68.2264 171.034 66.9975C171.459 61.9509 177.904 58.6519 181.703 62.8966C181.79 62.9949 181.876 63.0963 181.96 63.2012L183.457 65.0692L185.84 64.8468C185.974 64.8342 186.107 64.8256 186.238 64.8204C191.93 64.6008 194.039 71.527 190.707 75.3413C189.896 76.2703 188.807 76.8926 187.644 77.2089L177.093 80.078Z" fill="#FA9E67"/>
<g filter="url(#filter0_ddd)">
<path d="M278 147.767C284.628 147.769 290.055 142.388 289.493 135.784C288.268 121.375 284.831 107.215 279.282 93.8086C273.734 80.4023 266.159 67.9552 256.842 56.8945C252.573 51.8256 244.93 51.8541 240.243 56.5391L149 147.73L278 147.767Z" fill="#FA9E67"/>
</g>
<path fill-rule="evenodd" clip-rule="evenodd" d="M233.351 112.867L237.074 99.4575C237.485 97.9794 238.284 96.5974 239.472 95.5713C244.349 91.3574 253.149 94.0892 252.83 101.332C252.822 101.5 252.81 101.669 252.794 101.839L252.494 104.871L254.861 106.789C254.994 106.897 255.122 107.007 255.247 107.119C260.622 111.984 256.379 120.164 249.954 120.671C248.39 120.794 246.845 120.392 245.505 119.645L233.351 112.867Z" fill="white"/>
<path fill-rule="evenodd" clip-rule="evenodd" d="M216.198 120.185L219.124 109.649C219.446 108.487 220.074 107.401 221.008 106.595C224.839 103.284 231.753 105.43 231.503 111.122C231.497 111.253 231.488 111.386 231.475 111.519L231.239 113.902L233.099 115.409C233.203 115.493 233.304 115.58 233.402 115.668C237.626 119.491 234.292 125.917 229.244 126.316C228.015 126.413 226.801 126.097 225.748 125.51L216.198 120.185Z" fill="white"/>
<path d="M278 148.065C284.627 148.066 290.051 153.45 289.486 160.053C288.253 174.462 284.808 188.62 279.252 202.023C273.695 215.426 266.113 227.869 256.79 238.925C252.518 243.991 244.876 243.958 240.191 239.271L149 148.028L278 148.065Z" fill="#F8ECF0"/>
<path fill-rule="evenodd" clip-rule="evenodd" d="M199 168.507L200.724 174.216C200.914 174.845 201.27 175.428 201.789 175.857C203.918 177.615 207.661 176.36 207.455 173.261C207.45 173.189 207.443 173.117 207.434 173.044L207.278 171.748L208.273 170.904C208.329 170.856 208.382 170.808 208.435 170.758C210.691 168.623 208.795 165.161 206.038 165.005C205.367 164.967 204.709 165.154 204.142 165.487L199 168.507Z" fill="#FA9E67"/>
<path fill-rule="evenodd" clip-rule="evenodd" d="M223.928 178.706L227.088 189.171C227.436 190.325 228.089 191.396 229.04 192.182C232.944 195.405 239.806 193.104 239.428 187.422C239.419 187.291 239.407 187.158 239.391 187.025L239.102 184.649L240.928 183.101C241.03 183.014 241.129 182.926 241.225 182.835C245.361 178.919 241.884 172.571 236.83 172.285C235.599 172.216 234.393 172.559 233.354 173.17L223.928 178.706Z" fill="#FA9E67"/>
<path fill-rule="evenodd" clip-rule="evenodd" d="M209.27 172.553L211.855 181.116C212.14 182.06 212.674 182.937 213.452 183.579C216.646 186.216 222.261 184.334 221.952 179.685C221.945 179.577 221.935 179.469 221.922 179.36L221.685 177.416L223.179 176.149C223.263 176.078 223.344 176.006 223.422 175.932C226.806 172.729 223.962 167.534 219.827 167.3C218.819 167.243 217.832 167.524 216.982 168.024L209.27 172.553Z" fill="#FA9E67"/>
<path fill-rule="evenodd" clip-rule="evenodd" d="M241.295 185.507L245.317 198.827C245.76 200.296 246.59 201.66 247.8 202.658C252.769 206.762 261.503 203.834 261.023 196.601C261.011 196.434 260.996 196.266 260.975 196.096L260.608 193.072L262.931 191.102C263.061 190.991 263.187 190.878 263.309 190.763C268.574 185.78 264.15 177.7 257.716 177.336C256.149 177.248 254.615 177.685 253.292 178.462L241.295 185.507Z" fill="#FA9E67"/>
<path d="M149 277.028C149 283.656 154.382 289.081 160.986 288.518C175.395 287.289 189.554 283.848 202.958 278.295C216.363 272.743 228.808 265.164 239.866 255.844C244.934 251.574 244.903 243.931 240.217 239.245L149 148.028V277.028Z" fill="#FA9E67"/>
<path fill-rule="evenodd" clip-rule="evenodd" d="M184.036 232.536L197.425 236.33C198.9 236.749 200.278 237.555 201.298 238.748C205.486 243.648 202.709 252.434 195.468 252.078C195.301 252.069 195.132 252.056 194.962 252.039L191.932 251.723L190.001 254.08C189.893 254.213 189.782 254.341 189.669 254.464C184.777 259.815 176.621 255.53 176.147 249.101C176.031 247.536 176.442 245.993 177.196 244.657L184.036 232.536Z" fill="white"/>
<path d="M149 277.028C149 283.656 143.618 289.081 137.014 288.518C122.605 287.289 108.446 283.848 95.0416 278.295C81.6369 272.743 69.192 265.164 58.1339 255.844C53.0662 251.574 53.0969 243.931 57.7832 239.245L149 148.028V277.028Z" fill="#F8ECF0"/>
<path fill-rule="evenodd" clip-rule="evenodd" d="M113.925 232.482L120.628 244.679C121.366 246.023 121.759 247.57 121.626 249.134C121.08 255.557 112.875 259.75 108.044 254.344C107.932 254.219 107.823 254.09 107.716 253.957L105.813 251.578L102.779 251.859C102.609 251.875 102.44 251.886 102.273 251.892C95.0283 252.167 92.3509 243.35 96.594 238.498C97.6272 237.316 99.0139 236.525 100.494 236.124L113.925 232.482Z" fill="#FA9E67"/>
<path fill-rule="evenodd" clip-rule="evenodd" d="M127.085 200.53L131.393 208.37C131.868 209.235 132.121 210.23 132.035 211.235C131.684 215.364 126.409 218.059 123.304 214.584C123.232 214.504 123.162 214.421 123.093 214.335L121.869 212.806L119.919 212.986C119.81 212.996 119.701 213.003 119.594 213.008C114.936 213.184 113.215 207.516 115.943 204.397C116.607 203.637 117.499 203.129 118.45 202.871L127.085 200.53Z" fill="#FA9E67"/>
<path fill-rule="evenodd" clip-rule="evenodd" d="M121.221 215.31L126.487 224.894C127.068 225.95 127.376 227.166 127.272 228.395C126.842 233.441 120.396 236.735 116.6 232.488C116.512 232.39 116.426 232.288 116.342 232.183L114.847 230.314L112.463 230.535C112.33 230.548 112.197 230.556 112.065 230.561C106.373 230.777 104.27 223.849 107.604 220.037C108.416 219.109 109.505 218.487 110.668 218.172L121.221 215.31Z" fill="#FA9E67"/>
<path fill-rule="evenodd" clip-rule="evenodd" d="M131.381 190.357L134.253 195.585C134.57 196.161 134.738 196.824 134.681 197.494C134.447 200.247 130.931 202.044 128.86 199.727C128.812 199.673 128.766 199.618 128.72 199.561L127.904 198.541L126.604 198.662C126.531 198.669 126.459 198.673 126.387 198.676C123.282 198.794 122.135 195.015 123.953 192.936C124.396 192.429 124.99 192.09 125.625 191.918L131.381 190.357Z" fill="#FA9E67"/>
<path d="M20 148.025C13.3726 148.027 7.94845 153.41 8.51367 160.014C9.74704 174.423 13.192 188.58 18.7482 201.983C24.3044 215.387 31.8866 227.829 41.2094 238.885C45.4818 243.951 53.124 243.918 57.809 239.231L149 147.988L20 148.025Z" fill="#FA9E67"/>
<path fill-rule="evenodd" clip-rule="evenodd" d="M63.7352 182.971L59.9079 196.352C59.4858 197.827 58.6757 199.203 57.48 200.22C52.5706 204.396 43.7923 201.596 44.1672 194.355C44.176 194.188 44.1892 194.019 44.2075 193.849L44.5304 190.82L42.1785 188.883C42.0464 188.775 41.9189 188.663 41.7953 188.55C36.4575 183.644 40.7635 175.497 47.1923 175.04C48.7578 174.928 50.2994 175.343 51.6335 176.1L63.7352 182.971Z" fill="white"/>
<path d="M20.0001 148.025C13.3727 148.027 7.94553 142.646 8.50703 136.042C9.73225 121.633 13.1692 107.473 18.7178 94.0667C24.2665 80.6604 31.8416 68.2134 41.1581 57.1526C45.4277 52.0837 53.0699 52.1123 57.7575 56.7973L149 147.988L20.0001 148.025Z" fill="#F8ECF0"/>
<path fill-rule="evenodd" clip-rule="evenodd" d="M63.9038 112.952L51.7494 119.73C50.4095 120.477 48.8647 120.879 47.3001 120.756C40.8751 120.249 36.6323 112.069 42.0077 107.204C42.1321 107.092 42.2605 106.982 42.3935 106.874L44.7603 104.956L44.4608 101.924C44.4439 101.754 44.4319 101.585 44.4244 101.417C44.1056 94.1737 52.9052 91.4422 57.7822 95.656C58.9699 96.6821 59.7694 98.0641 60.18 99.5422L63.9038 112.952Z" fill="#FA9E67"/>
<path fill-rule="evenodd" clip-rule="evenodd" d="M81.0251 120.185L71.475 125.51C70.4223 126.097 69.2085 126.413 67.9791 126.316C62.9309 125.917 59.5975 119.49 63.8211 115.668C63.9189 115.58 64.0198 115.493 64.1242 115.409L65.9839 113.902L65.7486 111.519C65.7353 111.386 65.7259 111.253 65.72 111.122C65.4697 105.43 72.3837 103.284 76.2155 106.595C77.1488 107.401 77.7769 108.487 78.0995 109.649L81.0251 120.185Z" fill="#FA9E67"/>
<path d="M149 19.0282C149 12.4008 143.618 6.97519 137.014 7.53855C122.605 8.76785 108.446 12.2088 95.0416 17.7612C81.6369 23.3136 69.192 30.8923 58.1339 40.2119C53.0662 44.4829 53.0969 52.1251 57.7832 56.8114L149 148.028V19.0282Z" fill="#FA9E67"/>
<path fill-rule="evenodd" clip-rule="evenodd" d="M113.64 62.7525L100.276 58.8721C98.8028 58.4442 97.4305 57.6286 96.4184 56.4288C92.2622 51.5025 95.0962 42.7343 102.334 43.1378C102.502 43.1472 102.67 43.1612 102.84 43.18L105.868 43.5149L107.814 41.1704C107.923 41.0387 108.035 40.9116 108.148 40.7885C113.075 35.4695 121.204 39.808 121.636 46.2392C121.741 47.8054 121.32 49.3455 120.558 50.6767L113.64 62.7525Z" fill="white"/>
<path opacity="0.7" d="M149 69.0283L160.548 120.15L204.861 92.1669L176.878 136.481L228 148.028L176.878 159.576L204.861 203.89L160.548 175.907L149 227.028L137.452 175.907L93.1386 203.89L121.122 159.576L70 148.028L121.122 136.481L93.1386 92.1669L137.452 120.15L149 69.0283Z" fill="#FFC6A5"/>
<defs>
<filter id="filter0_ddd" x="141" y="46.0581" width="156.533" height="110.709" filterUnits="userSpaceOnUse" color-interpolation-filters="sRGB">
<feFlood flood-opacity="0" result="BackgroundImageFix"/>
<feColorMatrix in="SourceAlpha" type="matrix" values="0 0 0 0 0 0 0 0 0 0 0 0 0 0 0 0 0 0 127 0"/>
<feOffset dy="1"/>
<feGaussianBlur stdDeviation="4"/>
<feColorMatrix type="matrix" values="0 0 0 0 0.639216 0 0 0 0 0.639216 0 0 0 0 0.639216 0 0 0 0.08 0"/>
<feBlend mode="normal" in2="BackgroundImageFix" result="effect1_dropShadow"/>
<feColorMatrix in="SourceAlpha" type="matrix" values="0 0 0 0 0 0 0 0 0 0 0 0 0 0 0 0 0 0 127 0"/>
<feOffset dy="4"/>
<feGaussianBlur stdDeviation="2"/>
<feColorMatrix type="matrix" values="0 0 0 0 0.820833 0 0 0 0 0.820833 0 0 0 0 0.820833 0 0 0 0.12 0"/>
<feBlend mode="normal" in2="effect1_dropShadow" result="effect2_dropShadow"/>
<feColorMatrix in="SourceAlpha" type="matrix" values="0 0 0 0 0 0 0 0 0 0 0 0 0 0 0 0 0 0 127 0"/>
<feOffset dy="2"/>
<feGaussianBlur stdDeviation="2"/>
<feColorMatrix type="matrix" values="0 0 0 0 0.937255 0 0 0 0 0.345098 0 0 0 0 0.627451 0 0 0 0.06 0"/>
<feBlend mode="normal" in2="effect2_dropShadow" result="effect3_dropShadow"/>
<feBlend mode="normal" in="SourceGraphic" in2="effect3_dropShadow" result="shape"/>
</filter>
</defs>
</svg>
