<svg width="67" height="68" viewBox="0 0 67 68" fill="none" xmlns="http://www.w3.org/2000/svg">
<g filter="url(#filter0_d)">
<g filter="url(#filter1_i)">
<circle cx="34" cy="33" r="33" fill="url(#paint0_linear)"/>
</g>
<circle cx="34" cy="33" r="32.5" stroke="white"/>
<g filter="url(#filter2_i)">
<circle cx="34" cy="33" r="32" fill="url(#paint1_radial)" fill-opacity="0.71"/>
</g>
<path d="M23.0156 34.7578C23.0156 34.3672 22.8672 34.0651 22.5703 33.8516C22.2786 33.6328 21.7656 33.4453 21.0312 33.2891C20.3021 33.1328 19.7214 32.9453 19.2891 32.7266C18.862 32.5078 18.5443 32.2474 18.3359 31.9453C18.1328 31.6432 18.0312 31.2839 18.0312 30.8672C18.0312 30.1745 18.3229 29.5885 18.9062 29.1094C19.4948 28.6302 20.2448 28.3906 21.1562 28.3906C22.1146 28.3906 22.8906 28.638 23.4844 29.1328C24.0833 29.6276 24.3828 30.2604 24.3828 31.0312H22.9297C22.9297 30.6354 22.7604 30.2943 22.4219 30.0078C22.0885 29.7214 21.6667 29.5781 21.1562 29.5781C20.6302 29.5781 20.2188 29.6927 19.9219 29.9219C19.625 30.151 19.4766 30.4505 19.4766 30.8203C19.4766 31.1693 19.6146 31.4323 19.8906 31.6094C20.1667 31.7865 20.6641 31.9557 21.3828 32.1172C22.1068 32.2786 22.6927 32.4714 23.1406 32.6953C23.5885 32.9193 23.9193 33.1901 24.1328 33.5078C24.3516 33.8203 24.4609 34.2031 24.4609 34.6562C24.4609 35.4115 24.1589 36.0182 23.5547 36.4766C22.9505 36.9297 22.1667 37.1562 21.2031 37.1562C20.526 37.1562 19.9271 37.0365 19.4062 36.7969C18.8854 36.5573 18.4766 36.224 18.1797 35.7969C17.888 35.3646 17.7422 34.8984 17.7422 34.3984H19.1875C19.2135 34.8828 19.4062 35.2682 19.7656 35.5547C20.1302 35.8359 20.6094 35.9766 21.2031 35.9766C21.75 35.9766 22.1875 35.8672 22.5156 35.6484C22.849 35.4245 23.0156 35.1276 23.0156 34.7578ZM28.4547 26.5V28.5469H30.0328V29.6641H28.4547V34.9062C28.4547 35.2448 28.525 35.5 28.6656 35.6719C28.8062 35.8385 29.0458 35.9219 29.3844 35.9219C29.551 35.9219 29.7802 35.8906 30.0719 35.8281V37C29.6917 37.1042 29.3219 37.1562 28.9625 37.1562C28.3167 37.1562 27.8297 36.9609 27.5016 36.5703C27.1734 36.1797 27.0094 35.625 27.0094 34.9062V29.6641H25.4703V28.5469H27.0094V26.5H28.4547ZM31.3391 32.6953C31.3391 31.8672 31.5005 31.1224 31.8234 30.4609C32.1516 29.7995 32.6047 29.2891 33.1828 28.9297C33.7661 28.5703 34.4302 28.3906 35.175 28.3906C36.326 28.3906 37.2557 28.7891 37.9641 29.5859C38.6776 30.3828 39.0344 31.4427 39.0344 32.7656V32.8672C39.0344 33.6901 38.8755 34.4297 38.5578 35.0859C38.2453 35.737 37.7948 36.2448 37.2063 36.6094C36.6229 36.974 35.951 37.1562 35.1906 37.1562C34.0448 37.1562 33.1151 36.7578 32.4016 35.9609C31.6932 35.1641 31.3391 34.1094 31.3391 32.7969V32.6953ZM32.7922 32.8672C32.7922 33.8047 33.0083 34.5573 33.4406 35.125C33.8781 35.6927 34.4615 35.9766 35.1906 35.9766C35.925 35.9766 36.5083 35.6901 36.9406 35.1172C37.3729 34.5391 37.5891 33.7318 37.5891 32.6953C37.5891 31.7682 37.3677 31.0182 36.925 30.4453C36.4875 29.8672 35.9042 29.5781 35.175 29.5781C34.4615 29.5781 33.8859 29.862 33.4484 30.4297C33.0109 30.9974 32.7922 31.8099 32.7922 32.8672ZM48.1375 32.8672C48.1375 34.1536 47.8432 35.1901 47.2547 35.9766C46.6661 36.763 45.8693 37.1562 44.8641 37.1562C43.838 37.1562 43.0307 36.8307 42.4422 36.1797V40.25H40.9969V28.5469H42.3172L42.3875 29.4844C42.976 28.7552 43.7938 28.3906 44.8406 28.3906C45.8563 28.3906 46.6583 28.7734 47.2469 29.5391C47.8406 30.3047 48.1375 31.3698 48.1375 32.7344V32.8672ZM46.6922 32.7031C46.6922 31.75 46.4891 30.9974 46.0828 30.4453C45.6766 29.8932 45.1193 29.6172 44.4109 29.6172C43.5359 29.6172 42.8797 30.0052 42.4422 30.7812V34.8203C42.8745 35.5911 43.5359 35.9766 44.4266 35.9766C45.1193 35.9766 45.6688 35.7031 46.075 35.1562C46.4865 34.6042 46.6922 33.7865 46.6922 32.7031Z" fill="white"/>
</g>
<defs>
<filter id="filter0_d" x="0" y="0" width="67" height="68" filterUnits="userSpaceOnUse" color-interpolation-filters="sRGB">
<feFlood flood-opacity="0" result="BackgroundImageFix"/>
<feColorMatrix in="SourceAlpha" type="matrix" values="0 0 0 0 0 0 0 0 0 0 0 0 0 0 0 0 0 0 127 0"/>
<feOffset dx="-1" dy="2"/>
<feColorMatrix type="matrix" values="0 0 0 0 0.02875 0 0 0 0 0.383333 0 0 0 0 0.170583 0 0 0 1 0"/>
<feBlend mode="normal" in2="BackgroundImageFix" result="effect1_dropShadow"/>
<feBlend mode="normal" in="SourceGraphic" in2="effect1_dropShadow" result="shape"/>
</filter>
<filter id="filter1_i" x="1" y="0" width="70" height="70" filterUnits="userSpaceOnUse" color-interpolation-filters="sRGB">
<feFlood flood-opacity="0" result="BackgroundImageFix"/>
<feBlend mode="normal" in="SourceGraphic" in2="BackgroundImageFix" result="shape"/>
<feColorMatrix in="SourceAlpha" type="matrix" values="0 0 0 0 0 0 0 0 0 0 0 0 0 0 0 0 0 0 127 0" result="hardAlpha"/>
<feOffset dx="4" dy="4"/>
<feGaussianBlur stdDeviation="4.5"/>
<feComposite in2="hardAlpha" operator="arithmetic" k2="-1" k3="1"/>
<feColorMatrix type="matrix" values="0 0 0 0 0.0930556 0 0 0 0 0.558333 0 0 0 0 0.279167 0 0 0 1 0"/>
<feBlend mode="normal" in2="shape" result="effect1_innerShadow"/>
</filter>
<filter id="filter2_i" x="2" y="1" width="64" height="65" filterUnits="userSpaceOnUse" color-interpolation-filters="sRGB">
<feFlood flood-opacity="0" result="BackgroundImageFix"/>
<feBlend mode="normal" in="SourceGraphic" in2="BackgroundImageFix" result="shape"/>
<feColorMatrix in="SourceAlpha" type="matrix" values="0 0 0 0 0 0 0 0 0 0 0 0 0 0 0 0 0 0 127 0" result="hardAlpha"/>
<feOffset dy="1"/>
<feGaussianBlur stdDeviation="1"/>
<feComposite in2="hardAlpha" operator="arithmetic" k2="-1" k3="1"/>
<feColorMatrix type="matrix" values="0 0 0 0 0.920833 0 0 0 0 0.920833 0 0 0 0 0.920833 0 0 0 1 0"/>
<feBlend mode="normal" in2="shape" result="effect1_innerShadow"/>
</filter>
<linearGradient id="paint0_linear" x1="34" y1="0" x2="34" y2="66" gradientUnits="userSpaceOnUse">
<stop stop-color="#47D580"/>
<stop offset="1" stop-color="#107839"/>
</linearGradient>
<radialGradient id="paint1_radial" cx="0" cy="0" r="1" gradientUnits="userSpaceOnUse" gradientTransform="translate(33.9848 37.5292) rotate(92.234) scale(99.8379 98.9884)">
<stop stop-color="#4CD964"/>
<stop offset="1" stop-color="#0F9544"/>
</radialGradient>
</defs>
</svg>
