<svg width="48" height="47" viewBox="0 0 48 47" fill="none" xmlns="http://www.w3.org/2000/svg">
<g filter="url(#filter0_d)">
<circle cx="24" cy="20" r="19.5" fill="#FF7098" stroke="#FF7098"/>
<path d="M43.123 20.0001C43.123 30.4595 34.5628 38.941 24.0003 38.941C13.4377 38.941 4.87754 30.4595 4.87754 20.0001C4.87754 9.54065 13.4377 1.05918 24.0003 1.05918C34.5628 1.05918 43.123 9.54065 43.123 20.0001Z" fill="#FFEDF6" stroke="#FF7098" stroke-width="0.3"/>
<path d="M41.4168 20C41.4168 29.5247 33.6214 37.25 24.0002 37.25C14.379 37.25 6.5835 29.5247 6.5835 20C6.5835 10.4753 14.379 2.75 24.0002 2.75C33.6214 2.75 41.4168 10.4753 41.4168 20Z" fill="#FFEDF6" stroke="#FF7098" stroke-width="0.5"/>
<path d="M13.1273 33.7932C15.1866 35.386 17.5769 36.5065 20.1259 37.074C22.675 37.6416 25.3195 37.642 27.8687 37.0753L24.0002 20L13.1273 33.7932Z" fill="#FF7098"/>
<path d="M9.66213 9.77594C8.3067 11.6411 7.33541 13.7524 6.80371 15.9894C6.27201 18.2263 6.19031 20.5451 6.56329 22.8134L24.0002 20L9.66213 9.77594Z" fill="#FF7098"/>
<path d="M20.4551 2.85594C23.1864 2.30178 26.0113 2.39579 28.6989 3.1303C31.3864 3.86481 33.8604 5.21896 35.9184 7.08203L24.0002 20L20.4551 2.85594Z" fill="#FF7098"/>
<path d="M41.4668 17.3741C42.1699 21.9628 41.0039 26.6403 38.2254 30.3775L24.0002 20L41.4668 17.3741Z" fill="#FF7098"/>
<path d="M25.5057 20.0001C25.5057 20.8226 24.8323 21.491 23.9996 21.491C23.1669 21.491 22.4936 20.8226 22.4936 20.0001C22.4936 19.1776 23.1669 18.5092 23.9996 18.5092C24.8323 18.5092 25.5057 19.1776 25.5057 20.0001Z" fill="#FFEDF6" stroke="#FF7098" stroke-width="0.2"/>
</g>
<defs>
<filter id="filter0_d" x="0" y="0" width="48" height="48" filterUnits="userSpaceOnUse" color-interpolation-filters="sRGB">
<feFlood flood-opacity="0" result="BackgroundImageFix"/>
<feColorMatrix in="SourceAlpha" type="matrix" values="0 0 0 0 0 0 0 0 0 0 0 0 0 0 0 0 0 0 127 0"/>
<feOffset dy="4"/>
<feGaussianBlur stdDeviation="2"/>
<feColorMatrix type="matrix" values="0 0 0 0 0 0 0 0 0 0 0 0 0 0 0 0 0 0 0.25 0"/>
<feBlend mode="normal" in2="BackgroundImageFix" result="effect1_dropShadow"/>
<feBlend mode="normal" in="SourceGraphic" in2="effect1_dropShadow" result="shape"/>
</filter>
</defs>
</svg>
